<svg id="cloud" xmlns="http://www.w3.org/2000/svg" xmlns:xlink="http://www.w3.org/1999/xlink" width="327.547" height="271.757" viewBox="0 0 327.547 271.757">
  <defs>
    <linearGradient id="linear-gradient" x1="0.5" x2="0.5" y2="1" gradientUnits="objectBoundingBox">
      <stop offset="0" stop-color="#fff"/>
      <stop offset="1" stop-color="#d2e6ee"/>
    </linearGradient>
  </defs>
  <g id="Grupo_61977" data-name="Grupo 61977" transform="translate(116.526 74.874)">
    <path id="Trazado_132386" data-name="Trazado 132386" d="M1424.2,1041a.719.719,0,0,1-.72-.718.772.772,0,0,1,.72-.778.674.674,0,0,1,.719.663v.115A.719.719,0,0,1,1424.2,1041Z" transform="translate(-1423.48 -1039.502)" fill="#2e97e6"/>
    <path id="Trazado_132387" data-name="Trazado 132387" d="M1424.2,1112.609a.72.72,0,0,1-.72-.719v-.233a.719.719,0,1,1,1.438,0v.233A.72.72,0,0,1,1424.2,1112.609Zm0-6.077a.72.72,0,0,1-.72-.719v-.233a.719.719,0,1,1,1.438,0v.233A.72.72,0,0,1,1424.2,1106.532Zm0-6.078a.72.72,0,0,1-.72-.719v-.236a.719.719,0,0,1,1.438,0v.236A.72.72,0,0,1,1424.2,1100.455Zm0-6.08a.719.719,0,0,1-.72-.719v-.233a.719.719,0,1,1,1.438,0v.233A.719.719,0,0,1,1424.2,1094.374Zm0-6.077a.719.719,0,0,1-.72-.719v-.233a.719.719,0,0,1,1.438,0v.233A.719.719,0,0,1,1424.2,1088.3Zm0-6.078a.719.719,0,0,1-.72-.719v-.233a.719.719,0,0,1,1.438,0v.233A.719.719,0,0,1,1424.2,1082.219Zm0-6.08a.719.719,0,0,1-.72-.719v-.233a.719.719,0,1,1,1.438,0v.233A.719.719,0,0,1,1424.2,1076.139Zm0-6.077a.72.72,0,0,1-.72-.719v-.233a.719.719,0,0,1,1.438,0v.233A.72.72,0,0,1,1424.2,1070.062Zm0-6.078a.719.719,0,0,1-.72-.719v-.233a.719.719,0,1,1,1.438,0v.233A.719.719,0,0,1,1424.2,1063.984Zm0-6.077a.72.72,0,0,1-.72-.719v-.236a.719.719,0,1,1,1.438,0v.236A.72.72,0,0,1,1424.2,1057.907Zm0-6.08a.72.72,0,0,1-.72-.719v-.233a.719.719,0,0,1,1.438,0v.233A.72.72,0,0,1,1424.2,1051.827Z" transform="translate(-1423.48 -1044.253)" fill="#2e97e6"/>
    <path id="Trazado_132388" data-name="Trazado 132388" d="M1424.2,1172.423a.719.719,0,0,1-.72-.719.769.769,0,0,1,.72-.775.672.672,0,0,1,.719.66v.115A.719.719,0,0,1,1424.2,1172.423Z" transform="translate(-1423.48 -1098.107)" fill="#2e97e6"/>
  </g>
  <g id="Grupo_61978" data-name="Grupo 61978" transform="translate(184.077 75.121)">
    <path id="Trazado_132389" data-name="Trazado 132389" d="M1546.113,1041.442a.719.719,0,0,1-.718-.719.769.769,0,0,1,.718-.775.671.671,0,0,1,.719.66v.115A.719.719,0,0,1,1546.113,1041.442Z" transform="translate(-1545.394 -1039.948)" fill="#2e97e6"/>
    <path id="Trazado_132390" data-name="Trazado 132390" d="M1546.113,1113.051a.719.719,0,0,1-.718-.719v-.234a.719.719,0,1,1,1.438,0v.234A.719.719,0,0,1,1546.113,1113.051Zm0-6.077a.719.719,0,0,1-.718-.719v-.232a.719.719,0,1,1,1.438,0v.232A.719.719,0,0,1,1546.113,1106.973Zm0-6.077a.719.719,0,0,1-.718-.719v-.236a.719.719,0,0,1,1.438,0v.236A.719.719,0,0,1,1546.113,1100.9Zm0-6.081a.719.719,0,0,1-.718-.718v-.233a.719.719,0,1,1,1.438,0v.233A.719.719,0,0,1,1546.113,1094.815Zm0-6.077a.719.719,0,0,1-.718-.719v-.232a.719.719,0,1,1,1.438,0v.232A.719.719,0,0,1,1546.113,1088.738Zm0-6.078a.719.719,0,0,1-.718-.719v-.233a.719.719,0,0,1,1.438,0v.233A.719.719,0,0,1,1546.113,1082.661Zm0-6.08a.719.719,0,0,1-.718-.719v-.233a.719.719,0,0,1,1.438,0v.233A.719.719,0,0,1,1546.113,1076.58Zm0-6.077a.719.719,0,0,1-.718-.719v-.233a.719.719,0,1,1,1.438,0v.233A.719.719,0,0,1,1546.113,1070.5Zm0-6.078a.719.719,0,0,1-.718-.719v-.233a.719.719,0,1,1,1.438,0v.233A.719.719,0,0,1,1546.113,1064.426Zm0-6.077a.72.72,0,0,1-.718-.72v-.235a.719.719,0,1,1,1.438,0v.235A.72.72,0,0,1,1546.113,1058.349Zm0-6.081a.719.719,0,0,1-.718-.719v-.233a.719.719,0,1,1,1.438,0v.233A.719.719,0,0,1,1546.113,1052.268Z" transform="translate(-1545.394 -1044.696)" fill="#2e97e6"/>
    <path id="Trazado_132391" data-name="Trazado 132391" d="M1546.113,1172.865a.72.72,0,0,1-.718-.72.769.769,0,0,1,.718-.775.674.674,0,0,1,.719.662v.113A.72.72,0,0,1,1546.113,1172.865Z" transform="translate(-1545.394 -1098.551)" fill="#2e97e6"/>
  </g>
  <g id="Grupo_61979" data-name="Grupo 61979" transform="translate(139.043 70.959)">
    <path id="Trazado_132392" data-name="Trazado 132392" d="M1464.836,1033.933a.719.719,0,0,1-.719-.719.773.773,0,0,1,.719-.778.671.671,0,0,1,.719.66v.118A.719.719,0,0,1,1464.836,1033.933Z" transform="translate(-1464.117 -1032.436)" fill="#2e97e6"/>
    <path id="Trazado_132393" data-name="Trazado 132393" d="M1464.836,1105.539a.719.719,0,0,1-.719-.719v-.233a.719.719,0,0,1,1.438,0v.233A.719.719,0,0,1,1464.836,1105.539Zm0-6.078a.719.719,0,0,1-.719-.719v-.233a.719.719,0,0,1,1.438,0v.233A.719.719,0,0,1,1464.836,1099.461Zm0-6.077a.719.719,0,0,1-.719-.719v-.235a.719.719,0,1,1,1.438,0v.235A.719.719,0,0,1,1464.836,1093.384Zm0-6.081a.719.719,0,0,1-.719-.718v-.234a.719.719,0,0,1,1.438,0v.234A.719.719,0,0,1,1464.836,1087.3Zm0-6.077a.719.719,0,0,1-.719-.719v-.233a.719.719,0,1,1,1.438,0v.233A.719.719,0,0,1,1464.836,1081.226Zm0-6.077a.72.72,0,0,1-.719-.719v-.233a.719.719,0,1,1,1.438,0v.233A.719.719,0,0,1,1464.836,1075.149Zm0-6.081a.719.719,0,0,1-.719-.719v-.233a.719.719,0,0,1,1.438,0v.233A.719.719,0,0,1,1464.836,1069.068Zm0-6.077a.719.719,0,0,1-.719-.719v-.233a.719.719,0,1,1,1.438,0v.233A.719.719,0,0,1,1464.836,1062.991Zm0-6.077a.719.719,0,0,1-.719-.719v-.233a.719.719,0,1,1,1.438,0v.233A.719.719,0,0,1,1464.836,1056.914Zm0-6.078a.719.719,0,0,1-.719-.719v-.236a.719.719,0,0,1,1.438,0v.236A.719.719,0,0,1,1464.836,1050.836Zm0-6.08a.72.72,0,0,1-.719-.719v-.233a.719.719,0,1,1,1.438,0v.233A.719.719,0,0,1,1464.836,1044.756Z" transform="translate(-1464.117 -1037.184)" fill="#2e97e6"/>
    <path id="Trazado_132394" data-name="Trazado 132394" d="M1464.836,1165.358a.719.719,0,0,1-.719-.719.769.769,0,0,1,.719-.775.671.671,0,0,1,.719.66v.115A.719.719,0,0,1,1464.836,1165.358Z" transform="translate(-1464.117 -1091.041)" fill="#2e97e6"/>
  </g>
  <g id="Grupo_61980" data-name="Grupo 61980" transform="translate(161.559 70.712)">
    <path id="Trazado_132395" data-name="Trazado 132395" d="M1505.473,1033.487a.719.719,0,0,1-.719-.719.772.772,0,0,1,.719-.778.673.673,0,0,1,.719.663v.115A.719.719,0,0,1,1505.473,1033.487Z" transform="translate(-1504.754 -1031.99)" fill="#2e97e6"/>
    <path id="Trazado_132396" data-name="Trazado 132396" d="M1505.473,1105.1a.72.72,0,0,1-.719-.719v-.233a.719.719,0,0,1,1.438,0v.233A.719.719,0,0,1,1505.473,1105.1Zm0-6.078a.719.719,0,0,1-.719-.719v-.233a.719.719,0,0,1,1.438,0v.233A.719.719,0,0,1,1505.473,1099.02Zm0-6.077a.72.72,0,0,1-.719-.719v-.236a.719.719,0,1,1,1.438,0v.236A.719.719,0,0,1,1505.473,1092.943Zm0-6.08a.72.72,0,0,1-.719-.719v-.233a.719.719,0,0,1,1.438,0v.233A.719.719,0,0,1,1505.473,1086.863Zm0-6.078a.72.72,0,0,1-.719-.719v-.233a.719.719,0,1,1,1.438,0v.233A.719.719,0,0,1,1505.473,1080.785Zm0-6.077a.72.72,0,0,1-.719-.719v-.233a.719.719,0,1,1,1.438,0v.233A.72.72,0,0,1,1505.473,1074.708Zm0-6.081a.719.719,0,0,1-.719-.719v-.233a.719.719,0,0,1,1.438,0v.233A.719.719,0,0,1,1505.473,1068.627Zm0-6.077a.72.72,0,0,1-.719-.719v-.233a.719.719,0,1,1,1.438,0v.233A.719.719,0,0,1,1505.473,1062.55Zm0-6.077a.72.72,0,0,1-.719-.719v-.233a.719.719,0,1,1,1.438,0v.233A.719.719,0,0,1,1505.473,1056.473Zm0-6.078a.719.719,0,0,1-.719-.719v-.236a.719.719,0,1,1,1.438,0v.236A.719.719,0,0,1,1505.473,1050.4Zm0-6.08a.719.719,0,0,1-.719-.719v-.233a.719.719,0,1,1,1.438,0v.233A.719.719,0,0,1,1505.473,1044.315Z" transform="translate(-1504.754 -1036.741)" fill="#2e97e6"/>
    <path id="Trazado_132397" data-name="Trazado 132397" d="M1505.473,1164.915a.72.72,0,0,1-.719-.718.773.773,0,0,1,.719-.778.674.674,0,0,1,.719.663v.115A.719.719,0,0,1,1505.473,1164.915Z" transform="translate(-1504.754 -1090.595)" fill="#2e97e6"/>
  </g>
  <g id="Grupo_61984" data-name="Grupo 61984" transform="translate(37.505 152.153)">
    <g id="Grupo_61981" data-name="Grupo 61981" transform="translate(187.18 72.194)">
      <path id="Trazado_132399" data-name="Trazado 132399" d="M1628.63,1311.932a19.8,19.8,0,0,0-5.791,5.059l1.72,1.33a17.844,17.844,0,0,0-3.1,6.256l-2.1-.562a19.868,19.868,0,0,0-.521,7.672l.481-.058,1.675-.216a17.651,17.651,0,0,0,2.237,6.612l-1.885,1.089a19.658,19.658,0,0,0,5.066,5.788l1.33-1.72a17.684,17.684,0,0,0,6.249,3.1l-.561,2.1a19.883,19.883,0,0,0,7.678.518l0-.007-.075-.623-.195-1.526a17.627,17.627,0,0,0,6.6-2.233l1.089,1.885a19.683,19.683,0,0,0,5.794-5.07l-1.72-1.329a17.657,17.657,0,0,0,3.1-6.245l2.1.562a19.9,19.9,0,0,0,.517-7.679l-2.156.273a17.613,17.613,0,0,0-2.233-6.6l1.885-1.089a19.666,19.666,0,0,0-5.069-5.795l-1.33,1.72a17.667,17.667,0,0,0-6.245-3.1l.561-2.095a19.738,19.738,0,0,0-7.678-.518v.019l.182,1.419.091.719a17.645,17.645,0,0,0-6.6,2.232Zm5.143,8.905a9.619,9.619,0,1,1-3.525,13.138A9.616,9.616,0,0,1,1633.772,1320.837Z" transform="translate(-1618.681 -1309.266)" fill="#00223d"/>
    </g>
    <g id="Grupo_61982" data-name="Grupo 61982">
      <path id="Trazado_132400" data-name="Trazado 132400" d="M1290.814,1181.639a19.781,19.781,0,0,0-5.792,5.059l1.721,1.329a17.851,17.851,0,0,0-3.1,6.257l-2.1-.561a19.859,19.859,0,0,0-.522,7.672l.481-.059,1.675-.215a17.676,17.676,0,0,0,2.237,6.612l-1.886,1.088a19.643,19.643,0,0,0,5.066,5.788l1.33-1.72a17.7,17.7,0,0,0,6.25,3.1l-.562,2.095a19.9,19.9,0,0,0,7.679.518l0-.008-.074-.623-.2-1.526a17.635,17.635,0,0,0,6.605-2.233l1.088,1.886a19.7,19.7,0,0,0,5.8-5.07l-1.721-1.33a17.643,17.643,0,0,0,3.1-6.245l2.1.561a19.9,19.9,0,0,0,.518-7.679l-2.156.274a17.634,17.634,0,0,0-2.233-6.6l1.885-1.088a19.666,19.666,0,0,0-5.07-5.8l-1.33,1.72a17.663,17.663,0,0,0-6.245-3.1l.561-2.1a19.752,19.752,0,0,0-7.678-.518v.019l.181,1.419.091.719a17.661,17.661,0,0,0-6.6,2.233Zm5.142,8.9a9.619,9.619,0,1,1-3.526,13.14A9.615,9.615,0,0,1,1295.957,1190.544Z" transform="translate(-1280.865 -1178.972)" fill="#37a3a5"/>
    </g>
    <g id="Grupo_61983" data-name="Grupo 61983" transform="translate(221.846 57.292)">
      <path id="Trazado_132401" data-name="Trazado 132401" d="M1689.928,1282.372a11,11,0,0,0-3.951,1.629l.669,1.006a9.926,9.926,0,0,0-2.749,2.74l-1-.669a11.042,11.042,0,0,0-1.643,3.945l.264.055.92.186a9.811,9.811,0,0,0,0,3.88l-1.187.236a10.908,10.908,0,0,0,1.634,3.951l1.007-.669a9.843,9.843,0,0,0,2.735,2.75l-.669,1a11.068,11.068,0,0,0,3.949,1.643v0l.071-.342.17-.837a9.826,9.826,0,0,0,3.875,0l.237,1.186a10.939,10.939,0,0,0,3.954-1.634l-.668-1.007a9.815,9.815,0,0,0,2.745-2.735l1,.669a11.043,11.043,0,0,0,1.642-3.949l-1.184-.241a9.774,9.774,0,0,0,0-3.874l1.188-.237a10.95,10.95,0,0,0-1.635-3.955l-1.008.668a9.808,9.808,0,0,0-2.734-2.745l.67-1a10.994,10.994,0,0,0-3.95-1.642l0,.01-.157.779-.081.395a9.8,9.8,0,0,0-3.875,0Zm1.118,5.6a5.346,5.346,0,1,1-4.2,6.287A5.344,5.344,0,0,1,1691.046,1287.977Z" transform="translate(-1681.245 -1282.372)" fill="none" stroke="#37a3a5" stroke-miterlimit="10" stroke-width="0.548"/>
    </g>
  </g>
  <g id="Grupo_62001" data-name="Grupo 62001" transform="translate(60.585 110.275)">
    <path id="Trazado_132402" data-name="Trazado 132402" d="M1399.762,1157.833V1150.5a6.031,6.031,0,0,0-6.031-6.032h-64.216a6.033,6.033,0,0,0-6.033,6.032v129.691h166.11V1157.833Z" transform="translate(-1322.948 -1121.707)" fill="#00223d"/>
    <path id="Trazado_132403" data-name="Trazado 132403" d="M1333.524,1177.278v117.285H1487.4V1176.7Z" transform="translate(-1327.426 -1136.082)" fill="#fff"/>
    <path id="Trazado_132404" data-name="Trazado 132404" d="M1346.39,1177.278v117.285h155.2V1176.7Z" transform="translate(-1333.163 -1136.082)" fill="#00223d"/>
    <path id="Trazado_132405" data-name="Trazado 132405" d="M1509.681,1168.594H1356.659a5.8,5.8,0,0,0-5.9,5.031v117.322h167.008V1176.6A8.275,8.275,0,0,0,1509.681,1168.594Z" transform="translate(-1335.11 -1132.467)" fill="#fff"/>
    <g id="Grupo_61986" data-name="Grupo 61986" transform="translate(48.275 13.541)">
      <g id="Grupo_61985" data-name="Grupo 61985" transform="translate(0 0)">
        <rect id="Rectángulo_29938" data-name="Rectángulo 29938" width="98.636" height="74.961" transform="matrix(1, -0.003, 0.003, 1, 0, 0.276)" fill="#ebf3ff"/>
        <rect id="Rectángulo_29939" data-name="Rectángulo 29939" width="93.59" height="68.912" transform="translate(2.479 2.716) rotate(-0.16)" fill="#37a3a5"/>
        <path id="Trazado_132406" data-name="Trazado 132406" d="M1428.7,1221.555l60.144-.168-32.884-31.548Z" transform="translate(-1418.143 -1155.481)" fill="#e3eeff"/>
        <path id="Trazado_132407" data-name="Trazado 132407" d="M1478.06,1225.844l50.534-.141-27.421-26.074Z" transform="translate(-1440.151 -1159.847)" fill="#e3eeff"/>
        <path id="Trazado_132408" data-name="Trazado 132408" d="M1513.161,1171.548a6.965,6.965,0,1,1-6.984-6.945A6.964,6.964,0,0,1,1513.161,1171.548Z" transform="translate(-1449.592 -1144.228)" fill="#e3eeff"/>
      </g>
    </g>
    <g id="Grupo_61989" data-name="Grupo 61989" transform="translate(68.561 0)">
      <g id="Grupo_61987" data-name="Grupo 61987" transform="translate(0)">
        <rect id="Rectángulo_29940" data-name="Rectángulo 29940" width="91.443" height="79.523" transform="matrix(1, -0.003, 0.003, 1, 0, 0.293)" fill="#ebf3ff"/>
        <rect id="Rectángulo_29941" data-name="Rectángulo 29941" width="86.25" height="73.106" transform="matrix(1, -0.003, 0.003, 1, 2.552, 2.881)" fill="#00223d"/>
      </g>
      <g id="Grupo_61988" data-name="Grupo 61988" transform="translate(11.024 12.973)">
        <rect id="Rectángulo_29942" data-name="Rectángulo 29942" width="34.351" height="3.018" transform="translate(0)" fill="#cce5ff"/>
        <rect id="Rectángulo_29943" data-name="Rectángulo 29943" width="69.887" height="3.018" transform="translate(0 8.15)" fill="#cce5ff"/>
        <rect id="Rectángulo_29944" data-name="Rectángulo 29944" width="69.887" height="3.018" transform="translate(0 16.447)" fill="#cce5ff"/>
      </g>
    </g>
    <path id="Trazado_132409" data-name="Trazado 132409" d="M1519.972,1176.621v114.337h-165.94V1173.612a5.808,5.808,0,0,1,5.882-5.013h152A8.253,8.253,0,0,1,1519.972,1176.621Z" transform="translate(-1336.571 -1132.469)" fill="url(#linear-gradient)"/>
    <rect id="Rectángulo_29945" data-name="Rectángulo 29945" width="16.741" height="1.571" transform="translate(0 156.91)" fill="#fff"/>
    <path id="Trazado_132410" data-name="Trazado 132410" d="M1323.161,1267.8l5.831,3.641h9.429l1.878,1.82v-1.729h165.83V1267.8Z" transform="translate(-1322.805 -1176.705)" opacity="0.5" style="mix-blend-mode: darken;isolation: isolate"/>
    <g id="Grupo_61991" data-name="Grupo 61991" transform="translate(0.506 73.283)">
      <g id="Grupo_61990" data-name="Grupo 61990">
        <path id="Trazado_132518" data-name="Trazado 132518" d="M0,0H184.667V19.479H0Z" fill="#21587b"/>
        <rect id="Rectángulo_29947" data-name="Rectángulo 29947" width="168.043" height="19.479" transform="translate(16.624)" fill="#37a3a5"/>
      </g>
    </g>
    <g id="Grupo_62000" data-name="Grupo 62000" transform="translate(34.91 73.162)">
      <path id="Trazado_132411" data-name="Trazado 132411" d="M1429.715,1235.652v19.473h13.632l-9.558-19.473Z" transform="translate(-1405.229 -1235.531)" fill="#21587b"/>
      <g id="Grupo_61996" data-name="Grupo 61996" transform="translate(19.548)">
        <g id="Grupo_61993" data-name="Grupo 61993" transform="translate(1.734 0.127)">
          <path id="Trazado_132412" data-name="Trazado 132412" d="M1427.553,1235.664h-3.62v19.466h3.62c1.186,0,2.26-1.069,3.032-2.866a17.3,17.3,0,0,0,1.262-6.889C1431.848,1240.028,1429.927,1235.664,1427.553,1235.664Zm-.339,9.712c0-1.625.528-2.952,1.206-3.166.678.214,1.205,1.541,1.205,3.166,0,1.669-.527,2.995-1.205,3.208C1427.741,1248.37,1427.214,1247.045,1427.214,1245.376Z" transform="translate(-1423.933 -1235.664)" fill="#00223d"/>
          <g id="Grupo_61992" data-name="Grupo 61992">
            <path id="Trazado_132413" data-name="Trazado 132413" d="M1425.51,1235.664h-1.578v19.466h1.578c1.241,0,2.364-1.069,3.173-2.866a16.646,16.646,0,0,0,1.32-6.889C1430,1240.028,1427.993,1235.664,1425.51,1235.664Zm1.025,12.92c-.71-.214-1.262-1.539-1.262-3.208,0-1.625.552-2.952,1.262-3.166a3.8,3.8,0,0,1,0,6.374Z" transform="translate(-1423.933 -1235.664)" fill="#00223d"/>
          </g>
        </g>
        <g id="Grupo_61995" data-name="Grupo 61995">
          <path id="Trazado_132414" data-name="Trazado 132414" d="M1424.423,1235.664H1420.8v19.466h3.619c1.187,0,2.26-1.069,3.033-2.866a17.307,17.307,0,0,0,1.262-6.889C1428.718,1240.028,1426.8,1235.664,1424.423,1235.664Zm-.339,9.712c0-1.625.527-2.952,1.206-3.166.677.214,1.2,1.541,1.2,3.166,0,1.669-.528,2.995-1.2,3.208C1424.611,1248.37,1424.084,1247.045,1424.084,1245.376Z" transform="translate(-1420.803 -1235.536)" fill="#00223d"/>
          <g id="Grupo_61994" data-name="Grupo 61994" transform="translate(0 0.127)">
            <path id="Trazado_132415" data-name="Trazado 132415" d="M1422.38,1235.664H1420.8v19.466h1.576c1.242,0,2.365-1.069,3.173-2.866a16.639,16.639,0,0,0,1.321-6.889C1426.874,1240.028,1424.864,1235.664,1422.38,1235.664Zm1.5,12.92c-.709-.214-1.261-1.539-1.261-3.208,0-1.625.552-2.952,1.261-3.166.71.214,1.261,1.541,1.261,3.166C1425.138,1247.045,1424.587,1248.37,1423.877,1248.584Z" transform="translate(-1420.803 -1235.664)" fill="#21587b"/>
          </g>
          <path id="Trazado_132416" data-name="Trazado 132416" d="M1427.252,1255.155h-.023a.127.127,0,0,1,.01-.253,2.747,2.747,0,0,0,1.815-.875c1.018-.984,2.233-3.221,2.233-8.286,0-9.219-4.035-10.046-4.075-10.054a.126.126,0,0,1-.1-.146.125.125,0,0,1,.146-.1c.175.03,4.285.848,4.285,10.3,0,5.166-1.262,7.462-2.32,8.478A3,3,0,0,1,1427.252,1255.155Z" transform="translate(-1423.614 -1235.434)" fill="#00223d"/>
        </g>
      </g>
      <g id="Grupo_61997" data-name="Grupo 61997" transform="translate(4.699 6.892)">
        <path id="Trazado_132417" data-name="Trazado 132417" d="M1411.929,1253.989c-.171.043-.3.086-.47.129.043.043.043.043,0,.043a16.7,16.7,0,0,0-11.979,15.958v16.262H1394v-16.262a22.148,22.148,0,0,1,17.284-21.563,3.522,3.522,0,0,1,.641-.17C1413.513,1248.043,1413.642,1253.733,1411.929,1253.989Z" transform="translate(-1394.004 -1248.094)" fill="#fff"/>
        <path id="Trazado_132418" data-name="Trazado 132418" d="M1438.054,1247.872v5.446a16.812,16.812,0,0,1,14.274,12.989,1.794,1.794,0,0,1,.085.427,9.864,9.864,0,0,1,.171,1.113,16.481,16.481,0,0,1,.129,2.053v16.262h5.434V1269.9A22.213,22.213,0,0,0,1438.054,1247.872Z" transform="translate(-1413.646 -1247.872)" fill="#fff"/>
        <path id="Trazado_132419" data-name="Trazado 132419" d="M1414.918,1255.487c-12.84,2.252-14.494,16.232-14.494,16.232v17.769h1.927v-16.262a16.751,16.751,0,0,1,12.437-16.122c.546-.177.886-1.773.886-1.773S1415.336,1255.407,1414.918,1255.487Z" transform="translate(-1396.867 -1251.198)" fill="#e6e6e6"/>
        <path id="Trazado_132420" data-name="Trazado 132420" d="M1438.054,1255.612v1.158a16.812,16.812,0,0,1,14.274,12.989A15.988,15.988,0,0,0,1438.054,1255.612Z" transform="translate(-1413.646 -1251.323)" fill="#e6e6e6"/>
        <path id="Trazado_132421" data-name="Trazado 132421" d="M1425.839,1253.989c-.171.043-.3.086-.47.129a5.771,5.771,0,0,0,.91-2.744c.086-1.669-.481-2.8-1.081-2.817a3.53,3.53,0,0,1,.641-.17C1427.423,1248.043,1427.551,1253.733,1425.839,1253.989Z" transform="translate(-1407.914 -1248.094)" fill="#e6e6e6"/>
      </g>
      <g id="Grupo_61999" data-name="Grupo 61999" transform="translate(0 40.708)">
        <rect id="Rectángulo_29948" data-name="Rectángulo 29948" width="53.948" height="44.509" transform="translate(0 0.036)" fill="#37a3a5"/>
        <g id="Grupo_61998" data-name="Grupo 61998" transform="translate(20.002 10.887)">
          <path id="Trazado_132422" data-name="Trazado 132422" d="M1421.622,1335.244a6.738,6.738,0,0,0,3.936,6.133v11.357a2.776,2.776,0,0,0,2.183,2.721h.127a1.439,1.439,0,0,0,.428.043,2.769,2.769,0,0,0,2.737-2.765v-11.357a6.784,6.784,0,0,0,3.937-6.133,6.677,6.677,0,0,0-6.674-6.694,2.077,2.077,0,0,0-.514.043A6.635,6.635,0,0,0,1421.622,1335.244Z" transform="translate(-1421.622 -1328.55)" fill="#00ccc3"/>
          <path id="Trazado_132423" data-name="Trazado 132423" d="M1421.622,1335.279a6.737,6.737,0,0,0,3.936,6.133v11.358a2.776,2.776,0,0,0,2.183,2.721h.127a2.776,2.776,0,0,0,2.182-2.721v-11.358a6.784,6.784,0,0,0,3.936-6.133,6.2,6.2,0,1,0-12.364,0Z" transform="translate(-1421.622 -1328.585)" fill="#00223d"/>
        </g>
        <path id="Trazado_132424" data-name="Trazado 132424" d="M1451.991,1353.066h17.119v-44.1h-4.75S1465.623,1341.506,1451.991,1353.066Z" transform="translate(-1415.162 -1308.931)" fill="#00223d"/>
        <rect id="Rectángulo_29949" data-name="Rectángulo 29949" width="4.406" height="44.055" transform="translate(1.772)" fill="#00223d"/>
      </g>
    </g>
    <g id="Grupo_63339" data-name="Grupo 63339" transform="translate(148.938 -55.191)">
      <path id="Trazado_123883" data-name="Trazado 123883" d="M2591.4,1088.087c-18.147-10.411-36.511-27.043-46.751-45.271a3.454,3.454,0,0,1-.462-1.772V980.486a3.563,3.563,0,0,1,2.439-3.42l45.4-15.633a3.481,3.481,0,0,1,2.355,0l45.4,15.633a3.565,3.565,0,0,1,2.439,3.42v60.558a3.459,3.459,0,0,1-.464,1.772c-10.24,18.228-28.6,34.86-46.749,45.271A3.529,3.529,0,0,1,2591.4,1088.087Z" transform="translate(-2544.189 -961.228)" fill="#37a3a5" fill-rule="evenodd"/>
      <path id="Trazado_123885" data-name="Trazado 123885" d="M2546.163,1043.231c13.46,24.009,38.1,40.246,47.729,45.556V962.522l-45.751,15.756a3.566,3.566,0,0,0-2.44,3.419v59.764A3.471,3.471,0,0,0,2546.163,1043.231Z" transform="translate(-2544.879 -961.819)" fill="#37a3a5" fill-rule="evenodd"/>
      <path id="Trazado_123886" data-name="Trazado 123886" d="M2600.217,977.167l38.229,13.165a3.566,3.566,0,0,1,2.44,3.42v52.373a3.464,3.464,0,0,1-.517,1.863c-9.222,15.339-24.575,29.314-39.723,38.545l-.429.261c-15.5-9.439-30.755-23.171-40.151-38.805a3.455,3.455,0,0,1-.517-1.863V993.752a3.564,3.564,0,0,1,2.439-3.42Z" transform="translate(-2551.205 -968.508)" fill="#fff" fill-rule="evenodd"/>
      <path id="Trazado_123887" data-name="Trazado 123887" d="M2600.91,978.774l-37.4,12.881a3.565,3.565,0,0,0-2.438,3.42v51.559a3.471,3.471,0,0,0,.518,1.866c8.932,14.83,24.327,28.931,39.325,38.061Z" transform="translate(-2551.898 -969.243)" fill="#00223d" fill-rule="evenodd"/>
      <path id="Trazado_123888" data-name="Trazado 123888" d="M2674.252,1046.634V995.075a3.564,3.564,0,0,0-2.438-3.42l-37.406-12.881v107.787h0c15-9.13,30.391-23.231,39.323-38.061A3.477,3.477,0,0,0,2674.252,1046.634Z" transform="translate(-2585.397 -969.243)" fill="#00223d" fill-rule="evenodd"/>
      <path id="Trazado_123889" data-name="Trazado 123889" d="M2623.928,1009.987a12.494,12.494,0,0,1,12.464,12.466v9.727a2.492,2.492,0,0,1-2.493,2.493h-19.946a2.493,2.493,0,0,1-2.493-2.493v-9.727a12.494,12.494,0,0,1,12.467-12.466Zm0,4.987a7.505,7.505,0,0,0-7.48,7.479v7.234h14.958v-7.234a7.507,7.507,0,0,0-7.478-7.479Z" transform="translate(-2574.915 -983.499)" fill-rule="evenodd" fill="url(#linear-gradient)"/>
      <path id="Trazado_123890" data-name="Trazado 123890" d="M2634.408,1045.174h16.623a3.333,3.333,0,0,1,3.324,3.324v31.173a3.334,3.334,0,0,1-3.324,3.324h-16.623Z" transform="translate(-2585.397 -999.571)" fill-rule="evenodd" fill="url(#linear-gradient)"/>
      <path id="Trazado_123891" data-name="Trazado 123891" d="M2601.017,1045.174h16.622V1083h-16.622a3.333,3.333,0,0,1-3.324-3.324V1048.5A3.332,3.332,0,0,1,2601.017,1045.174Z" transform="translate(-2568.627 -999.571)" fill-rule="evenodd" fill="url(#linear-gradient)"/>
      <path id="Trazado_123892" data-name="Trazado 123892" d="M2630.6,1064.669a4.535,4.535,0,0,1,1.848,8.675l.114.324,1.959,5.618h-7.843l1.961-5.618.114-.324a4.535,4.535,0,0,1,1.847-8.675Z" transform="translate(-2581.587 -1008.475)" fill="#00223d" fill-rule="evenodd"/>
      <path id="Trazado_123893" data-name="Trazado 123893" d="M2632.625,1064.987a4.536,4.536,0,0,1,.583,8.5l.113.323,1.96,5.618H2628.4l1.9-5.454.113-.323a4.535,4.535,0,0,1,1.849-8.676C2632.388,1064.972,2632.507,1064.977,2632.625,1064.987Z" transform="translate(-2582.348 -1008.614)" fill="#37a3a5" fill-rule="evenodd"/>
    </g>
  </g>
  <g id="Grupo_62004" data-name="Grupo 62004" transform="translate(91.126 0)">
    <g id="Grupo_62002" data-name="Grupo 62002" transform="translate(0 0)">
      <rect id="Rectángulo_29950" data-name="Rectángulo 29950" width="116.187" height="32.842" rx="16.421" transform="translate(0 39.495)" fill="#00223d"/>
      <circle id="Elipse_4135" data-name="Elipse 4135" cx="25.677" cy="25.677" r="25.677" transform="translate(39.28 18.94) rotate(-21.641)" fill="#00223d"/>
      <circle id="Elipse_4136" data-name="Elipse 4136" cx="17.312" cy="17.312" r="17.312" transform="translate(20.217 17.419)" fill="#00223d"/>
    </g>
    <g id="Grupo_62003" data-name="Grupo 62003" transform="translate(46.905 32.049)">
      <path id="Trazado_132425" data-name="Trazado 132425" d="M1481.955,969.633l-1.077,1.2,7.76.109-.967-7.7-1.455,1.625a15.259,15.259,0,0,0-23.925,12.393l6.318-.011a8.972,8.972,0,0,1,2.257-5.726A9.067,9.067,0,0,1,1481.955,969.633Z" transform="translate(-1462.291 -962.213)" fill="#fff"/>
      <path id="Trazado_132426" data-name="Trazado 132426" d="M1491.408,999.177a15.266,15.266,0,0,0,3.848-9.966l-6.318.011a8.984,8.984,0,0,1-13.345,7.619l1.076-1.2-7.761-.109.968,7.7,1.455-1.626A15.379,15.379,0,0,0,1491.408,999.177Z" transform="translate(-1465.242 -974.251)" fill="#fff"/>
    </g>
  </g>
  <g id="Grupo_62011" data-name="Grupo 62011" transform="translate(156.169 155.139)">
    <path id="Trazado_132427" data-name="Trazado 132427" d="M1568.628,1221.975s3.021,2.869,2.056,8.306c4.523,3.783,5.016,10.526,4.359,13.652,7.8,7.073,5.881,17.177.439,20.149-5.189,2.832-12.781.152-15.9-6.469-4.966-8.3-9.814-23.794-2-31.936C1555.938,1219.946,1566.38,1219.015,1568.628,1221.975Z" transform="translate(-1521.087 -1200.402)" fill="#0e0e0e"/>
    <g id="Grupo_62007" data-name="Grupo 62007" transform="translate(20.516 13.274)">
      <path id="Trazado_132428" data-name="Trazado 132428" d="M1551.974,1230.043l-7.708-7.834.007-13.555-2.547-.336s-2.084,12.328-2.078,14.949c.006,2.326,7.812,12.435,7.812,12.435Z" transform="translate(-1535.44 -1208.319)" fill="#ffa599"/>
      <path id="Trazado_132429" data-name="Trazado 132429" d="M1568.472,1254.467l-4.255,11.683H1552.93s-.738-7.223-.892-11.065a15.132,15.132,0,0,1,.017-2.058c.377-2.78,4.958-6.553,4.958-6.553a.473.473,0,0,0,.1-.017c.909-.1,7.1-.789,9.367,1.115C1568.9,1249.63,1568.472,1254.467,1568.472,1254.467Z" transform="translate(-1540.954 -1225.233)" fill="#006662"/>
      <path id="Trazado_132430" data-name="Trazado 132430" d="M1572.365,1308.024h-10.047c.25,2.045,1.315,4.267,1.772,6.094,4.091,11.208,6.086,26.212,10.4,36.1,0,0,1.858.963,3.092,0-.843-7.439-.783-12.052-3.207-24.374C1573.535,1322.257,1573.875,1313.691,1572.365,1308.024Z" transform="translate(-1545.549 -1252.779)" fill="#ffa599"/>
      <path id="Trazado_132431" data-name="Trazado 132431" d="M1546.765,1308.024c-1.3,12.428-3.7,39.272-3.961,42.044l3.192.016c2.095-7.113,4.765-13.5,5-22.519,1.629-4.965,4.34-13.315,6.374-19.541Z" transform="translate(-1536.847 -1252.779)" fill="#ffa599"/>
      <path id="Trazado_132432" data-name="Trazado 132432" d="M1565.895,1312.5l-7.584.625-1.841.152-8.143.676c-.353,3.449-.746,7.546-1.132,11.757,2.45,1.016,5.87,2.484,6.164,2.615l3.989-12.21c1.167,3.8,2.595,8.777,3.673,12.659a30.268,30.268,0,0,1,6.389-2.238C1567.011,1322.038,1566.517,1316.869,1565.895,1312.5Z" transform="translate(-1538.805 -1254.773)" fill="#e87c5d"/>
      <path id="Trazado_132433" data-name="Trazado 132433" d="M1576.143,1233.341l7.472-5.73-2.386-12.618,2.723-.838s5.89,11.912,5.883,14.532c-.005,2.325-10.806,11.529-10.806,11.529C1577.26,1241.053,1574.623,1237.146,1576.143,1233.341Z" transform="translate(-1551.51 -1210.922)" fill="#ffa599"/>
      <path id="Trazado_132434" data-name="Trazado 132434" d="M1561.344,1245.7s-3.175,2.172-1.989,3.8c1.021,1.4,3.541-.2,3.541-.2s.423,2.163,2.116,1.875c2.354-.4,2.848-3.869,1.862-5S1562.495,1245.117,1561.344,1245.7Z" transform="translate(-1544.109 -1224.803)" fill="#fff"/>
      <path id="Trazado_132435" data-name="Trazado 132435" d="M1568.286,1244.615c0,.943-1.569,2.3-3.759,2.19-1.391-.069-2.172-.858-1.945-1.835l.241-1.253.67-3.568,5.1.137Z" transform="translate(-1545.649 -1222.513)" fill="#ffa599"/>
      <path id="Trazado_132436" data-name="Trazado 132436" d="M1568.469,1240.955c-.7,1.471-2.094,2.6-5.421,2.762l.67-3.568,4.735.137Z" transform="translate(-1545.874 -1222.513)" fill="#e87c5d"/>
      <path id="Trazado_132437" data-name="Trazado 132437" d="M1569.329,1228.846a5.8,5.8,0,0,1-7.6,3.452,5.47,5.47,0,0,1-1.024-7.3c-.839-4.745,4.417-7.008,7.784-5.066C1571.376,1221.594,1571.182,1225.432,1569.329,1228.846Z" transform="translate(-1544.401 -1213.186)" fill="#ffa599"/>
      <path id="Trazado_132438" data-name="Trazado 132438" d="M1570.277,1310.882a39.447,39.447,0,0,1-10.5,1.9c-7.5.429-16.1-.812-16.876-2.168a177.341,177.341,0,0,1,5.982-28.454h11.271a17.837,17.837,0,0,1,4.958,7.205A131.1,131.1,0,0,1,1570.277,1310.882Z" transform="translate(-1536.891 -1241.247)" fill="#006662"/>
      <g id="Grupo_62005" data-name="Grupo 62005" transform="translate(0 97.286)">
        <path id="Trazado_132439" data-name="Trazado 132439" d="M1532.328,1387.131c0-.04,1.9-.042,3.927-.033,2.335.007,5.243.033,5.243.033a10.589,10.589,0,0,0-.206-3.215l-3.658-.019a24.955,24.955,0,0,0-2.79.713c-.117.035-.243.062-.372.092C1531.63,1385.36,1532.328,1387.214,1532.328,1387.131Z" transform="translate(-1532.142 -1383.897)" fill="#fdfeff"/>
        <path id="Trazado_132440" data-name="Trazado 132440" d="M1532.328,1387.7c0-.04,1.9-.042,3.927-.033a1.79,1.79,0,0,0,.1-.584,2.047,2.047,0,0,0-1.508-1.9c-.119.032-.243.061-.372.092C1531.63,1385.934,1532.328,1387.788,1532.328,1387.7Z" transform="translate(-1532.142 -1384.471)" fill="#d9ecff"/>
        <rect id="Rectángulo_29951" data-name="Rectángulo 29951" width="9.481" height="0.576" transform="translate(9.481 3.237) rotate(180)" fill="#d9ecff"/>
      </g>
      <g id="Grupo_62006" data-name="Grupo 62006" transform="translate(28.611 97.416)">
        <path id="Trazado_132441" data-name="Trazado 132441" d="M1583.885,1387.367c.054,0,.984-.01,2.136-.021,1.875-.018,4.34-.032,4.572.021.653-1.579-.7-2.389-1.95-2.836-.532-.189-1.045-.312-1.374-.4l-3.178.018A10.6,10.6,0,0,0,1583.885,1387.367Z" transform="translate(-1583.759 -1384.133)" fill="#fdfeff"/>
        <rect id="Rectángulo_29952" data-name="Rectángulo 29952" width="7.021" height="0.576" transform="translate(0 2.66)" fill="#d9ecff"/>
      </g>
      <path id="Trazado_132442" data-name="Trazado 132442" d="M1587.631,1387.649c1.876-.018,4.341-.032,4.573.022.653-1.578-.7-2.389-1.95-2.836a2.591,2.591,0,0,0-2.232.736A1.793,1.793,0,0,0,1587.631,1387.649Z" transform="translate(-1556.759 -1287.021)" fill="#d9ecff"/>
      <path id="Trazado_132443" data-name="Trazado 132443" d="M1559.232,1283.365a14.82,14.82,0,0,1-5.85-1.17.257.257,0,0,1,.224-.463,14.3,14.3,0,0,0,11.049,0,.257.257,0,1,1,.207.472A13.93,13.93,0,0,1,1559.232,1283.365Z" transform="translate(-1541.5 -1241.044)" fill="#fff"/>
      <path id="Trazado_132444" data-name="Trazado 132444" d="M1554.554,1223.473c3.509,4.194,8.114-4.167,11.209-1.54,0,0,.273,6.268,2.381,4.161.657-.786,1.4-4.49-.356-5.722.042-2.025-3.329-4.027-7.277-3.077a5.024,5.024,0,0,0-3.739,3.676A1.8,1.8,0,0,0,1554.554,1223.473Z" transform="translate(-1541.985 -1212.213)" fill="#0e0e0e"/>
    </g>
    <g id="Grupo_62008" data-name="Grupo 62008" transform="translate(0)">
      <rect id="Rectángulo_29953" data-name="Rectángulo 29953" width="70.089" height="7.117" transform="translate(1.278 0.554) rotate(10.348)" fill="#00223d"/>
      <rect id="Rectángulo_29954" data-name="Rectángulo 29954" width="70.089" height="0.474" transform="translate(1.303 0.42) rotate(10.348)" fill="#fff"/>
      <path id="Trazado_132445" data-name="Trazado 132445" d="M1629.984,1184.816a18.692,18.692,0,1,0,15.035,21.742A18.7,18.7,0,0,0,1629.984,1184.816Zm8.463,19.951c-.016.186-.05.389-.083.574a11.922,11.922,0,0,1-23.533-.456,11.732,11.732,0,0,1,.068-3.835,11.927,11.927,0,0,1,23.566,3.632A.148.148,0,0,1,1638.448,1204.767Z" transform="translate(-1545.376 -1184.427)" fill="#00223d"/>
      <rect id="Rectángulo_29955" data-name="Rectángulo 29955" width="6.578" height="13.802" transform="translate(5.712 3.885) rotate(10.348)" fill="#00223d"/>
      <rect id="Rectángulo_29956" data-name="Rectángulo 29956" width="6.578" height="10.459" transform="matrix(0.984, 0.18, -0.18, 0.984, 18.035, 7.231)" fill="#00223d"/>
      <path id="Trazado_132446" data-name="Trazado 132446" d="M1643.767,1209.226a11.927,11.927,0,0,0-23.567-3.632,11.726,11.726,0,0,0-.067,3.835,11.241,11.241,0,0,1-.3-2.635,12.1,12.1,0,0,1,24.192,0A11.584,11.584,0,0,1,1643.767,1209.226Z" transform="translate(-1550.677 -1188.971)" fill="#0a3366"/>
      <path id="Trazado_132447" data-name="Trazado 132447" d="M1627.919,1184.38c-13.968-.567-18.567,12.082-18.617,12.224l.67.107c.2-.557,4.477-12.287,17.947-11.664Z" transform="translate(-1545.983 -1184.361)" fill="#fff"/>
    </g>
    <g id="Grupo_62009" data-name="Grupo 62009" transform="translate(26.734 10.5)">
      <path id="Trazado_132448" data-name="Trazado 132448" d="M1545.708,1206.735s1-.241,1.273-1.951.316-1.313.316-1.313-.941-.485-1.439,1.489c-1.476-.1-2.659.6-2.578,1.557C1543.328,1207.1,1545.527,1207,1545.708,1206.735Z" transform="translate(-1543.275 -1203.36)" fill="#ffa599"/>
      <path id="Trazado_132449" data-name="Trazado 132449" d="M1543.424,1205.961l-.143-.09a2.775,2.775,0,0,1,2.514-1.046c.286-1.12.825-1.646,1.524-1.485l-.039.165c-.777-.181-1.156.676-1.338,1.426l-.016.068-.07,0A2.693,2.693,0,0,0,1543.424,1205.961Z" transform="translate(-1543.277 -1203.312)" fill="#ff7e59"/>
    </g>
    <g id="Grupo_62010" data-name="Grupo 62010" transform="translate(48.241 14.295)">
      <path id="Trazado_132450" data-name="Trazado 132450" d="M1584.3,1213.952s-1.471-.491-2.053-3.554c.946-.672,1.318,1.105,1.318,1.105a6.819,6.819,0,0,1,2.692.4c.579.263.717.582,1.042,1.4C1588.128,1215.07,1584.3,1213.952,1584.3,1213.952Z" transform="translate(-1582.158 -1210.199)" fill="#ffa599"/>
      <path id="Trazado_132451" data-name="Trazado 132451" d="M1587.211,1213.35a.086.086,0,0,1-.079-.054s-.108-.277-.321-.751c-.612-1.2-3.284-1-3.311-1l-.069.005-.019-.067a5.838,5.838,0,0,0-.373-.908.421.421,0,0,0-.252-.229.872.872,0,0,0-.572.083.085.085,0,0,1-.114-.036.083.083,0,0,1,.035-.114,1.04,1.04,0,0,1,.7-.095.591.591,0,0,1,.352.314,6.338,6.338,0,0,1,.364.872c.442-.027,2.8-.109,3.411,1.1.217.481.325.759.327.762a.084.084,0,0,1-.049.109A.073.073,0,0,1,1587.211,1213.35Z" transform="translate(-1582.09 -1210.16)" fill="#ff7e59"/>
    </g>
    <path id="Trazado_132452" data-name="Trazado 132452" d="M1576.31,1234.481a1.165,1.165,0,1,0,1.165-1.165A1.165,1.165,0,0,0,1576.31,1234.481Z" transform="translate(-1531.272 -1206.191)" fill="#ffa599"/>
  </g>
  <path id="Trazado_132453" data-name="Trazado 132453" d="M1539.213,1392.4H1214.688a1.511,1.511,0,0,1-1.511-1.511h0a1.51,1.51,0,0,1,1.511-1.51h324.526a1.511,1.511,0,0,1,1.511,1.51h0A1.511,1.511,0,0,1,1539.213,1392.4Z" transform="translate(-1213.177 -1120.642)"/>
</svg>
