<svg xmlns="http://www.w3.org/2000/svg" width="199.155" height="275.986" viewBox="0 0 199.155 275.986">
  <g id="Grupo_64140" data-name="Grupo 64140" transform="translate(-164.269 -638.26)">
    <g id="Grupo_64140-2" data-name="Grupo 64140" transform="translate(164.269 827.527)">
      <path id="Trazado_133401" data-name="Trazado 133401" d="M252.575,921.292H164.269V840.915a6.341,6.341,0,1,1,12.681,0v67.7h75.624a6.341,6.341,0,0,1,0,12.681Z" transform="translate(-164.269 -834.574)" fill="#37a3a5"/>
    </g>
    <path id="Trazado_133408" data-name="Trazado 133408" d="M334.777,658.021V640.053H170.848V907.894H334.777V711.459" transform="translate(-0.238 0)" fill="none" stroke="#12263f" stroke-linecap="round" stroke-miterlimit="10" stroke-width="3.588"/>
    <path id="Trazado_133409" data-name="Trazado 133409" d="M366.69,675.313l-8.711,43.251H254.412l8.711-43.251Z" transform="translate(-3.266 -12.277)" fill="#37a3a5"/>
    <g id="Grupo_64154" data-name="Grupo 64154" transform="translate(310.439 661.236)">
      <g id="Grupo_64153" data-name="Grupo 64153">
        <g id="Grupo_64152" data-name="Grupo 64152">
          <path id="Trazado_133701" data-name="Trazado 133701" d="M15.806-8.818q0,4.424-1.831,6.768A6.391,6.391,0,0,1,8.613.293a6.436,6.436,0,0,1-5.332-2.3A10.488,10.488,0,0,1,1.392-8.6v-3.926q0-4.468,1.853-6.782a6.439,6.439,0,0,1,5.339-2.314,6.445,6.445,0,0,1,5.332,2.292,10.456,10.456,0,0,1,1.89,6.584Zm-4.233-4.316A7.81,7.81,0,0,0,10.847-17a2.45,2.45,0,0,0-2.263-1.21,2.407,2.407,0,0,0-2.2,1.151,7.309,7.309,0,0,0-.754,3.6v5.191a8.2,8.2,0,0,0,.71,3.878A2.418,2.418,0,0,0,8.613-3.12a2.377,2.377,0,0,0,2.241-1.217,8,8,0,0,0,.718-3.724ZM28.945,0H24.712V-16.318l-5.054,1.567v-3.442l8.833-3.164h.454Z" transform="translate(6 34)" fill="#12263f"/>
        </g>
      </g>
    </g>
    <g id="PEZHOx.tif" transform="translate(194.02 666.504)">
      <g id="Grupo_61747" data-name="Grupo 61747">
        <path id="Trazado_132028" data-name="Trazado 132028" d="M1460.75,1464.9l1.447,4.813h1.919v1.179h-14.367v-1.169h1.915l1.449-4.824h-12.281a1.785,1.785,0,0,1-1.924-1.914q0-13.087,0-26.175a1.8,1.8,0,0,1,1.963-1.956l32.179,0a1.778,1.778,0,0,1,1.907,1.892q0,13.125,0,26.249a1.782,1.782,0,0,1-1.9,1.9q-5.913,0-11.827,0Zm-20.643-4.83h33.649v-.321q0-11.359,0-22.719c0-.821-.159-.973-1-.973h-31.727c-.747,0-.924.179-.924.932v23.081Zm33.644,1.251H1440.11v1.411c0,.812.156.969.958.969h29.923c.688,0,1.377,0,2.065-.006a.613.613,0,0,0,.691-.627C1473.764,1462.5,1473.751,1461.924,1473.751,1461.324Zm-14.27,3.579c-1.655,0-3.28,0-4.9.01a.384.384,0,0,0-.261.229c-.161.472-.294.953-.437,1.43-.309,1.036-.618,2.072-.931,3.12h7.967Z" transform="translate(-1438.906 -1434.859)" fill="#12263f"/>
        <path id="Trazado_132029" data-name="Trazado 132029" d="M1609.473,1554.917q-4.449,0-8.9,0a1.782,1.782,0,0,1-1.923-1.914q0-6.215,0-12.43a1.779,1.779,0,0,1,1.886-1.877c2.2,0,4.406,0,6.608,0a1.8,1.8,0,0,1,1.341.566c.5.507,1.016,1,1.51,1.517a1.02,1.02,0,0,0,.8.327c2.541-.008,5.081,0,7.622,0a1.776,1.776,0,0,1,1.86,1.863q0,5.069,0,10.139a1.78,1.78,0,0,1-1.833,1.818q-4.487,0-8.974,0Zm-.007-1.2h8.746c.676,0,.867-.193.867-.872q0-4.824,0-9.648c0-.722-.177-.9-.917-.9-2.5,0-5,0-7.507,0a1.92,1.92,0,0,1-1.443-.6c-.491-.5-.972-1.013-1.495-1.477a1.272,1.272,0,0,0-.752-.317c-2.089-.025-4.179-.015-6.269-.014-.651,0-.842.195-.843.856q0,6.007,0,12.014c0,.779.166.948.945.949Q1605.13,1553.72,1609.466,1553.717Z" transform="translate(-1586.632 -1530.881)" fill="#12263f"/>
        <path id="Trazado_132030" data-name="Trazado 132030" d="M1489.9,1470.508l-.887.917c-.326-.349-.647-.679-.95-1.025a.336.336,0,0,0-.452-.094c-.6.254-1.2.5-1.808.723a.716.716,0,0,1-.454,0c-.446-.161-.87-.387-1.321-.527a1.294,1.294,0,0,1-.888-.9c-.2-.551-.455-1.08-.693-1.631-.483,0-.958-.013-1.432.011-.095,0-.221.133-.267.234-.269.591-.509,1.2-.784,1.783a.775.775,0,0,1-.351.345c-.533.245-1.074.475-1.624.675a.888.888,0,0,1-.559-.006c-.576-.206-1.144-.435-1.7-.684a.4.4,0,0,0-.544.122c-.231.263-.505.487-.732.753a.451.451,0,0,0-.074.377c.22.6.485,1.178.7,1.778a.928.928,0,0,1-.009.593,5.047,5.047,0,0,1-.8,1.791,5.1,5.1,0,0,1-1.809.851.552.552,0,0,0-.427.653c.035.372-.112.834.062,1.1a1.74,1.74,0,0,0,.985.475,2.479,2.479,0,0,1,1.784,1.789,1.971,1.971,0,0,1,0,1.794c-.2.355-.306.764-.473,1.141a.336.336,0,0,0,.086.454,9.788,9.788,0,0,1,.77.77.339.339,0,0,0,.455.084c.574-.245,1.151-.486,1.738-.7a.891.891,0,0,1,.559-.009c.492.177.967.4,1.487.619l-.454,1.11c-.361-.145-.7-.3-1.048-.411a.873.873,0,0,0-.524,0c-.691.255-1.372.536-2.052.818a.35.35,0,0,1-.455-.089c-.626-.648-1.276-1.273-1.9-1.924a.476.476,0,0,1-.084-.407c.249-.68.545-1.342.788-2.024a1.251,1.251,0,0,0,0-.633,1.631,1.631,0,0,0-1.255-1.313,9.243,9.243,0,0,1-1.411-.6.478.478,0,0,1-.237-.34q-.029-1.37,0-2.741a.476.476,0,0,1,.243-.336c.634-.295,1.275-.578,1.926-.83a1.031,1.031,0,0,0,.538-.566,1.591,1.591,0,0,0,.02-1.651c-.252-.47-.4-.994-.611-1.488a.346.346,0,0,1,.075-.457q.972-.939,1.911-1.912a.35.35,0,0,1,.458-.076c.646.268,1.3.517,1.942.791a.969.969,0,0,0,.713.011,1.754,1.754,0,0,0,1.276-1.262c.148-.487.4-.941.589-1.417a.346.346,0,0,1,.387-.253c.889.012,1.777.014,2.666,0a.371.371,0,0,1,.405.282c.268.659.542,1.318.845,1.961a1.171,1.171,0,0,0,.421.422,1.717,1.717,0,0,0,1.889.029,11.268,11.268,0,0,1,1.423-.573.374.374,0,0,1,.32.039C1488.831,1469.44,1489.368,1469.981,1489.9,1470.508Z" transform="translate(-1468.427 -1464.356)" fill="#12263f"/>
        <path id="Trazado_132031" data-name="Trazado 132031" d="M1538.027,1539.4l.51,1.018a4.88,4.88,0,0,0,0,8.675l-.509,1.023a5.95,5.95,0,0,1-.005-10.716Z" transform="translate(-1527.463 -1531.531)" fill="#12263f"/>
        <path id="Trazado_132032" data-name="Trazado 132032" d="M1649.1,1619.889l-.867.834-3.315-3.357,3.368-3.368.741.788-2.528,2.513Z" transform="translate(-1629.419 -1600.521)" fill="#12263f"/>
        <path id="Trazado_132033" data-name="Trazado 132033" d="M1788.318,1616.939l-3.373,3.375-.809-.774,2.546-2.536-2.612-2.562.9-.868Z" transform="translate(-1758.102 -1600.128)" fill="#12263f"/>
        <path id="Trazado_132034" data-name="Trazado 132034" d="M1720.5,1628.758l-1.058-.594,3.008-5.412,1.062.587Z" transform="translate(-1698.333 -1608.616)" fill="#12263f"/>
      </g>
    </g>
  </g>
</svg>
