<svg xmlns="http://www.w3.org/2000/svg" width="199.155" height="275.986" viewBox="0 0 199.155 275.986">
  <g id="Grupo_64265" data-name="Grupo 64265" transform="translate(-1010.017 -22239.063)">
    <g id="Grupo_64144" data-name="Grupo 64144" transform="translate(845.748 21600.803)">
      <g id="Grupo_64140" data-name="Grupo 64140" transform="translate(164.269 827.527)">
        <path id="Trazado_133401" data-name="Trazado 133401" d="M252.575,921.292H164.269V840.915a6.341,6.341,0,1,1,12.681,0v67.7h75.624a6.341,6.341,0,0,1,0,12.681Z" transform="translate(-164.269 -834.574)" fill="#37a3a5"/>
      </g>
      <path id="Trazado_133408" data-name="Trazado 133408" d="M334.777,658.021V640.053H170.848V907.894H334.777V711.459" transform="translate(-0.238 0)" fill="none" stroke="#12263f" stroke-linecap="round" stroke-miterlimit="10" stroke-width="3.588"/>
      <path id="Trazado_133409" data-name="Trazado 133409" d="M366.69,675.313l-8.711,43.251H254.412l8.711-43.251Z" transform="translate(-3.266 -12.277)" fill="#37a3a5"/>
      <g id="Grupo_64154" data-name="Grupo 64154" transform="translate(310.439 661.236)">
        <g id="Grupo_64153" data-name="Grupo 64153">
          <g id="Grupo_64152" data-name="Grupo 64152">
            <text id="_05" data-name="05" transform="translate(6 34)" fill="#12263f" font-size="30" font-family="Roboto-Bold, Roboto" font-weight="700"><tspan x="0" y="0">05</tspan></text>
          </g>
        </g>
      </g>
      <g id="Grupo_64168" data-name="Grupo 64168" transform="translate(193.364 664.053)">
        <g id="Grupo_39107" data-name="Grupo 39107">
          <path id="Trazado_91710" data-name="Trazado 91710" d="M448.094,325.333H419.836a2.9,2.9,0,0,1-2.893-2.892l0-1.636a.671.671,0,0,1,.671-.672h0a.672.672,0,0,1,.672.671l0,1.637a1.551,1.551,0,0,0,1.549,1.549h28.257a1.551,1.551,0,0,0,1.549-1.548V318a1.551,1.551,0,0,0-1.549-1.548H419.836A1.551,1.551,0,0,0,418.288,318v.811a.672.672,0,1,1-1.344,0V318a2.9,2.9,0,0,1,2.893-2.892h28.257A2.9,2.9,0,0,1,450.986,318v4.441A2.9,2.9,0,0,1,448.094,325.333Z" transform="translate(-416.942 -315.108)" fill="#00223d"/>
        </g>
        <g id="Grupo_39109" data-name="Grupo 39109" transform="translate(26.02 3.029)">
          <path id="Trazado_91711" data-name="Trazado 91711" d="M463.191,324.418a2.085,2.085,0,1,1,2.086-2.085A2.087,2.087,0,0,1,463.191,324.418Zm0-2.826a.741.741,0,0,0-.741.741.733.733,0,0,0,.741.741.742.742,0,0,0,.742-.741A.751.751,0,0,0,463.191,321.593Z" transform="translate(-461.107 -320.249)"/>
        </g>
        <g id="Grupo_39112" data-name="Grupo 39112" transform="translate(4.211 3.031)">
          <path id="Trazado_91714" data-name="Trazado 91714" d="M424.762,324.422a.671.671,0,0,1-.672-.672v-2.826a.672.672,0,1,1,1.344,0v2.826A.672.672,0,0,1,424.762,324.422Z" transform="translate(-424.09 -320.253)" fill="#00223d"/>
        </g>
        <g id="Grupo_39113" data-name="Grupo 39113" transform="translate(8.248 3.031)">
          <path id="Trazado_91715" data-name="Trazado 91715" d="M431.614,324.422a.671.671,0,0,1-.672-.672v-2.826a.672.672,0,1,1,1.344,0v2.826A.671.671,0,0,1,431.614,324.422Z" transform="translate(-430.942 -320.253)" fill="#00223d"/>
        </g>
        <g id="Grupo_39114" data-name="Grupo 39114" transform="translate(12.285 3.031)">
          <path id="Trazado_91716" data-name="Trazado 91716" d="M438.505,324.422a.672.672,0,0,1-.672-.662l-.038-2.826a.672.672,0,0,1,.662-.681h.009a.672.672,0,0,1,.672.663l.039,2.826a.671.671,0,0,1-.663.681Z" transform="translate(-437.795 -320.253)" fill="#00223d"/>
        </g>
        <g id="Grupo_39115" data-name="Grupo 39115" transform="translate(0 12.543)">
          <path id="Trazado_91717" data-name="Trazado 91717" d="M439.122,346.623H419.834a2.9,2.9,0,0,1-2.892-2.892v-4.44a2.9,2.9,0,0,1,2.892-2.892h28.258a2.833,2.833,0,0,1,.741.1.672.672,0,0,1-.114,1.317c-.01,0-.035.017-.062.028l-8.041,3.481a1.358,1.358,0,0,0-.823,1.241v3.391A.671.671,0,0,1,439.122,346.623Zm-19.288-8.881a1.55,1.55,0,0,0-1.548,1.548v4.44a1.55,1.55,0,0,0,1.548,1.549h18.616V342.56a2.7,2.7,0,0,1,1.631-2.473l5.418-2.345Z" transform="translate(-416.942 -336.398)" fill="#00223d"/>
        </g>
        <g id="Grupo_39116" data-name="Grupo 39116" transform="translate(4.211 15.579)">
          <path id="Trazado_91718" data-name="Trazado 91718" d="M424.762,345.721a.672.672,0,0,1-.672-.672v-2.826a.672.672,0,1,1,1.344,0v2.826A.672.672,0,0,1,424.762,345.721Z" transform="translate(-424.09 -341.551)" fill="#00223d"/>
        </g>
        <g id="Grupo_39117" data-name="Grupo 39117" transform="translate(8.248 15.579)">
          <path id="Trazado_91719" data-name="Trazado 91719" d="M431.614,345.721a.672.672,0,0,1-.672-.672v-2.826a.672.672,0,1,1,1.344,0v2.826A.672.672,0,0,1,431.614,345.721Z" transform="translate(-430.942 -341.551)" fill="#00223d"/>
        </g>
        <g id="Grupo_39118" data-name="Grupo 39118" transform="translate(12.285 15.579)">
          <path id="Trazado_91720" data-name="Trazado 91720" d="M438.505,345.721a.672.672,0,0,1-.672-.663l-.038-2.826a.671.671,0,0,1,.662-.681h.009a.672.672,0,0,1,.672.663l.039,2.826a.671.671,0,0,1-.663.681Z" transform="translate(-437.795 -341.552)" fill="#00223d"/>
        </g>
        <g id="Grupo_39119" data-name="Grupo 39119" transform="translate(0.009 25.105)">
          <path id="Trazado_91721" data-name="Trazado 91721" d="M442.657,367.946H419.849a2.9,2.9,0,0,1-2.892-2.892v-1.423a.672.672,0,0,1,1.343,0v1.423a1.551,1.551,0,0,0,1.549,1.548h21.315a15.042,15.042,0,0,1-2.1-3.49,7.5,7.5,0,0,1-.61-3v-1.048H419.849a1.551,1.551,0,0,0-1.549,1.549v1.3a.672.672,0,1,1-1.343,0v-1.3a2.9,2.9,0,0,1,2.892-2.893h19.279a.672.672,0,0,1,.672.672v1.72a6.172,6.172,0,0,0,.5,2.47,13.817,13.817,0,0,0,2.835,4.222.671.671,0,0,1-.48,1.142Z" transform="translate(-416.957 -357.721)" fill="#00223d"/>
        </g>
        <g id="Grupo_39120" data-name="Grupo 39120" transform="translate(4.211 28.127)">
          <path id="Trazado_91722" data-name="Trazado 91722" d="M424.762,367.019a.671.671,0,0,1-.672-.672v-2.826a.672.672,0,0,1,1.344,0v2.826A.672.672,0,0,1,424.762,367.019Z" transform="translate(-424.09 -362.85)" fill="#00223d"/>
        </g>
        <g id="Grupo_39121" data-name="Grupo 39121" transform="translate(8.248 28.127)">
          <path id="Trazado_91723" data-name="Trazado 91723" d="M431.614,367.019a.671.671,0,0,1-.672-.672v-2.826a.672.672,0,0,1,1.344,0v2.826A.671.671,0,0,1,431.614,367.019Z" transform="translate(-430.942 -362.85)" fill="#00223d"/>
        </g>
        <g id="Grupo_39122" data-name="Grupo 39122" transform="translate(12.285 28.127)">
          <path id="Trazado_91724" data-name="Trazado 91724" d="M438.505,367.019a.672.672,0,0,1-.672-.663l-.038-2.826a.671.671,0,0,1,.662-.681h.009a.672.672,0,0,1,.672.663l.039,2.826a.672.672,0,0,1-.663.681Z" transform="translate(-437.795 -362.85)" fill="#00223d"/>
        </g>
        <g id="Grupo_39125" data-name="Grupo 39125" transform="translate(3.341 8.882)">
          <path id="Trazado_91725" data-name="Trazado 91725" d="M449.314,335.193H423.285a.671.671,0,0,1-.672-.672v-3.665a.672.672,0,0,1,.672-.672h26.029a.672.672,0,0,1,.672.672v3.665A.671.671,0,0,1,449.314,335.193Zm-25.357-1.343h24.685v-2.322H423.957Z" transform="translate(-422.613 -330.184)" fill="#00223d"/>
        </g>
        <g id="Grupo_39126" data-name="Grupo 39126" transform="translate(3.343 21.433)">
          <path id="Trazado_91726" data-name="Trazado 91726" d="M441.453,356.5H423.288a.671.671,0,0,1-.672-.672v-3.673a.671.671,0,0,1,.672-.672h18.165a.671.671,0,0,1,.672.672v3.673A.671.671,0,0,1,441.453,356.5ZM423.96,355.16h16.822v-2.33H423.96Z" transform="translate(-422.616 -351.487)" fill="#00223d"/>
        </g>
        <g id="Grupo_39129" data-name="Grupo 39129" transform="translate(21.509 12.599)">
          <path id="Trazado_91729" data-name="Trazado 91729" d="M463.81,362.834a1.691,1.691,0,0,1-.527-.083,14.871,14.871,0,0,1-9.223-8.36,7.5,7.5,0,0,1-.61-3V342.6a2.7,2.7,0,0,1,1.631-2.473l8.058-3.488a1.528,1.528,0,0,1,.456-.125,1.585,1.585,0,0,1,.9.13l8.047,3.482a2.708,2.708,0,0,1,1.624,2.474v3.391a.672.672,0,1,1-1.343,0V342.6a1.361,1.361,0,0,0-.818-1.243l-8.054-3.486a.306.306,0,0,0-.183-.027.468.468,0,0,0-.115.034l-8.041,3.481a1.358,1.358,0,0,0-.823,1.241v8.792a6.174,6.174,0,0,0,.5,2.47,13.52,13.52,0,0,0,8.41,7.614.428.428,0,0,0,.239-.009,13.709,13.709,0,0,0,8.39-7.605,6.28,6.28,0,0,0,.494-2.469v-3.556a.672.672,0,1,1,1.343,0v3.556a7.622,7.622,0,0,1-.6,3,14.984,14.984,0,0,1-9.142,8.328A1.554,1.554,0,0,1,463.81,362.834Z" transform="translate(-453.45 -336.493)" fill="#00223d"/>
        </g>
        <g id="Grupo_39132" data-name="Grupo 39132" transform="translate(24.393 15.905)">
          <path id="Trazado_91732" data-name="Trazado 91732" d="M465.817,361.875a.667.667,0,0,1-.225-.039,11.555,11.555,0,0,1-6.826-6.347,5.01,5.01,0,0,1-.4-1.982l-.021-7.784a.673.673,0,0,1,.4-.618l6.806-2.945a.67.67,0,0,1,.534,0l6.781,2.936a.672.672,0,0,1,.4.616v7.794a5,5,0,0,1-.4,1.977,11.552,11.552,0,0,1-6.839,6.353A.659.659,0,0,1,465.817,361.875Zm-6.127-15.713.019,7.343a3.672,3.672,0,0,0,.29,1.454,10.213,10.213,0,0,0,5.817,5.529,10.213,10.213,0,0,0,5.827-5.534,3.672,3.672,0,0,0,.288-1.447v-7.353l-6.108-2.645Z" transform="translate(-458.345 -342.104)" fill="#00223d"/>
        </g>
      </g>
    </g>
    <g id="Grupo_64150" data-name="Grupo 64150" transform="translate(1044.858 22318.654)">
      <g id="Grupo_61827" data-name="Grupo 61827" transform="translate(3.816 1.397)">
        <g id="Grupo_61826" data-name="Grupo 61826" transform="translate(0 13.33)">
          <g id="Grupo_61825" data-name="Grupo 61825">
            <g id="Grupo_61824" data-name="Grupo 61824">
              <text id="SOFTWARE" transform="translate(49 14)" fill="#12263f" font-size="15" font-family="Roboto-Black, Roboto" font-weight="800"><tspan x="-39.39" y="0">SOFTWARE</tspan></text>
            </g>
          </g>
        </g>
      </g>
      <text id="Ejecutar_y_actualizar_automáticamente_y_de_forma_regular_los_antivirus_y_firewall_para_garantizar_la_seguridad_del_sistema." data-name="Ejecutar y actualizar automáticamente y de forma regular los antivirus y firewall para garantizar la seguridad del sistema." transform="translate(0 38.885)" font-size="13" font-family="Roboto-Regular, Roboto" letter-spacing="-0.015em"><tspan x="26.017" y="14">Ejecutar y </tspan><tspan x="25.944" y="28">actualizar </tspan><tspan x="-0.818" y="42">automáticamente y </tspan><tspan x="6.911" y="56">de forma regular </tspan><tspan x="15.11" y="70">los antivirus y </tspan><tspan x="19.214" y="84">firewall para </tspan><tspan x="18.772" y="98">garantizar la </tspan><tspan x="15.563" y="112">seguridad del </tspan><tspan x="30.761" y="126">sistema.</tspan></text>
      <g id="Grupo_64169" data-name="Grupo 64169" transform="translate(25.971 1.397)">
        <g id="Grupo_61822" data-name="Grupo 61822">
          <g id="Grupo_61821" data-name="Grupo 61821">
            <text id="PROTECCIÓN_DE" data-name="PROTECCIÓN DE" transform="translate(28 11)" fill="#12263f" font-size="12" font-family="Roboto-Medium, Roboto" font-weight="500"><tspan x="-45.243" y="0">PROTECCIÓN DE</tspan></text>
          </g>
        </g>
      </g>
    </g>
  </g>
</svg>
