<svg xmlns="http://www.w3.org/2000/svg" xmlns:xlink="http://www.w3.org/1999/xlink" width="402.183" height="368.135" viewBox="0 0 402.183 368.135">
  <defs>
    <linearGradient id="linear-gradient" x1="0.5" x2="0.5" y2="1" gradientUnits="objectBoundingBox">
      <stop offset="0" stop-color="#fff"/>
      <stop offset="1" stop-color="#d2e6ee"/>
    </linearGradient>
    <linearGradient id="linear-gradient-3" x1="0.087" y1="0.521" x2="1.244" y2="0.349" gradientUnits="objectBoundingBox">
      <stop offset="0.056" stop-color="#92a3b0"/>
      <stop offset="1" stop-color="#fff"/>
    </linearGradient>
    <linearGradient id="linear-gradient-4" x1="0.086" y1="0.52" x2="1.229" y2="0.351" xlink:href="#linear-gradient-3"/>
    <linearGradient id="linear-gradient-5" x1="0.085" y1="0.518" x2="1.215" y2="0.353" xlink:href="#linear-gradient-3"/>
    <linearGradient id="linear-gradient-6" x1="0.085" y1="0.517" x2="1.2" y2="0.355" xlink:href="#linear-gradient-3"/>
    <linearGradient id="linear-gradient-7" x1="0.084" y1="0.516" x2="1.185" y2="0.357" xlink:href="#linear-gradient-3"/>
    <linearGradient id="linear-gradient-8" x1="0.083" y1="0.515" x2="1.17" y2="0.359" xlink:href="#linear-gradient-3"/>
    <linearGradient id="linear-gradient-9" x1="0.082" y1="0.514" x2="1.156" y2="0.361" xlink:href="#linear-gradient-3"/>
    <linearGradient id="linear-gradient-10" x1="0.081" y1="0.513" x2="1.141" y2="0.363" xlink:href="#linear-gradient-3"/>
    <linearGradient id="linear-gradient-11" x1="0.081" y1="0.512" x2="1.126" y2="0.365" xlink:href="#linear-gradient-3"/>
    <linearGradient id="linear-gradient-12" x1="0.08" y1="0.51" x2="1.112" y2="0.367" xlink:href="#linear-gradient-3"/>
    <linearGradient id="linear-gradient-13" x1="0.079" y1="0.509" x2="1.097" y2="0.369" xlink:href="#linear-gradient-3"/>
    <linearGradient id="linear-gradient-14" x1="0.078" y1="0.508" x2="1.082" y2="0.371" xlink:href="#linear-gradient-3"/>
    <linearGradient id="linear-gradient-15" x1="0.077" y1="0.507" x2="1.068" y2="0.373" xlink:href="#linear-gradient-3"/>
    <linearGradient id="linear-gradient-16" x1="0.076" y1="0.505" x2="1.053" y2="0.374" xlink:href="#linear-gradient-3"/>
    <linearGradient id="linear-gradient-17" x1="0.075" y1="0.504" x2="1.038" y2="0.376" xlink:href="#linear-gradient-3"/>
    <linearGradient id="linear-gradient-18" x1="0.074" y1="0.503" x2="1.024" y2="0.378" xlink:href="#linear-gradient-3"/>
    <linearGradient id="linear-gradient-19" x1="0.073" y1="0.502" x2="1.009" y2="0.38" xlink:href="#linear-gradient-3"/>
    <linearGradient id="linear-gradient-20" x1="0.072" y1="0.501" x2="0.995" y2="0.382" xlink:href="#linear-gradient-3"/>
    <linearGradient id="linear-gradient-21" x1="0.071" y1="0.5" x2="0.981" y2="0.385" xlink:href="#linear-gradient-3"/>
    <linearGradient id="linear-gradient-22" x1="0.07" y1="0.499" x2="0.967" y2="0.387" xlink:href="#linear-gradient-3"/>
    <linearGradient id="linear-gradient-23" x1="0.069" y1="0.499" x2="0.953" y2="0.39" xlink:href="#linear-gradient-3"/>
    <linearGradient id="linear-gradient-24" x1="0.069" y1="0.499" x2="0.939" y2="0.393" xlink:href="#linear-gradient-3"/>
    <radialGradient id="radial-gradient" cx="0.5" cy="0.5" r="0.31" gradientTransform="matrix(-1.221, -0.709, -1.221, 0.701, 407.572, 127.868)" xlink:href="#linear-gradient-3"/>
  </defs>
  <g id="Grupo_61932" data-name="Grupo 61932" transform="translate(-318.132 -98.594)">
    <g id="Grupo_61901" data-name="Grupo 61901" transform="translate(390.621 98.594)">
      <g id="Grupo_61900" data-name="Grupo 61900">
        <path id="Trazado_132115" data-name="Trazado 132115" d="M539.565,383.443,370.6,285.893c-6.672-3.852-5.835-10.58,1.869-15.029l95.889-55.36c7.7-4.449,19.359-4.931,26.031-1.079l168.96,97.549c6.672,3.852,5.836,10.58-1.868,15.028L565.6,382.364C557.89,386.813,546.237,387.295,539.565,383.443Z" transform="translate(-366.099 -40.706)" fill="#92b4d1" opacity="0.2"/>
        <path id="Trazado_132116" data-name="Trazado 132116" d="M539.564,379.153,370.6,281.6c-2.973-1.717-4.455-4-4.5-6.406,0-.077,0-8.294,0-8.371.053-2.92,2.211,2.15,6.371-.251l95.889-55.361c7.7-4.449,19.359-4.931,26.031-1.079l168.96,97.549c2.228,1.286,3.843-4.173,4.42-2.438.193.579.07,8.236.083,8.836.063,2.991-2.1,6.161-6.371,8.629L565.6,378.074C557.89,382.523,546.236,383,539.564,379.153Z" transform="translate(-366.098 -42.899)" fill="#12263f"/>
        <path id="Trazado_132117" data-name="Trazado 132117" d="M539.565,373.717,370.6,276.169c-6.672-3.854-5.835-10.582,1.869-15.029l95.889-55.361c7.7-4.448,19.359-4.931,26.031-1.079l168.96,97.549c6.672,3.852,5.836,10.58-1.868,15.029L565.6,372.638C557.89,377.087,546.237,377.57,539.565,373.717Z" transform="translate(-366.099 -45.678)" fill="url(#linear-gradient)"/>
        <path id="Trazado_132118" data-name="Trazado 132118" d="M480.882,324.239c6.672,3.854,18.327,3.37,26.031-1.079v-8.215c-7.7,4.449-19.359,4.933-26.031,1.081Z" transform="translate(-307.416 12.014)" fill="#12263f" opacity="0.5"/>
        <path id="Trazado_132119" data-name="Trazado 132119" d="M539.564,351.037,370.6,253.487c-3.227-1.863-4.68-4.4-4.469-7.024a3.364,3.364,0,0,0-.035.461c0,.077,0,8.294,0,8.371.047,2.4,1.529,4.689,4.5,6.406l168.96,97.549Z" transform="translate(-366.098 -22.997)" fill="#12263f"/>
        <path id="Trazado_132120" data-name="Trazado 132120" d="M661.484,293.3l-95.89,55.361c-7.7,4.449-19.357,4.931-26.03,1.079L370.6,252.187c-2.767-1.6-4.224-3.692-4.452-5.912-.348,2.725,1.109,5.377,4.452,7.308l168.962,97.548c6.672,3.854,18.327,3.37,26.03-1.079l95.89-55.36c4.508-2.6,6.645-5.985,6.322-9.116C667.461,288.291,665.327,291.077,661.484,293.3Z" transform="translate(-366.098 -23.093)" fill="#fff"/>
        <path id="Trazado_132121" data-name="Trazado 132121" d="M476.05,310.406,415.917,275.69c-1.2-.7-1.053-1.91.337-2.713l22.576-13.035a5.221,5.221,0,0,1,4.7-.195l60.132,34.718c1.2.7,1.053,1.909-.337,2.711l-22.576,13.035A5.216,5.216,0,0,1,476.05,310.406Z" transform="translate(-341.045 -16.445)" fill="#fff" opacity="0.3"/>
        <path id="Trazado_132122" data-name="Trazado 132122" d="M416.25,274.4l22.577-13.035a5.221,5.221,0,0,1,4.7-.195l60.132,34.718a1.819,1.819,0,0,1,.556.488,1.257,1.257,0,0,0-.556-1.913l-60.132-34.718a5.221,5.221,0,0,0-4.7.195L416.25,272.977c-1.106.638-1.413,1.534-.893,2.225A2.631,2.631,0,0,1,416.25,274.4Z" transform="translate(-341.041 -16.445)" fill="#a8cff0"/>
        <path id="Trazado_132123" data-name="Trazado 132123" d="M463.317,213.234l10.363,5.983a5.257,5.257,0,0,0,4.757.009c1.31-.757,1.3-1.986-.015-2.747L468.06,210.5a5.262,5.262,0,0,0-4.757-.009C461.992,211.244,462,212.473,463.317,213.234Zm17.743,10.245,4.909,2.834a5.262,5.262,0,0,0,4.757.009c1.31-.757,1.3-1.986-.015-2.747l-4.909-2.834a5.257,5.257,0,0,0-4.757-.009C479.736,221.487,479.743,222.717,481.061,223.479Zm12.289,7.094,4.909,2.835a5.257,5.257,0,0,0,4.757.008c1.309-.756,1.3-1.986-.015-2.746l-4.908-2.834a5.257,5.257,0,0,0-4.757-.009C492.025,228.582,492.031,229.813,493.35,230.573Zm12.288,7.1,4.91,2.835a5.257,5.257,0,0,0,4.757.008c1.309-.756,1.3-1.986-.015-2.746l-4.909-2.835a5.265,5.265,0,0,0-4.759-.008C504.314,235.678,504.32,236.908,505.638,237.668Zm12.289,7.1,4.909,2.835a5.257,5.257,0,0,0,4.757.008c1.31-.756,1.3-1.986-.014-2.746l-4.91-2.835a5.257,5.257,0,0,0-4.757-.008C516.6,242.773,516.61,244,517.928,244.763Zm12.289,7.1,4.909,2.835a5.257,5.257,0,0,0,4.757.007c1.31-.756,1.3-1.986-.015-2.746l-4.909-2.835a5.257,5.257,0,0,0-4.757-.008C528.892,249.868,528.9,251.1,530.217,251.859Zm12.29,7.1,4.909,2.834a5.257,5.257,0,0,0,4.757.009c1.31-.756,1.3-1.986-.015-2.746l-4.909-2.835a5.262,5.262,0,0,0-4.757-.009C541.181,256.964,541.189,258.194,542.507,258.954Zm12.288,7.1,4.91,2.834a5.257,5.257,0,0,0,4.757.009c1.309-.756,1.3-1.986-.015-2.747l-4.909-2.834a5.261,5.261,0,0,0-4.757-.009C553.471,264.059,553.477,265.288,554.794,266.049Zm12.289,7.1,4.909,2.834a5.26,5.26,0,0,0,4.759.009c1.309-.756,1.3-1.986-.015-2.747l-4.91-2.834a5.261,5.261,0,0,0-4.757-.009C565.76,271.154,565.766,272.383,567.084,273.145Zm12.289,7.1,4.909,2.834a5.257,5.257,0,0,0,4.757.009c1.31-.757,1.3-1.986-.015-2.747l-4.908-2.834a5.257,5.257,0,0,0-4.757-.009C578.05,278.25,578.056,279.478,579.373,280.24Zm12.29,7.1,4.909,2.834a5.261,5.261,0,0,0,4.757.009c1.31-.757,1.3-1.986-.015-2.747l-4.909-2.834a5.257,5.257,0,0,0-4.757-.009C590.338,285.343,590.345,286.573,591.663,287.335Zm12.289,7.1,4.909,2.834a5.257,5.257,0,0,0,4.757.007c1.31-.756,1.3-1.986-.015-2.746l-4.909-2.834a5.256,5.256,0,0,0-4.757-.009C602.627,292.439,602.635,293.669,603.952,294.43Zm12.545,7.242,4.909,2.834a5.257,5.257,0,0,0,4.757.009c1.309-.756,1.3-1.986-.015-2.746l-4.908-2.835a5.257,5.257,0,0,0-4.757-.008C615.172,299.682,615.178,300.912,616.5,301.672ZM452.264,220l4.25,2.454a5.982,5.982,0,0,0,5.415.009l4.224-2.438c1.49-.86,1.483-2.261-.018-3.127l-4.25-2.453a5.987,5.987,0,0,0-5.415-.011l-4.222,2.439C450.757,217.73,450.765,219.13,452.264,220Zm21.954,9.559,4.222-2.438c1.492-.861,1.484-2.261-.017-3.127l-4.25-2.453a5.987,5.987,0,0,0-5.415-.011l-4.222,2.439c-1.492.86-1.484,2.259.017,3.125l4.25,2.454A5.982,5.982,0,0,0,474.218,229.554Zm2.625,4.632,4.25,2.454a5.982,5.982,0,0,0,5.415.009l4.222-2.438c1.49-.861,1.483-2.261-.017-3.127l-4.25-2.453a5.987,5.987,0,0,0-5.415-.011l-4.224,2.439C475.335,231.921,475.342,233.32,476.843,234.186Zm12.288,7.1,4.251,2.454a5.983,5.983,0,0,0,5.413.009l4.224-2.438c1.49-.861,1.482-2.261-.017-3.127l-4.25-2.454a5.987,5.987,0,0,0-5.415-.009l-4.224,2.438C487.624,239.016,487.632,240.416,489.131,241.281Zm26.16,3.994-4.25-2.454a5.983,5.983,0,0,0-5.413-.009L501.4,245.25c-1.49.861-1.483,2.261.017,3.127l4.25,2.454a5.987,5.987,0,0,0,5.415.009l4.224-2.438C516.8,247.541,516.791,246.142,515.291,245.276Zm12.289,7.1-4.25-2.454a5.982,5.982,0,0,0-5.415-.009l-4.222,2.438c-1.492.861-1.482,2.261.017,3.127l4.249,2.453a5.987,5.987,0,0,0,5.415.011L527.6,255.5C529.088,254.636,529.081,253.237,527.58,252.371Zm12.29,7.1-4.25-2.454a5.982,5.982,0,0,0-5.415-.009l-4.222,2.438c-1.492.861-1.484,2.261.017,3.127l4.25,2.453a5.987,5.987,0,0,0,5.415.011l4.222-2.439C541.378,261.732,541.37,260.332,539.87,259.466Zm12.289,7.1-4.25-2.454a5.982,5.982,0,0,0-5.415-.009l-4.224,2.438c-1.49.86-1.482,2.261.018,3.127l4.25,2.453a5.987,5.987,0,0,0,5.415.011l4.222-2.439C553.666,268.827,553.658,267.428,552.159,266.562Zm12.289,7.094L560.2,271.2a5.982,5.982,0,0,0-5.415-.009l-4.224,2.438c-1.49.86-1.482,2.261.017,3.125l4.25,2.454a5.987,5.987,0,0,0,5.415.011l4.224-2.439C565.955,275.922,565.948,274.521,564.448,273.655Zm12.288,7.1-4.25-2.453a5.987,5.987,0,0,0-5.415-.011l-4.222,2.439c-1.49.86-1.483,2.259.017,3.125l4.25,2.454a5.982,5.982,0,0,0,5.415.009l4.224-2.438C578.245,283.018,578.237,281.617,576.736,280.751Zm-1.581,10.2,4.25,2.454a5.982,5.982,0,0,0,5.415.009l4.222-2.438c1.492-.86,1.484-2.261-.017-3.127l-4.25-2.453a5.986,5.986,0,0,0-5.415-.011l-4.222,2.439C573.647,288.682,573.655,290.081,575.156,290.947Zm26.16,3.994-4.25-2.453a5.987,5.987,0,0,0-5.415-.011l-4.224,2.439c-1.49.86-1.482,2.259.018,3.125l4.25,2.454a5.982,5.982,0,0,0,5.415.009l4.222-2.438C602.822,297.207,602.814,295.807,601.315,294.941Zm18,10.393-9.7-5.6a5.982,5.982,0,0,0-5.415-.009l-4.224,2.438c-1.49.861-1.483,2.261.018,3.127l9.7,5.6a5.982,5.982,0,0,0,5.415.009l4.222-2.438C620.822,307.6,620.815,306.2,619.314,305.334ZM440.881,226.568l9.7,5.6a5.987,5.987,0,0,0,5.415.011l4.224-2.439c1.49-.86,1.483-2.259-.017-3.125l-9.705-5.6a5.979,5.979,0,0,0-5.413-.009l-4.224,2.438C439.375,224.3,439.382,225.7,440.881,226.568Zm17.744,10.245,4.25,2.453a5.982,5.982,0,0,0,5.415.009l4.224-2.438c1.49-.86,1.482-2.259-.018-3.125l-4.25-2.454a5.987,5.987,0,0,0-5.415-.011l-4.222,2.439C457.118,234.546,457.126,235.945,458.625,236.813Zm16.539,9.548a5.982,5.982,0,0,0,5.415.009l4.222-2.438c1.492-.86,1.484-2.261-.017-3.125l-4.25-2.454a5.987,5.987,0,0,0-5.415-.011l-4.222,2.439c-1.492.86-1.484,2.259.017,3.125Zm12.289,7.1a5.982,5.982,0,0,0,5.415.009l4.222-2.438c1.49-.861,1.482-2.261-.017-3.127l-4.25-2.453a5.987,5.987,0,0,0-5.415-.011l-4.224,2.439c-1.49.86-1.482,2.259.018,3.125Zm12.246-.923-4.224,2.439c-1.49.86-1.483,2.259.017,3.125l4.251,2.454a5.979,5.979,0,0,0,5.413.009l4.224-2.438c1.49-.861,1.482-2.261-.017-3.127l-4.25-2.453A5.987,5.987,0,0,0,499.7,252.533Zm12.548,6.946-4.742,2.738c-1.346.777-1.34,2.042.015,2.824l4.772,2.757a5.41,5.41,0,0,0,4.893.008l4.744-2.738c1.347-.777,1.339-2.042-.017-2.824l-4.771-2.755A5.409,5.409,0,0,0,512.247,259.478Zm12.289,7.1-4.742,2.738c-1.346.777-1.34,2.042.015,2.825l4.772,2.755a5.406,5.406,0,0,0,4.893.009l4.742-2.738c1.348-.777,1.341-2.042-.015-2.824l-4.773-2.755A5.406,5.406,0,0,0,524.536,266.574Zm12.289,7.1-4.742,2.737c-1.348.778-1.34,2.043.015,2.826l4.773,2.755a5.405,5.405,0,0,0,4.893.009l4.742-2.738c1.348-.777,1.34-2.042-.015-2.825l-4.772-2.755A5.406,5.406,0,0,0,536.826,273.669Zm12.289,7.1-4.742,2.737c-1.348.778-1.341,2.043.015,2.826l4.773,2.755a5.405,5.405,0,0,0,4.893.009l4.742-2.738c1.346-.777,1.34-2.042-.015-2.825l-4.772-2.756A5.41,5.41,0,0,0,549.115,280.764Zm12.29,7.094-4.744,2.738c-1.346.778-1.34,2.043.015,2.826l4.773,2.755a5.409,5.409,0,0,0,4.895.009l4.742-2.738c1.346-.778,1.341-2.043-.015-2.824l-4.772-2.757A5.41,5.41,0,0,0,561.4,287.858Zm17.227,15.424,4.744-2.738c1.347-.778,1.339-2.043-.017-2.826l-4.773-2.755a5.41,5.41,0,0,0-4.893-.009l-4.742,2.738c-1.347.778-1.341,2.043.015,2.826l4.773,2.755A5.41,5.41,0,0,0,578.631,303.282Zm12.29,7.1,4.742-2.738c1.348-.778,1.34-2.043-.015-2.826l-4.772-2.755a5.411,5.411,0,0,0-4.894-.009l-4.742,2.738c-1.347.778-1.34,2.043.015,2.826l4.773,2.755A5.41,5.41,0,0,0,590.921,310.377Zm17.272,1.679L603.42,309.3a5.406,5.406,0,0,0-4.893-.009l-4.742,2.738c-1.348.777-1.34,2.042.015,2.825l4.772,2.755a5.406,5.406,0,0,0,4.893.009l4.742-2.738C609.556,314.1,609.548,312.839,608.193,312.056ZM429.237,232.989l15.409,8.9a5.406,5.406,0,0,0,4.893.009l4.744-2.738c1.347-.778,1.339-2.043-.017-2.825l-15.407-8.9a5.41,5.41,0,0,0-4.893-.009l-4.744,2.738C427.875,230.941,427.882,232.206,429.237,232.989Zm22.926,13.236,4.772,2.755a5.406,5.406,0,0,0,4.893.009l4.742-2.738c1.348-.778,1.34-2.043-.015-2.826l-4.773-2.755a5.41,5.41,0,0,0-4.893-.009l-4.742,2.738C450.8,244.177,450.807,245.442,452.163,246.225Zm12.289,7.1,4.773,2.755a5.41,5.41,0,0,0,4.893.009l4.742-2.738c1.346-.778,1.34-2.043-.015-2.826l-4.773-2.755a5.41,5.41,0,0,0-4.893-.009l-4.742,2.738C463.089,251.272,463.1,252.537,464.452,253.32Zm12.289,7.1,4.773,2.755a5.41,5.41,0,0,0,4.893.009l4.742-2.738c1.347-.778,1.341-2.043-.015-2.826l-4.772-2.755a5.41,5.41,0,0,0-4.893-.009l-4.744,2.738C475.379,258.368,475.386,259.632,476.742,260.415Zm21.954,9.859,4.744-2.738c1.347-.778,1.341-2.043-.015-2.826l-4.773-2.755a5.409,5.409,0,0,0-4.895-.009l-4.742,2.738c-1.347.778-1.341,2.043.015,2.824l4.773,2.757A5.411,5.411,0,0,0,498.7,270.275Zm12.289,7.094,4.742-2.738c1.348-.777,1.341-2.042-.015-2.824l-4.773-2.755a5.406,5.406,0,0,0-4.893-.009L501.3,271.78c-1.347.777-1.34,2.042.015,2.824l4.773,2.757A5.41,5.41,0,0,0,510.985,277.368Zm12.289,7.1,4.742-2.738c1.348-.777,1.341-2.042-.015-2.825l-4.773-2.755a5.406,5.406,0,0,0-4.893-.009l-4.742,2.738c-1.348.777-1.341,2.042.015,2.824l4.773,2.755A5.406,5.406,0,0,0,523.274,284.464Zm12.289,7.1,4.742-2.738c1.346-.777,1.341-2.042-.015-2.825l-4.773-2.755a5.405,5.405,0,0,0-4.893-.009l-4.742,2.738c-1.348.777-1.341,2.042.015,2.825l4.773,2.755A5.405,5.405,0,0,0,535.564,291.559Zm12.29,7.1,4.742-2.738c1.347-.778,1.341-2.042-.015-2.825l-4.773-2.757a5.406,5.406,0,0,0-4.893-.007l-4.744,2.737c-1.346.778-1.339,2.043.017,2.826l4.771,2.755A5.409,5.409,0,0,0,547.853,298.654Zm12.288,7.1,4.744-2.738c1.346-.778,1.339-2.043-.017-2.826L560.1,297.43a5.41,5.41,0,0,0-4.893-.009l-4.742,2.738c-1.346.778-1.34,2.043.015,2.826l4.773,2.755A5.406,5.406,0,0,0,560.141,305.75Zm2.624,4.331,4.772,2.755a5.411,5.411,0,0,0,4.893.009l4.742-2.738c1.348-.778,1.341-2.043-.015-2.826l-4.773-2.755a5.41,5.41,0,0,0-4.893-.009l-4.742,2.738C561.4,308.033,561.409,309.3,562.765,310.081Zm34.045,8.546-12.135-7.006a5.41,5.41,0,0,0-4.893-.009l-4.742,2.738c-1.348.778-1.34,2.043.015,2.826l12.135,7.006a5.41,5.41,0,0,0,4.893.009l4.742-2.738C598.173,320.675,598.166,319.41,596.81,318.627ZM417.9,239.9l21.862,12.622a6.111,6.111,0,0,0,5.528.011l4.111-2.373c1.522-.88,1.514-2.308-.017-3.192l-21.863-12.622a6.112,6.112,0,0,0-5.528-.011l-4.111,2.373C416.363,237.588,416.372,239.016,417.9,239.9Zm30.015,17.329,4.136,2.388a6.112,6.112,0,0,0,5.528.011l4.111-2.373c1.522-.88,1.514-2.308-.018-3.192l-4.136-2.388a6.108,6.108,0,0,0-5.527-.011l-4.111,2.373C446.379,254.917,446.387,256.346,447.918,257.23Zm12.289,7.1,4.136,2.388a6.111,6.111,0,0,0,5.528.011l4.111-2.373c1.52-.88,1.513-2.308-.018-3.192l-4.136-2.388a6.1,6.1,0,0,0-5.528-.011l-4.109,2.373C458.669,262.011,458.676,263.441,460.207,264.325Zm12.289,7.1,4.136,2.388a6.112,6.112,0,0,0,5.528.011l4.109-2.374c1.522-.878,1.514-2.308-.017-3.19l-4.136-2.389a6.107,6.107,0,0,0-5.528-.009l-4.111,2.373C470.957,269.107,470.966,270.536,472.5,271.42Zm12.29,7.1,4.136,2.388a6.108,6.108,0,0,0,5.527.011l4.111-2.374c1.522-.878,1.514-2.308-.017-3.192l-4.136-2.388a6.107,6.107,0,0,0-5.528-.009l-4.111,2.373C483.246,276.2,483.254,277.631,484.786,278.516Zm12.288,7.1L501.21,288a6.107,6.107,0,0,0,5.528.009l4.111-2.373c1.522-.878,1.514-2.308-.018-3.192l-4.135-2.388a6.107,6.107,0,0,0-5.528-.009l-4.111,2.373C495.536,283.3,495.543,284.727,497.074,285.611Zm12.289,7.1,4.136,2.388a6.107,6.107,0,0,0,5.528.009l4.111-2.373c1.522-.878,1.513-2.308-.018-3.192l-4.136-2.388a6.108,6.108,0,0,0-5.527-.011l-4.111,2.374C507.825,290.392,507.833,291.822,509.363,292.706Zm12.289,7.1,4.136,2.388a6.107,6.107,0,0,0,5.528.009l4.109-2.373c1.522-.878,1.514-2.308-.017-3.192l-4.136-2.388a6.111,6.111,0,0,0-5.528-.011l-4.111,2.374C520.114,297.488,520.122,298.916,521.653,299.8Zm12.29,7.094,4.136,2.389a6.113,6.113,0,0,0,5.527.009l4.111-2.373c1.522-.88,1.514-2.308-.017-3.192l-4.136-2.388a6.111,6.111,0,0,0-5.528-.011l-4.111,2.373C532.4,304.583,532.41,306.011,533.942,306.9Zm12.288,7.1,4.136,2.388a6.112,6.112,0,0,0,5.528.011l4.111-2.373c1.522-.88,1.514-2.308-.017-3.192l-4.136-2.388a6.112,6.112,0,0,0-5.528-.011l-4.111,2.373C544.692,311.678,544.7,313.106,546.23,313.991Zm12.289,7.1,4.136,2.388a6.111,6.111,0,0,0,5.528.011l4.11-2.373c1.522-.88,1.514-2.308-.018-3.192l-4.136-2.388a6.108,6.108,0,0,0-5.527-.011l-4.111,2.373C556.981,318.774,556.989,320.2,558.52,321.086Zm26.32,4.086-4.136-2.388a6.112,6.112,0,0,0-5.528-.011l-4.11,2.373c-1.522.88-1.514,2.308.018,3.192l4.135,2.388a6.112,6.112,0,0,0,5.528.011l4.111-2.373C586.378,327.484,586.371,326.056,584.84,325.172ZM425.731,246.454l-9.59-5.537a6.111,6.111,0,0,0-5.528-.011l-4.109,2.374c-1.522.878-1.514,2.308.017,3.192l9.59,5.537a6.111,6.111,0,0,0,5.528.009l4.111-2.373C427.271,248.768,427.262,247.339,425.731,246.454Zm12.289,7.1-4.136-2.388a6.112,6.112,0,0,0-5.528-.011l-4.111,2.373c-1.52.88-1.513,2.308.018,3.192L428.4,259.1a6.112,6.112,0,0,0,5.528.011l4.109-2.373C439.559,255.862,439.551,254.434,438.02,253.55Zm12.289,7.1-4.136-2.388a6.111,6.111,0,0,0-5.528-.011l-4.111,2.373c-1.522.88-1.514,2.308.018,3.192l4.136,2.388a6.108,6.108,0,0,0,5.527.011l4.111-2.373C451.848,262.957,451.841,261.529,450.31,260.645Zm86.023,49.666-77.87-44.958a6.107,6.107,0,0,0-5.528-.011l-4.111,2.373c-1.522.88-1.514,2.308.017,3.192l77.872,44.958a6.107,6.107,0,0,0,5.528.011l4.111-2.373C537.873,312.623,537.866,311.195,536.333,310.311Zm12.289,7.1-4.136-2.388a6.112,6.112,0,0,0-5.528-.011l-4.109,2.373c-1.522.88-1.514,2.308.017,3.192L539,322.96a6.111,6.111,0,0,0,5.528.011l4.111-2.373C550.161,319.718,550.154,318.29,548.623,317.406Zm12.289,7.1-4.136-2.388a6.111,6.111,0,0,0-5.528-.011l-4.111,2.373c-1.522.88-1.514,2.308.018,3.192l4.136,2.388a6.108,6.108,0,0,0,5.527.011l4.111-2.373C562.451,326.813,562.443,325.385,560.912,324.5Zm12.545,7.242-4.136-2.388a6.107,6.107,0,0,0-5.528-.009l-4.111,2.373c-1.522.878-1.514,2.308.018,3.192l4.136,2.388a6.108,6.108,0,0,0,5.527.011l4.111-2.374C575,334.057,574.988,332.627,573.457,331.743Z" transform="translate(-346.023 -41.678)" fill="#00223d"/>
        <path id="Trazado_132124" data-name="Trazado 132124" d="M468.06,209.739a5.257,5.257,0,0,0-4.757-.009Zm13,12.982,4.909,2.835a5.257,5.257,0,0,0,4.757.008c1.31-.756,1.3-1.986-.015-2.746l-4.909-2.835a5.257,5.257,0,0,0-4.757-.008C479.736,220.73,479.743,221.96,481.061,222.721Zm12.289,7.1,4.909,2.834a5.257,5.257,0,0,0,4.757.009c1.309-.756,1.3-1.986-.015-2.746l-4.908-2.835a5.262,5.262,0,0,0-4.757-.009C492.025,227.826,492.031,229.056,493.35,229.816Zm12.288,7.1,4.91,2.834a5.257,5.257,0,0,0,4.757.009c1.309-.756,1.3-1.986-.015-2.747l-4.909-2.834a5.265,5.265,0,0,0-4.759-.009C504.314,234.921,504.32,236.151,505.638,236.911Zm12.289,7.1,4.909,2.834a5.257,5.257,0,0,0,4.757.009c1.31-.756,1.3-1.986-.014-2.747l-4.91-2.834a5.262,5.262,0,0,0-4.757-.009C516.6,242.016,516.61,243.245,517.928,244.007Zm12.289,7.1,4.909,2.834a5.257,5.257,0,0,0,4.757.009c1.31-.757,1.3-1.986-.015-2.747l-4.909-2.834a5.257,5.257,0,0,0-4.757-.009C528.892,249.11,528.9,250.34,530.217,251.1Zm12.29,7.1,4.909,2.834a5.262,5.262,0,0,0,4.757.009c1.31-.757,1.3-1.986-.015-2.747l-4.909-2.834a5.257,5.257,0,0,0-4.757-.009C541.181,256.205,541.189,257.435,542.507,258.2Zm12.288,7.1,4.91,2.834a5.256,5.256,0,0,0,4.757.008c1.309-.756,1.3-1.986-.015-2.746l-4.909-2.834a5.257,5.257,0,0,0-4.757-.009C553.471,263.3,553.477,264.531,554.794,265.292Zm12.289,7.094,4.909,2.835a5.26,5.26,0,0,0,4.759.008c1.309-.756,1.3-1.986-.015-2.746l-4.91-2.834a5.256,5.256,0,0,0-4.757-.009C565.76,270.4,565.766,271.626,567.084,272.386Zm12.289,7.1,4.909,2.835a5.257,5.257,0,0,0,4.757.008c1.31-.756,1.3-1.986-.015-2.746l-4.908-2.835a5.257,5.257,0,0,0-4.757-.008C578.05,277.491,578.056,278.721,579.373,279.482Zm12.29,7.1,4.909,2.834a5.252,5.252,0,0,0,4.757.009c1.31-.756,1.3-1.986-.015-2.746l-4.909-2.835a5.257,5.257,0,0,0-4.757-.008C590.338,284.587,590.345,285.817,591.663,286.577Zm12.289,7.1,4.909,2.834a5.257,5.257,0,0,0,4.757.009c1.31-.756,1.3-1.986-.015-2.747l-4.909-2.834a5.261,5.261,0,0,0-4.757-.009C602.627,291.682,602.635,292.912,603.952,293.672Zm12.545,7.243,4.909,2.834a5.262,5.262,0,0,0,4.757.009c1.309-.757,1.3-1.986-.015-2.747l-4.908-2.834a5.257,5.257,0,0,0-4.757-.009C615.172,298.924,615.178,300.154,616.5,300.916ZM452.264,219.239l4.25,2.453a5.982,5.982,0,0,0,5.415.011l4.224-2.438c1.49-.861,1.483-2.261-.018-3.127l-4.25-2.454a5.982,5.982,0,0,0-5.415-.009l-4.222,2.438C450.757,216.973,450.765,218.373,452.264,219.239Zm21.954,9.559,4.222-2.439c1.492-.86,1.484-2.259-.017-3.125l-4.25-2.454a5.982,5.982,0,0,0-5.415-.009l-4.222,2.438c-1.492.861-1.484,2.261.017,3.127l4.25,2.453A5.987,5.987,0,0,0,474.218,228.8Zm2.625,4.632,4.25,2.453a5.987,5.987,0,0,0,5.415.011l4.222-2.439c1.49-.86,1.483-2.259-.017-3.125l-4.25-2.454a5.982,5.982,0,0,0-5.415-.009l-4.224,2.438C475.335,231.164,475.342,232.563,476.843,233.429Zm12.288,7.1,4.251,2.453a5.983,5.983,0,0,0,5.413.011l4.224-2.439c1.49-.86,1.482-2.259-.017-3.125l-4.25-2.454a5.982,5.982,0,0,0-5.415-.009l-4.224,2.438C487.624,238.258,487.632,239.659,489.131,240.525Zm26.16,3.994-4.25-2.454a5.979,5.979,0,0,0-5.413-.009l-4.224,2.438c-1.49.86-1.483,2.261.017,3.127l4.25,2.453a5.987,5.987,0,0,0,5.415.011l4.224-2.439C516.8,246.784,516.791,245.385,515.291,244.519Zm12.289,7.094-4.25-2.453a5.987,5.987,0,0,0-5.415-.011l-4.222,2.439c-1.492.86-1.482,2.259.017,3.125l4.249,2.454a5.982,5.982,0,0,0,5.415.009l4.224-2.438C529.088,253.88,529.081,252.479,527.58,251.613Zm12.29,7.1-4.25-2.453a5.987,5.987,0,0,0-5.415-.011l-4.222,2.439c-1.492.86-1.484,2.259.017,3.125l4.25,2.454a5.982,5.982,0,0,0,5.415.009l4.222-2.438C541.378,260.975,541.37,259.574,539.87,258.708Zm12.289,7.1-4.25-2.453a5.987,5.987,0,0,0-5.415-.011l-4.224,2.439c-1.49.86-1.482,2.259.018,3.125l4.25,2.454a5.982,5.982,0,0,0,5.415.009l4.222-2.438C553.666,268.069,553.658,266.669,552.159,265.8Zm12.289,7.1-4.25-2.453a5.982,5.982,0,0,0-5.415-.011l-4.224,2.439c-1.49.86-1.482,2.259.017,3.125l4.25,2.454a5.982,5.982,0,0,0,5.415.009l4.224-2.438C565.955,275.164,565.948,273.764,564.448,272.9Zm12.288,7.1-4.25-2.454a5.987,5.987,0,0,0-5.415-.009l-4.222,2.438c-1.49.861-1.483,2.261.017,3.127l4.25,2.454a5.991,5.991,0,0,0,5.415.009l4.224-2.438C578.245,282.259,578.237,280.86,576.736,279.994Zm-1.581,10.2,4.25,2.453a5.986,5.986,0,0,0,5.415.011l4.222-2.439c1.492-.86,1.484-2.259-.017-3.125l-4.25-2.454a5.982,5.982,0,0,0-5.415-.009l-4.222,2.438C573.647,287.925,573.655,289.324,575.156,290.19Zm26.16,3.994-4.25-2.454a5.982,5.982,0,0,0-5.415-.009l-4.224,2.438c-1.49.861-1.482,2.261.018,3.127l4.25,2.453a5.986,5.986,0,0,0,5.415.011l4.222-2.439C602.822,296.45,602.814,295.05,601.315,294.184Zm18,10.391-9.7-5.6a5.987,5.987,0,0,0-5.415-.011l-4.224,2.439c-1.49.86-1.483,2.259.018,3.125l9.7,5.6a5.987,5.987,0,0,0,5.415.009l4.222-2.438C620.822,306.841,620.815,305.442,619.314,304.576ZM440.881,225.811l9.7,5.6a5.982,5.982,0,0,0,5.415.009l4.224-2.438c1.49-.861,1.483-2.261-.017-3.127l-9.705-5.6a5.979,5.979,0,0,0-5.413-.009l-4.224,2.438C439.375,223.544,439.382,224.944,440.881,225.811Zm17.744,10.243,4.25,2.454a5.982,5.982,0,0,0,5.415.009l4.224-2.438c1.49-.861,1.482-2.261-.018-3.127l-4.25-2.453a5.987,5.987,0,0,0-5.415-.011l-4.222,2.439C457.118,233.789,457.126,235.188,458.625,236.054Zm16.539,9.548a5.982,5.982,0,0,0,5.415.011l4.222-2.438c1.492-.861,1.484-2.261-.017-3.127l-4.25-2.453a5.977,5.977,0,0,0-5.415-.011l-4.222,2.438c-1.492.861-1.484,2.261.017,3.127Zm12.289,7.1a5.987,5.987,0,0,0,5.415.011l4.222-2.439c1.49-.86,1.482-2.259-.017-3.125l-4.25-2.454a5.982,5.982,0,0,0-5.415-.009l-4.224,2.438c-1.49.861-1.482,2.261.018,3.127Zm12.246-.922-4.224,2.438c-1.49.861-1.483,2.261.017,3.127l4.251,2.453a5.983,5.983,0,0,0,5.413.011l4.224-2.439c1.49-.86,1.482-2.259-.017-3.125l-4.25-2.454A5.982,5.982,0,0,0,499.7,251.776Zm12.548,6.944-4.742,2.738c-1.346.778-1.34,2.043.015,2.826l4.772,2.755a5.41,5.41,0,0,0,4.893.009l4.744-2.738c1.347-.778,1.339-2.043-.017-2.826l-4.771-2.755A5.413,5.413,0,0,0,512.247,258.72Zm12.289,7.1-4.742,2.738c-1.346.778-1.34,2.043.015,2.826l4.772,2.755a5.411,5.411,0,0,0,4.893.009l4.742-2.738c1.348-.778,1.341-2.043-.015-2.826l-4.773-2.755A5.41,5.41,0,0,0,524.536,265.815Zm12.289,7.1-4.742,2.738c-1.348.778-1.34,2.043.015,2.826l4.773,2.755a5.41,5.41,0,0,0,4.893.009l4.742-2.738c1.348-.778,1.34-2.043-.015-2.826l-4.772-2.755A5.411,5.411,0,0,0,536.826,272.911Zm12.289,7.1-4.742,2.738c-1.348.778-1.341,2.043.015,2.825l4.773,2.757a5.41,5.41,0,0,0,4.893.009L558.8,285.6c1.346-.778,1.34-2.043-.015-2.826l-4.772-2.755A5.406,5.406,0,0,0,549.115,280.006Zm12.29,7.1-4.744,2.738c-1.346.778-1.34,2.042.015,2.824l4.773,2.757a5.414,5.414,0,0,0,4.895.008l4.742-2.737c1.346-.778,1.341-2.043-.015-2.826L566.3,287.11A5.406,5.406,0,0,0,561.4,287.1Zm17.227,15.422,4.744-2.738c1.347-.777,1.339-2.042-.017-2.824l-4.773-2.755a5.405,5.405,0,0,0-4.893-.009l-4.742,2.738c-1.347.777-1.341,2.042.015,2.824l4.773,2.755A5.406,5.406,0,0,0,578.631,302.524Zm12.29,7.1,4.742-2.738c1.348-.777,1.34-2.042-.015-2.825l-4.772-2.755a5.406,5.406,0,0,0-4.894-.009l-4.742,2.738c-1.347.777-1.34,2.042.015,2.825l4.773,2.755A5.406,5.406,0,0,0,590.921,309.619Zm17.272,1.679-4.773-2.755a5.41,5.41,0,0,0-4.893-.009l-4.742,2.738c-1.348.778-1.34,2.043.015,2.826l4.772,2.755a5.41,5.41,0,0,0,4.893.009l4.742-2.738C609.556,313.346,609.548,312.081,608.193,311.3ZM429.237,232.231l15.409,8.9a5.406,5.406,0,0,0,4.893.008l4.744-2.737c1.347-.778,1.339-2.043-.017-2.826l-15.407-8.9a5.406,5.406,0,0,0-4.893-.009l-4.744,2.738C427.875,230.183,427.882,231.448,429.237,232.231Zm22.926,13.236,4.772,2.757a5.411,5.411,0,0,0,4.893.008l4.742-2.738c1.348-.777,1.34-2.042-.015-2.825l-4.773-2.755a5.406,5.406,0,0,0-4.893-.009l-4.742,2.738C450.8,243.419,450.807,244.684,452.163,245.466Zm12.289,7.1,4.773,2.755a5.406,5.406,0,0,0,4.893.009l4.742-2.738c1.346-.777,1.34-2.042-.015-2.824l-4.773-2.755a5.406,5.406,0,0,0-4.893-.009l-4.742,2.738C463.089,250.514,463.1,251.779,464.452,252.562Zm12.289,7.1,4.773,2.755a5.406,5.406,0,0,0,4.893.009l4.742-2.738c1.347-.777,1.341-2.042-.015-2.824l-4.772-2.757a5.41,5.41,0,0,0-4.893-.008l-4.744,2.738C475.379,257.609,475.386,258.874,476.742,259.657Zm21.954,9.859,4.744-2.738c1.347-.778,1.341-2.043-.015-2.824l-4.773-2.757a5.413,5.413,0,0,0-4.895-.008l-4.742,2.737c-1.347.778-1.341,2.043.015,2.826l4.773,2.755A5.406,5.406,0,0,0,498.7,269.516Zm12.289,7.1,4.742-2.738c1.348-.778,1.341-2.043-.015-2.825l-4.773-2.756a5.41,5.41,0,0,0-4.893-.009l-4.742,2.738c-1.347.778-1.34,2.043.015,2.826l4.773,2.755A5.406,5.406,0,0,0,510.985,276.612Zm12.289,7.1,4.742-2.738c1.348-.778,1.341-2.043-.015-2.826l-4.773-2.755a5.41,5.41,0,0,0-4.893-.009l-4.742,2.738c-1.348.778-1.341,2.043.015,2.826l4.773,2.755A5.41,5.41,0,0,0,523.274,283.707Zm12.289,7.1,4.742-2.738c1.346-.778,1.341-2.043-.015-2.826l-4.773-2.755a5.41,5.41,0,0,0-4.893-.009l-4.742,2.738c-1.348.778-1.341,2.043.015,2.826l4.773,2.755A5.41,5.41,0,0,0,535.564,290.8Zm12.29,7.1,4.742-2.738c1.347-.778,1.341-2.043-.015-2.826l-4.773-2.755a5.406,5.406,0,0,0-4.893-.009l-4.744,2.738c-1.346.778-1.339,2.043.017,2.825l4.771,2.757A5.414,5.414,0,0,0,547.853,297.9Zm12.288,7.1,4.744-2.738c1.346-.778,1.339-2.043-.017-2.826l-4.772-2.755a5.406,5.406,0,0,0-4.893-.009L550.46,299.4c-1.346.777-1.34,2.043.015,2.825l4.773,2.757A5.416,5.416,0,0,0,560.141,304.993Zm2.624,4.33,4.772,2.757a5.41,5.41,0,0,0,4.893.008l4.742-2.737c1.348-.778,1.341-2.043-.015-2.826l-4.773-2.755a5.405,5.405,0,0,0-4.893-.009L562.75,306.5C561.4,307.275,561.409,308.54,562.765,309.323Zm34.045,8.548-12.135-7.006a5.406,5.406,0,0,0-4.893-.009l-4.742,2.738c-1.348.777-1.34,2.042.015,2.825l12.135,7.006a5.406,5.406,0,0,0,4.893.009l4.742-2.738C598.173,319.918,598.166,318.653,596.81,317.87ZM417.9,239.143l21.862,12.622a6.111,6.111,0,0,0,5.528.011L449.4,249.4c1.522-.878,1.514-2.306-.017-3.19l-21.863-12.623a6.107,6.107,0,0,0-5.528-.009l-4.111,2.373C416.363,236.83,416.372,238.259,417.9,239.143Zm30.015,17.329,4.136,2.388a6.111,6.111,0,0,0,5.528.011l4.111-2.374c1.522-.878,1.514-2.308-.018-3.192l-4.136-2.388a6.1,6.1,0,0,0-5.527-.009l-4.111,2.373C446.379,254.159,446.387,255.589,447.918,256.473Zm12.289,7.1,4.136,2.388a6.107,6.107,0,0,0,5.528.009l4.111-2.373c1.52-.878,1.513-2.308-.018-3.192l-4.136-2.388A6.111,6.111,0,0,0,464.3,258l-4.109,2.374C458.669,261.254,458.676,262.684,460.207,263.568Zm12.289,7.1,4.136,2.388a6.107,6.107,0,0,0,5.528.009l4.109-2.373c1.522-.878,1.514-2.308-.017-3.192l-4.136-2.388a6.112,6.112,0,0,0-5.528-.011l-4.111,2.374C470.957,268.35,470.966,269.778,472.5,270.663Zm12.29,7.094,4.136,2.388a6.1,6.1,0,0,0,5.527.011l4.111-2.373c1.522-.88,1.514-2.308-.017-3.192l-4.136-2.388a6.111,6.111,0,0,0-5.528-.011l-4.111,2.374C483.246,275.445,483.254,276.873,484.786,277.757Zm12.288,7.1,4.136,2.388a6.112,6.112,0,0,0,5.528.011l4.111-2.373c1.522-.88,1.514-2.308-.018-3.192L506.7,279.3a6.111,6.111,0,0,0-5.528-.011l-4.111,2.373C495.536,282.54,495.543,283.968,497.074,284.852Zm12.289,7.1,4.136,2.388a6.111,6.111,0,0,0,5.528.011l4.111-2.373c1.522-.88,1.513-2.308-.018-3.192l-4.136-2.388a6.108,6.108,0,0,0-5.527-.011l-4.111,2.373C507.825,289.636,507.833,291.064,509.363,291.948Zm12.289,7.1,4.136,2.388a6.112,6.112,0,0,0,5.528.011l4.109-2.373c1.522-.88,1.514-2.308-.017-3.192l-4.136-2.389a6.116,6.116,0,0,0-5.528-.009l-4.111,2.373C520.114,296.731,520.122,298.159,521.653,299.043Zm12.29,7.1,4.136,2.388a6.108,6.108,0,0,0,5.527.011l4.111-2.374c1.522-.878,1.514-2.306-.017-3.19l-4.136-2.389a6.107,6.107,0,0,0-5.528-.009l-4.111,2.373C532.4,303.825,532.41,305.254,533.942,306.138Zm12.288,7.1,4.136,2.388a6.111,6.111,0,0,0,5.528.011l4.111-2.374c1.522-.878,1.514-2.308-.017-3.19l-4.136-2.389a6.107,6.107,0,0,0-5.528-.009l-4.111,2.373C544.692,310.92,544.7,312.35,546.23,313.234Zm12.289,7.1,4.136,2.388a6.107,6.107,0,0,0,5.528.009l4.11-2.373c1.522-.878,1.514-2.308-.018-3.192l-4.136-2.388a6.1,6.1,0,0,0-5.527-.009l-4.111,2.373C556.981,318.015,556.989,319.445,558.52,320.329Zm26.32,4.085-4.136-2.388a6.107,6.107,0,0,0-5.528-.009l-4.11,2.373c-1.522.878-1.514,2.308.018,3.192l4.135,2.388a6.112,6.112,0,0,0,5.528.011l4.111-2.374C586.378,326.728,586.371,325.3,584.84,324.414ZM425.731,245.7l-9.59-5.537a6.111,6.111,0,0,0-5.528-.011l-4.109,2.373c-1.522.88-1.514,2.308.017,3.192l9.59,5.537a6.111,6.111,0,0,0,5.528.011l4.111-2.374C427.271,248.01,427.262,246.582,425.731,245.7Zm12.289,7.094-4.136-2.388a6.107,6.107,0,0,0-5.528-.009l-4.111,2.373c-1.52.878-1.513,2.308.018,3.192l4.136,2.388a6.111,6.111,0,0,0,5.528.011l4.109-2.374C439.559,255.105,439.551,253.677,438.02,252.791Zm12.289,7.1-4.136-2.388a6.107,6.107,0,0,0-5.528-.009l-4.111,2.373c-1.522.878-1.514,2.308.018,3.192l4.136,2.388a6.1,6.1,0,0,0,5.527.009l4.111-2.373C451.848,262.2,451.841,260.771,450.31,259.887Zm86.023,49.667-77.87-44.96a6.111,6.111,0,0,0-5.528-.011l-4.111,2.374c-1.522.878-1.514,2.308.017,3.192l77.872,44.958a6.112,6.112,0,0,0,5.528.011l4.111-2.374C537.873,311.866,537.866,310.438,536.333,309.554Zm12.289,7.1-4.136-2.389a6.107,6.107,0,0,0-5.528-.009l-4.109,2.373c-1.522.878-1.514,2.308.017,3.192L539,322.2a6.111,6.111,0,0,0,5.528.011l4.111-2.374C550.161,318.961,550.154,317.532,548.623,316.649Zm12.289,7.094-4.136-2.388a6.107,6.107,0,0,0-5.528-.009l-4.111,2.373c-1.522.878-1.514,2.308.018,3.192l4.136,2.388a6.108,6.108,0,0,0,5.527.011l4.111-2.374C562.451,326.057,562.443,324.627,560.912,323.743Zm12.545,7.243-4.136-2.388a6.111,6.111,0,0,0-5.528-.011l-4.111,2.373c-1.522.88-1.514,2.308.018,3.192l4.136,2.388a6.108,6.108,0,0,0,5.527.011l4.111-2.373C575,333.3,574.988,331.87,573.457,330.986Z" transform="translate(-346.023 -42.065)" fill="#dee4f0"/>
        <g id="Grupo_61899" data-name="Grupo 61899" transform="translate(120.37)">
          <path id="Trazado_132125" data-name="Trazado 132125" d="M619.955,353.286,457.161,259.241c-6.3-3.638-11.413-13.4-11.413-21.8V109.728c0-8.4,5.11-12.265,11.413-8.626l162.794,94.045c6.3,3.638,11.411,13.4,11.411,21.8V344.66C631.367,353.062,626.257,356.925,619.955,353.286Z" transform="translate(-445.748 -98.013)" fill="url(#linear-gradient)"/>
          <path id="Trazado_132126" data-name="Trazado 132126" d="M619.256,344.235,458.2,251.2c-5.072-3.223-8.209-9.664-8.209-16.255V106.62a2.024,2.024,0,0,1,3.047-1.742c.157.092.281.165.358.209L614.58,198.208c6.037,3.48,8.209,9.664,8.209,16.255v128.03a2.184,2.184,0,0,1-3.266,1.9Z" transform="translate(-443.58 -95.525)" fill="#21587b"/>
          <path id="Trazado_132127" data-name="Trazado 132127" d="M614.58,198.206l-161.187-93.12-.358-.209a2.024,2.024,0,0,0-3.047,1.742V234.949c0,6.59,3.137,13.031,8.209,16.255l161.058,93.031.268.153a2.184,2.184,0,0,0,3.266-1.9V214.463C622.789,207.872,620.618,201.688,614.58,198.206Zm6.927,144.286a.908.908,0,0,1-.907.9.874.874,0,0,1-.443-.122L458.84,250.1c-4.581-2.912-7.568-8.868-7.568-15.146V106.62a.744.744,0,0,1,.745-.741.733.733,0,0,1,.372.1l161.549,93.333c6.257,3.606,7.57,10.227,7.57,15.146Z" transform="translate(-443.58 -95.525)" fill="#022652"/>
          <path id="Trazado_132128" data-name="Trazado 132128" d="M621.73,194.009,458.936,99.965c-2.494-1.44-4.8-1.706-6.678-.981-.239.092-3.42,1.783-3.645,1.907l-.011.006c1.945-.943,4.411-.768,7.1.786L618.5,195.728c6.3,3.638,11.411,13.4,11.411,21.8V345.241c0,5.244-1.99,8.718-5.019,9.707a1.9,1.9,0,0,0,1-.34c.144-.083,3.6-2.033,3.736-2.128,2.167-1.519,3.517-4.638,3.517-8.957V215.814C633.142,207.41,628.032,197.649,621.73,194.009Z" transform="translate(-444.289 -98.594)" fill="#12263f"/>
          <path id="Trazado_132129" data-name="Trazado 132129" d="M621.73,194.009,458.936,99.965c-2.494-1.44-4.8-1.706-6.678-.981-.239.092-3.42,1.783-3.645,1.907l-.011.006c1.945-.943,4.411-.768,7.1.786L618.5,195.728Z" transform="translate(-444.289 -98.594)" fill="#12263f"/>
          <path id="Trazado_132130" data-name="Trazado 132130" d="M618.782,194.96,455.987,100.917c-2.584-1.493-4.96-1.706-6.873-.88a8.429,8.429,0,0,1,5.5,1.289l162.795,94.045c6.3,3.639,11.411,13.4,11.411,21.806V344.885c0,4.958-1.785,8.316-4.538,9.506,3.521-.558,5.907-4.176,5.907-9.915V216.766C630.193,208.362,625.084,198.6,618.782,194.96Z" transform="translate(-444.027 -98.101)" fill="#fff" style="mix-blend-mode: screen;isolation: isolate"/>
        </g>
      </g>
    </g>
    <path id="Trazado_132131" data-name="Trazado 132131" d="M661.4,193.18,525.31,115.85c-.348,18.115-.033,74.881-.134,93.43-.165,30.033-4.658,53.689-39.33,80.827-11.031,8.635-59.706,35.152-99.2,55.906-16.024,8.421-17.24,11.974-25.344,18.836-7.851,6.651-19.9,12.833-23.418,14.887L473.07,457.907c2.527-1.5,15.678-8.1,24.314-15.41,8.1-6.864,9.32-14.183,25.344-22.6,39.5-20.755,107.166-62.313,119.179-69.522,15.412-9.246,19.354-15.069,19.354-39.383C661.26,292.336,661.043,210.962,661.4,193.18Z" transform="translate(10.096 8.822)" fill="#001a46" opacity="0.1"/>
    <path id="Trazado_132132" data-name="Trazado 132132" d="M660.734,193.542l-136.089-77.33c-.348,8.665-.033,80.524-.134,99.073-.165,30.033-4.658,38.594-39.33,65.733-11.031,8.635-59.706,35.152-99.2,55.906-16.024,8.421-18.609,19.166-26.713,26.028-7.852,6.651-16.559,8.471-20.081,10.523l135.189,78.172c2.527-1.5,12.341-3.733,20.978-11.049,8.1-6.863,10.689-17.607,26.713-26.027,39.5-20.755,88.171-47.272,99.2-55.907,34.672-27.139,39.165-35.7,39.33-65.733C660.7,274.279,660.377,201.872,660.734,193.542Z" transform="translate(10.762 9.007)" fill="#fff"/>
    <g id="Grupo_61902" data-name="Grupo 61902" transform="translate(547.568 152.346)">
      <path id="Trazado_132133" data-name="Trazado 132133" d="M469.951,134.162l3.973,2.294a7.8,7.8,0,0,1,3.017,2.98,8.554,8.554,0,0,1,1.007,4.212v1.942q0,2.392-1.007,3.05t-3.017-.5l-1.275-.736v8.02l-2.7-1.557Zm3.973,11.161q.662.381.993.151t.331-1.245v-2.335a3.43,3.43,0,0,0-.331-1.628,2.545,2.545,0,0,0-.993-1l-1.275-.736v6.051Z" transform="translate(-469.951 -134.162)" fill="#12263f"/>
      <path id="Trazado_132134" data-name="Trazado 132134" d="M476.215,137.779l4,2.308a8.006,8.006,0,0,1,3.041,2.867,7.847,7.847,0,0,1,.957,3.973v1.209q0,3.069-1.767,2.865v.056a4.947,4.947,0,0,1,1.386,2.179,10.011,10.011,0,0,1,.407,3.021v3.462c0,.562.015,1.026.048,1.392a5.506,5.506,0,0,0,.245,1.17l-2.747-1.585a7.182,7.182,0,0,1-.2-1.016c-.032-.3-.048-.816-.048-1.548v-3.6a4.773,4.773,0,0,0-.379-2.105,3.207,3.207,0,0,0-1.313-1.292l-.931-.538v8.443l-2.7-1.557Zm3.678,10.567q.811.469,1.215.224c.27-.163.405-.621.405-1.371v-1.52a3.937,3.937,0,0,0-.331-1.739,2.55,2.55,0,0,0-1.043-1.081l-1.226-.707v5.629Z" transform="translate(-466.749 -132.313)" fill="#12263f"/>
      <path id="Trazado_132135" data-name="Trazado 132135" d="M482.756,141.555l2.7,1.558v19.7l-2.7-1.557Z" transform="translate(-463.404 -130.382)" fill="#12263f"/>
      <path id="Trazado_132136" data-name="Trazado 132136" d="M485.4,143.083l2.723,1.572,1.765,16.3.048.027,1.767-14.263,2.479,1.431-2.6,18.2L488,164.284Z" transform="translate(-462.052 -129.601)" fill="#12263f"/>
      <path id="Trazado_132137" data-name="Trazado 132137" d="M493.943,147.467l3.654,2.111,2.8,21.315-2.7-1.557-.491-4.2v.056l-3.065-1.77L493.649,167l-2.5-1.445Zm2.942,14.872-1.2-10.432-.05-.029-1.177,9.058Z" transform="translate(-459.115 -127.36)" fill="#12263f"/>
      <path id="Trazado_132138" data-name="Trazado 132138" d="M499,169.2a8.494,8.494,0,0,1-1.017-4.16V154.458q0-2.308,1.017-2.986t2.956.44a7.652,7.652,0,0,1,2.956,2.973,8.5,8.5,0,0,1,1.017,4.162v2.082l-2.549-1.472v-2.28a2.769,2.769,0,0,0-1.351-2.608q-1.346-.78-1.348,1.052v11a2.747,2.747,0,0,0,1.348,2.581q1.351.777,1.351-1.023v-3.012l2.549,1.473v2.787q0,2.308-1.017,2.986t-2.956-.44A7.636,7.636,0,0,1,499,169.2Z" transform="translate(-455.622 -125.444)" fill="#12263f"/>
      <path id="Trazado_132139" data-name="Trazado 132139" d="M506.906,166.813l-3.263-13.2,2.871,1.656,1.838,8.3.05.027,1.841-6.17,2.624,1.516-3.261,9.43v8.387l-2.7-1.557Z" transform="translate(-452.726 -124.217)" fill="#12263f"/>
      <path id="Trazado_132140" data-name="Trazado 132140" d="M513.154,159.1l3.973,2.294a7.792,7.792,0,0,1,3.016,2.98,8.562,8.562,0,0,1,1.006,4.212v1.942q0,2.392-1.006,3.05t-3.016-.5l-1.276-.736v8.022l-2.7-1.558Zm3.973,11.161c.441.254.772.305.993.151s.332-.568.332-1.244v-2.336a3.422,3.422,0,0,0-.332-1.626,2.539,2.539,0,0,0-.993-1l-1.276-.734v6.051Z" transform="translate(-447.864 -121.41)" fill="#12263f"/>
      <path id="Trazado_132141" data-name="Trazado 132141" d="M520.344,181.484a8.666,8.666,0,0,1-1.055-4.269V166.858q0-2.364,1.055-3.05t3.041.461a7.92,7.92,0,0,1,3.042,3.051,8.658,8.658,0,0,1,1.055,4.268v10.357q0,2.364-1.055,3.05t-3.042-.461A7.922,7.922,0,0,1,520.344,181.484Zm4.439-.9V169.833a2.914,2.914,0,0,0-1.4-2.75q-1.4-.807-1.4,1.135V178.97a2.914,2.914,0,0,0,1.4,2.749Q524.783,182.526,524.782,180.584Z" transform="translate(-444.727 -119.137)" fill="#12263f"/>
      <path id="Trazado_132142" data-name="Trazado 132142" d="M525.91,166.47l2.7,1.558v16.888l4.439,2.563v2.814l-7.138-4.121Z" transform="translate(-441.342 -117.645)" fill="#12263f"/>
      <path id="Trazado_132143" data-name="Trazado 132143" d="M531.493,169.694l2.7,1.558v19.7l-2.7-1.558Z" transform="translate(-438.488 -115.996)" fill="#12263f"/>
      <path id="Trazado_132144" data-name="Trazado 132144" d="M535.513,190.286a8.5,8.5,0,0,1-1.017-4.162V175.541q0-2.308,1.017-2.986t2.956.44a7.652,7.652,0,0,1,2.956,2.973,8.5,8.5,0,0,1,1.017,4.162v2.082l-2.55-1.472v-2.279a2.767,2.767,0,0,0-1.349-2.608q-1.349-.78-1.35,1.05v11a2.74,2.74,0,0,0,1.35,2.578q1.349.78,1.349-1.022v-3.012l2.55,1.473v2.787q0,2.308-1.017,2.986t-2.956-.44A7.642,7.642,0,0,1,535.513,190.286Z" transform="translate(-436.953 -114.665)" fill="#12263f"/>
      <path id="Trazado_132145" data-name="Trazado 132145" d="M543.423,187.894l-3.263-13.2,2.87,1.656,1.839,8.3.05.029,1.839-6.172,2.625,1.516-3.263,9.43v8.387l-2.7-1.557Z" transform="translate(-434.057 -113.438)" fill="#12263f"/>
    </g>
    <g id="Grupo_61904" data-name="Grupo 61904" transform="translate(381.152 185.179)">
      <path id="Trazado_132146" data-name="Trazado 132146" d="M405.815,265.02q-2.138,1.149-4.2,2.255l95.756,55.445q2.156-1.142,4.272-2.268Z" transform="translate(-338.474 -100.095)" fill="#dee4f0"/>
      <path id="Trazado_132147" data-name="Trazado 132147" d="M411.691,261.847q-2.113,1.145-4.189,2.265l95.848,55.446,4.26-2.279Z" transform="translate(-335.462 -101.717)" fill="#dee4f0"/>
      <path id="Trazado_132148" data-name="Trazado 132148" d="M423.367,255.453q-2.072,1.145-4.154,2.29l96.05,55.454q2.145-1.165,4.232-2.3Z" transform="translate(-329.475 -104.986)" fill="#dee4f0"/>
      <path id="Trazado_132149" data-name="Trazado 132149" d="M417.543,258.659q-2.092,1.142-4.173,2.276l95.945,55.448q2.149-1.154,4.248-2.288Z" transform="translate(-332.462 -103.347)" fill="#dee4f0"/>
      <path id="Trazado_132150" data-name="Trazado 132150" d="M429.155,252.226q-2.045,1.147-4.129,2.308l96.162,55.46q2.144-1.174,4.212-2.315Z" transform="translate(-326.503 -106.636)" fill="#dee4f0"/>
      <path id="Trazado_132151" data-name="Trazado 132151" d="M383.865,264.157c-1.481.784-4.754,2.3-6.077,3l74.541,42.871c1.244-.821,4.42-2.4,5.84-3.19Z" transform="translate(-350.654 -100.536)" fill="#37a3a5"/>
      <path id="Trazado_132152" data-name="Trazado 132152" d="M376.056,267.8l-1.886.991c-.8.422-1.551.852-2.27,1.286l115.589,66.649q1.532-1.41,3.308-2.814Z" transform="translate(-353.664 -98.674)" fill="#dee4f0"/>
      <path id="Trazado_132153" data-name="Trazado 132153" d="M424.9,241.642c-1.344.768-4.7,2.549-6.092,3.335L496.7,289.617c1.425-.79,4.825-2.575,6.19-3.338Z" transform="translate(-329.681 -112.047)" fill="#37a3a5"/>
      <path id="Trazado_132154" data-name="Trazado 132154" d="M362.441,279.915c-.824,1.064-1.687,2.123-2.608,3.171l116.277,67.19c.623-.453,1.239-.931,1.844-1.442a18.1,18.1,0,0,0,1.448-1.381Z" transform="translate(-359.833 -92.48)" fill="#dee4f0"/>
      <path id="Trazado_132155" data-name="Trazado 132155" d="M468.821,164l70.465,39.43c0-2,0-5.49-.008-7.416l-70.466-40.124v2.206C468.815,160.082,468.818,162.054,468.821,164Z" transform="translate(-304.118 -155.888)" fill="#37a3a5"/>
      <path id="Trazado_132156" data-name="Trazado 132156" d="M468.827,169.336l114.912,64.69q0-1.415,0-2.841c0-.641,0-1.251,0-1.885L468.822,164.7Q468.824,167.068,468.827,169.336Z" transform="translate(-304.113 -151.383)" fill="#dee4f0"/>
      <path id="Trazado_132157" data-name="Trazado 132157" d="M370.238,271.192a36.342,36.342,0,0,0-3.171,2.844L483.915,341.46c.843-1.032,1.753-2.084,2.732-3.145Z" transform="translate(-356.135 -96.939)" fill="#dee4f0"/>
      <path id="Trazado_132158" data-name="Trazado 132158" d="M365.872,275.36c-.861,1.064-1.681,2.143-2.5,3.236L480.52,346.24c.455-.6.916-1.217,1.395-1.862.351-.47.71-.952,1.075-1.437Z" transform="translate(-358.021 -94.808)" fill="#dee4f0"/>
      <path id="Trazado_132159" data-name="Trazado 132159" d="M464.377,207.429c-.663,1.153-1.389,2.3-2.163,3.44l117.738,66.853a37.867,37.867,0,0,0,2.208-3.489Z" transform="translate(-307.491 -129.538)" fill="#dee4f0"/>
      <path id="Trazado_132160" data-name="Trazado 132160" d="M466.6,202.267c-.472,1.282-1,2.536-1.572,3.775l117.638,66.72a34.473,34.473,0,0,0,1.289-4.011Z" transform="translate(-306.052 -132.177)" fill="#dee4f0"/>
      <path id="Trazado_132161" data-name="Trazado 132161" d="M467.956,194.936c-.28,1.41-.594,5.329-.958,6.665l95.128,53.648c.2-1.425.361-5.451.476-7.018Z" transform="translate(-305.045 -135.925)" fill="#37a3a5"/>
      <path id="Trazado_132162" data-name="Trazado 132162" d="M468.828,171.21c0,1.616,0,3.166,0,4.641l114.92,64.781q0-2.324-.006-4.729Z" transform="translate(-304.11 -148.055)" fill="#dee4f0"/>
      <path id="Trazado_132163" data-name="Trazado 132163" d="M468.831,177.724c0,1.729-.006,3.29-.011,4.64L583.761,247.24q0-2.276,0-4.732Z" transform="translate(-304.114 -144.724)" fill="#dee4f0"/>
      <path id="Trazado_132164" data-name="Trazado 132164" d="M468.834,184.218c-.032,1.572-.085,3.089-.153,4.565l115.145,65.073c0-1.433,0-3.015.006-4.73Z" transform="translate(-304.185 -141.404)" fill="#dee4f0"/>
      <path id="Trazado_132165" data-name="Trazado 132165" d="M444.228,228.431q-1.668,1.333-3.429,2.717l115.754,66.07c1.492-.946,2.773-1.789,3.861-2.537Z" transform="translate(-318.439 -118.801)" fill="#dee4f0"/>
      <path id="Trazado_132166" data-name="Trazado 132166" d="M439.449,232.183c-1.117.772-2.388,1.616-3.781,2.515l115.083,65.748q2.151-1.278,4.043-2.429Z" transform="translate(-321.063 -116.882)" fill="#dee4f0"/>
      <path id="Trazado_132167" data-name="Trazado 132167" d="M434.131,235.658q-1.886,1.163-3.961,2.41L544.94,303.7q2.14-1.229,4.117-2.382Z" transform="translate(-323.873 -115.106)" fill="#dee4f0"/>
      <path id="Trazado_132168" data-name="Trazado 132168" d="M461.318,212.141c-.83,1.053-1.7,2.108-2.631,3.175l117.391,66.729q1.546-1.6,2.85-3.124Z" transform="translate(-309.294 -127.129)" fill="#dee4f0"/>
      <path id="Trazado_132169" data-name="Trazado 132169" d="M454.922,219.535c-1.028.935-3.6,3.521-4.709,4.49l83.111,47.281c1.182-.969,3.813-3.542,4.892-4.454Z" transform="translate(-313.626 -123.349)" fill="#37a3a5"/>
      <path id="Trazado_132170" data-name="Trazado 132170" d="M448.918,224.577q-1.616,1.356-3.344,2.766l116.357,66.347c1.2-.945,2.362-1.865,3.477-2.758Z" transform="translate(-315.998 -120.771)" fill="#dee4f0"/>
      <g id="Grupo_61903" data-name="Grupo 61903" transform="translate(57.837 141.766)">
        <path id="Trazado_132171" data-name="Trazado 132171" d="M427.2,253.311a5.729,5.729,0,0,1-5.182-.009c-1.436-.83-1.443-2.169-.017-2.992a5.729,5.729,0,0,1,5.182.009C428.62,251.149,428.628,252.488,427.2,253.311Z" transform="translate(-386.43 -249.695)" fill="#37a3a5"/>
        <path id="Trazado_132172" data-name="Trazado 132172" d="M421.493,256.457a5.732,5.732,0,0,1-5.184-.009c-1.436-.83-1.442-2.169-.015-2.992a5.729,5.729,0,0,1,5.182.009C422.912,254.293,422.92,255.634,421.493,256.457Z" transform="translate(-389.349 -248.087)" fill="#37a3a5"/>
        <ellipse id="Elipse_4113" data-name="Elipse 4113" cx="2.116" cy="3.665" rx="2.116" ry="3.665" transform="matrix(0.005, -1, 1, 0.005, 17.242, 13.72)" fill="#37a3a5"/>
        <path id="Trazado_132173" data-name="Trazado 132173" d="M410.076,262.75a5.724,5.724,0,0,1-5.182-.011c-1.436-.828-1.443-2.167-.017-2.991a5.724,5.724,0,0,1,5.182.009C411.5,260.585,411.5,261.926,410.076,262.75Z" transform="translate(-395.185 -244.87)" fill="#37a3a5"/>
        <path id="Trazado_132174" data-name="Trazado 132174" d="M404.368,265.9a5.727,5.727,0,0,1-5.184-.011c-1.436-.828-1.442-2.169-.015-2.992a5.724,5.724,0,0,1,5.182.01C405.787,263.732,405.795,265.072,404.368,265.9Z" transform="translate(-398.104 -243.262)" fill="#37a3a5"/>
      </g>
    </g>
    <g id="Grupo_61914" data-name="Grupo 61914" transform="translate(425.982 106.782)">
      <g id="Grupo_61905" data-name="Grupo 61905" transform="translate(72.993)">
        <path id="Trazado_132175" data-name="Trazado 132175" d="M437.8,298.969s52.362-1.517,72.008-11.34,29.469-38.537,29.469-52.894,2.267-49.116,2.267-49.116-24.936-7.556-49.871-28.714c-14.541-12.339-41.559-52.894-41.559-52.894V233.224C450.111,260.426,437.8,298.969,437.8,298.969Z" transform="translate(-437.797 -104.012)" opacity="0.1" fill="url(#linear-gradient-3)" style="mix-blend-mode: multiply;isolation: isolate"/>
        <path id="Trazado_132176" data-name="Trazado 132176" d="M437.8,298.129s51.2-1.814,70.426-11.532c19.619-10,29.128-38.265,29.128-52.35s2.225-49.4,2.225-49.4-24.463-6.547-48.927-27.3c-14.266-12.105-40.77-51.89-40.77-51.89V233.63C449.878,260.316,437.8,298.129,437.8,298.129Z" transform="translate(-437.797 -103.172)" opacity="0.143" fill="url(#linear-gradient-4)" style="mix-blend-mode: multiply;isolation: isolate"/>
        <path id="Trazado_132177" data-name="Trazado 132177" d="M437.8,297.289s50.071-2.049,68.842-11.724c19.627-10.115,28.788-37.993,28.788-51.806s2.181-49.681,2.181-49.681-23.99-5.539-47.981-25.894c-13.99-11.871-39.983-50.888-39.983-50.888V234.038C449.644,260.208,437.8,297.289,437.8,297.289Z" transform="translate(-437.797 -102.333)" opacity="0.186" fill="url(#linear-gradient-5)" style="mix-blend-mode: multiply;isolation: isolate"/>
        <path id="Trazado_132178" data-name="Trazado 132178" d="M437.8,296.449s48.922-2.321,67.258-11.916c19.616-10.264,28.448-37.722,28.448-51.262s2.137-49.963,2.137-49.963-23.517-4.529-47.033-24.484c-13.716-11.637-39.2-49.885-39.2-49.885v125.5C449.411,260.1,437.8,296.449,437.8,296.449Z" transform="translate(-437.797 -101.493)" opacity="0.229" fill="url(#linear-gradient-6)" style="mix-blend-mode: multiply;isolation: isolate"/>
        <path id="Trazado_132179" data-name="Trazado 132179" d="M437.8,295.609s47.772-2.6,65.676-12.108c19.6-10.417,28.106-37.45,28.106-50.717s2.095-50.246,2.095-50.246-23.045-3.52-46.089-23.072c-13.44-11.4-38.408-48.883-38.408-48.883V234.85C449.177,259.989,437.8,295.609,437.8,295.609Z" transform="translate(-437.797 -100.653)" opacity="0.271" fill="url(#linear-gradient-7)" style="mix-blend-mode: multiply;isolation: isolate"/>
        <path id="Trazado_132180" data-name="Trazado 132180" d="M437.8,294.77s46.622-2.874,64.092-12.3c19.59-10.571,27.766-37.178,27.766-50.173s2.051-50.529,2.051-50.529-22.57-2.51-45.142-21.662c-13.163-11.17-37.619-47.879-37.619-47.879V235.257C448.944,259.881,437.8,294.77,437.8,294.77Z" transform="translate(-437.797 -99.813)" opacity="0.314" fill="url(#linear-gradient-8)" style="mix-blend-mode: multiply;isolation: isolate"/>
        <path id="Trazado_132181" data-name="Trazado 132181" d="M437.8,293.93s45.469-3.154,62.51-12.492c19.577-10.728,27.423-36.906,27.423-49.629S529.74,181,529.74,181s-22.1-1.5-44.2-20.252c-12.888-10.934-36.832-46.876-36.832-46.876V235.663C448.71,259.771,437.8,293.93,437.8,293.93Z" transform="translate(-437.797 -98.973)" opacity="0.357" fill="url(#linear-gradient-9)" style="mix-blend-mode: multiply;isolation: isolate"/>
        <path id="Trazado_132182" data-name="Trazado 132182" d="M437.8,293.09s44.314-3.44,60.926-12.684c19.562-10.887,27.083-36.634,27.083-49.085s1.966-51.094,1.966-51.094-21.626-.493-43.252-18.841c-12.611-10.7-36.043-45.874-36.043-45.874V236.07C448.477,259.662,437.8,293.09,437.8,293.09Z" transform="translate(-437.797 -98.133)" opacity="0.4" fill="url(#linear-gradient-10)" style="mix-blend-mode: multiply;isolation: isolate"/>
        <path id="Trazado_132183" data-name="Trazado 132183" d="M437.8,292.25s43.16-3.727,59.342-12.876c19.546-11.05,26.743-36.362,26.743-48.541s1.924-51.375,1.924-51.375-21.154.515-42.307-17.432c-12.336-10.467-35.256-44.87-35.256-44.87V236.477C448.243,259.552,437.8,292.25,437.8,292.25Z" transform="translate(-437.797 -97.293)" opacity="0.443" fill="url(#linear-gradient-11)" style="mix-blend-mode: multiply;isolation: isolate"/>
        <path id="Trazado_132184" data-name="Trazado 132184" d="M437.8,291.41s42-4.017,57.76-13.068c19.527-11.216,26.4-36.09,26.4-48s1.88-51.657,1.88-51.657-20.68,1.525-41.361-16.022C470.417,152.433,448.01,118.8,448.01,118.8V236.883C448.01,259.444,437.8,291.41,437.8,291.41Z" transform="translate(-437.797 -96.453)" opacity="0.486" fill="url(#linear-gradient-12)" style="mix-blend-mode: multiply;isolation: isolate"/>
        <path id="Trazado_132185" data-name="Trazado 132185" d="M437.8,290.57s40.843-4.312,56.176-13.26c19.509-11.386,26.061-35.818,26.061-47.453s1.836-51.94,1.836-51.94-20.207,2.534-40.415-14.612c-11.785-10-33.68-42.865-33.68-42.865V237.29C447.776,259.334,437.8,290.57,437.8,290.57Z" transform="translate(-437.797 -95.613)" opacity="0.529" fill="url(#linear-gradient-13)" style="mix-blend-mode: multiply;isolation: isolate"/>
        <path id="Trazado_132186" data-name="Trazado 132186" d="M437.8,289.73s39.682-4.608,54.592-13.452c19.488-11.558,25.721-35.548,25.721-46.909s1.794-52.223,1.794-52.223-19.735,3.544-39.471-13.2c-11.508-9.764-32.891-41.862-32.891-41.862V237.7C447.543,259.226,437.8,289.73,437.8,289.73Z" transform="translate(-437.797 -94.773)" opacity="0.571" fill="url(#linear-gradient-14)" style="mix-blend-mode: multiply;isolation: isolate"/>
        <path id="Trazado_132187" data-name="Trazado 132187" d="M437.8,288.89s38.52-4.909,53.01-13.644c19.462-11.735,25.378-35.276,25.378-46.365s1.752-52.505,1.752-52.505-19.262,4.552-38.523-11.791c-11.235-9.531-32.1-40.86-32.1-40.86V238.1C447.309,259.117,437.8,288.89,437.8,288.89Z" transform="translate(-437.797 -93.933)" opacity="0.614" fill="url(#linear-gradient-15)" style="mix-blend-mode: multiply;isolation: isolate"/>
        <path id="Trazado_132188" data-name="Trazado 132188" d="M437.8,288.05s37.357-5.211,51.426-13.836c19.436-11.915,25.038-35,25.038-45.821s1.709-52.788,1.709-52.788-18.789,5.561-37.579-10.381c-10.958-9.3-31.316-39.856-31.316-39.856V238.51C447.076,259.007,437.8,288.05,437.8,288.05Z" transform="translate(-437.797 -93.093)" opacity="0.657" fill="url(#linear-gradient-16)" style="mix-blend-mode: multiply;isolation: isolate"/>
        <path id="Trazado_132189" data-name="Trazado 132189" d="M437.8,287.21s36.191-5.516,49.844-14.027c19.407-12.1,24.7-34.731,24.7-45.277S514,174.835,514,174.835s-18.316,6.571-36.633-8.971c-10.681-9.063-30.529-38.853-30.529-38.853v111.9C446.842,258.9,437.8,287.21,437.8,287.21Z" transform="translate(-437.797 -92.253)" opacity="0.7" fill="url(#linear-gradient-17)" style="mix-blend-mode: multiply;isolation: isolate"/>
        <path id="Trazado_132190" data-name="Trazado 132190" d="M437.8,286.37s35.023-5.824,48.26-14.219c19.376-12.288,24.357-34.459,24.357-44.733s1.621-53.353,1.621-53.353-17.843,7.58-35.687-7.561c-10.406-8.829-29.74-37.849-29.74-37.849V239.324C446.609,258.788,437.8,286.37,437.8,286.37Z" transform="translate(-437.797 -91.413)" opacity="0.743" fill="url(#linear-gradient-18)" style="mix-blend-mode: multiply;isolation: isolate"/>
        <path id="Trazado_132191" data-name="Trazado 132191" d="M437.8,285.531s33.853-6.136,46.676-14.411c19.341-12.483,24.017-34.187,24.017-44.189s1.579-53.636,1.579-53.636-17.372,8.59-34.742-6.149c-10.13-8.6-28.953-36.849-28.953-36.849V239.729C446.375,258.68,437.8,285.531,437.8,285.531Z" transform="translate(-437.797 -90.574)" opacity="0.786" fill="url(#linear-gradient-19)" style="mix-blend-mode: multiply;isolation: isolate"/>
        <path id="Trazado_132192" data-name="Trazado 132192" d="M437.8,284.691s32.682-6.449,45.094-14.6c19.3-12.681,23.675-33.915,23.675-43.645s1.535-53.917,1.535-53.917-16.9,9.6-33.8-4.741c-9.855-8.362-28.164-35.845-28.164-35.845v108.2C446.142,258.57,437.8,284.691,437.8,284.691Z" transform="translate(-437.797 -89.734)" opacity="0.829" fill="url(#linear-gradient-20)" style="mix-blend-mode: multiply;isolation: isolate"/>
        <path id="Trazado_132193" data-name="Trazado 132193" d="M437.8,283.851s31.509-6.764,43.51-14.8c19.259-12.886,23.335-33.645,23.335-43.1s1.493-54.2,1.493-54.2a28.022,28.022,0,0,1-32.851-3.331c-9.578-8.128-27.375-34.842-27.375-34.842v106.96C445.909,258.462,437.8,283.851,437.8,283.851Z" transform="translate(-437.797 -88.894)" opacity="0.871" fill="url(#linear-gradient-21)" style="mix-blend-mode: multiply;isolation: isolate"/>
        <path id="Trazado_132194" data-name="Trazado 132194" d="M437.8,283.011s30.334-7.083,41.927-14.987a52.906,52.906,0,0,0,22.994-42.557c0-9.185,1.451-54.482,1.451-54.482s-15.953,11.615-31.905-1.921c-9.3-7.893-26.587-33.838-26.587-33.838V240.95C445.675,258.352,437.8,283.011,437.8,283.011Z" transform="translate(-437.797 -88.054)" opacity="0.914" fill="url(#linear-gradient-22)" style="mix-blend-mode: multiply;isolation: isolate"/>
        <path id="Trazado_132195" data-name="Trazado 132195" d="M437.8,282.171s29.155-7.4,40.344-15.179a52.262,52.262,0,0,0,22.652-42.013c0-8.913,1.409-54.765,1.409-54.765s-15.481,12.625-30.961-.509c-9.027-7.661-25.8-32.836-25.8-32.836V241.357C445.442,258.243,437.8,282.171,437.8,282.171Z" transform="translate(-437.797 -87.214)" opacity="0.957" fill="url(#linear-gradient-23)" style="mix-blend-mode: multiply;isolation: isolate"/>
        <path id="Trazado_132196" data-name="Trazado 132196" d="M437.8,281.331s27.976-7.727,38.76-15.371a51.629,51.629,0,0,0,22.312-41.469c0-8.641,1.365-55.047,1.365-55.047s-15.007,13.634-30.015.9c-8.752-7.426-25.011-31.833-25.011-31.833V241.763C445.208,258.135,437.8,281.331,437.8,281.331Z" transform="translate(-437.797 -86.374)" fill="url(#linear-gradient-24)" style="mix-blend-mode: multiply;isolation: isolate"/>
      </g>
      <path id="Trazado_132197" data-name="Trazado 132197" d="M509.877,185.106c-19.085-10.8-37.746-29.218-53.386-52.688l-.212-.121c-15.64,5.409-34.3,2.282-53.388-8.959l-.728-.429,1.029,35.662c3.622,55.28,22.477,79.34,52.823,130.736l.739.426c30.346-16.355,49.2-18.644,52.823-69.743l1.031-34.473Z" transform="translate(-383.022 -94.351)" fill="url(#linear-gradient)"/>
      <path id="Trazado_132198" data-name="Trazado 132198" d="M520.574,179.678c-19.087-10.8-37.746-29.217-53.388-52.687l-.211-.122c-15.638,5.41-34.3,2.282-53.386-8.959l-.73-.429L402.3,125.8l.526.308c19.086,11.241,37.746,14.367,53.386,8.959l.212.121c15.64,23.47,34.3,41.89,53.388,52.688l.728.413-1.031,34.473c-2.364,33.352-11.22,45.907-25.522,55.156,17.869-10.553,33.631-25.871,36.288-63.359l1.031-34.472Z" transform="translate(-382.953 -97.126)" fill="#21587b"/>
      <path id="Trazado_132199" data-name="Trazado 132199" d="M503.066,176.916l-.73-.414c-19.087-10.8-37.746-29.217-53.388-52.687l-.212-.122-10.765,8.2.212.121c15.64,23.47,34.3,41.89,53.388,52.688l.728.413Z" transform="translate(-364.714 -93.95)" fill="#21587b"/>
      <path id="Trazado_132200" data-name="Trazado 132200" d="M482.9,167.113l-1.031,34.473c-2.364,33.352-11.22,45.907-25.522,55.156,17.869-10.553,33.631-25.871,36.288-63.359l1.031-34.472Z" transform="translate(-355.318 -75.945)" fill="#00223d"/>
      <path id="Trazado_132201" data-name="Trazado 132201" d="M448.71,259.528c-23.557-39.075-35.406-58.733-38.263-101.621l-.651-22.513c15.124,6.838,29.625,9.019,42.688,6.418,13.06,17.683,27.561,32.245,42.687,42.873l-.651,21.762c-2.858,39.592-14.707,45.567-38.268,57.444q-1.85.934-3.768,1.906Z" transform="translate(-379.12 -87.968)" fill="#21587b"/>
      <ellipse id="Elipse_4114" data-name="Elipse 4114" cx="32.645" cy="56.544" rx="32.645" ry="56.544" transform="translate(14.903 78.644) rotate(-30.311)" fill="url(#radial-gradient)" style="mix-blend-mode: multiply;isolation: isolate"/>
      <path id="Trazado_132202" data-name="Trazado 132202" d="M458.181,262.188c-1.233.624-2.488,1.256-3.767,1.906q-1.925-3.194-3.774-6.267c-23.557-39.076-35.407-58.735-38.265-101.622l-.576-19.939c-.668-.286-1.334-.568-2-.87l.651,22.513c2.858,42.888,14.706,62.546,38.263,101.621l3.774,6.269q1.92-.975,3.768-1.906c9.613-4.845,17.274-8.711,23.172-14.275C473.811,254.3,466.78,257.853,458.181,262.188Z" transform="translate(-379.12 -87.968)" fill="#12263f"/>
      <path id="Trazado_132203" data-name="Trazado 132203" d="M510.317,184.511c-19.087-10.8-37.748-29.218-53.388-52.688l-.212-.122c-15.64,5.41-34.3,2.282-53.386-8.959l-.7.737c19.052,11.192,37.677,14.3,53.29,8.9l.212.122c15.64,23.47,34.3,41.89,53.386,52.688l.73.413-1.031,34.473c-1.962,27.677-8.4,41.032-18.7,50.062,10.769-9.04,17.482-22.362,19.494-50.742l1.031-34.473Z" transform="translate(-382.78 -94.436)" fill="#fff"/>
      <g id="Grupo_61906" data-name="Grupo 61906" transform="translate(0 53.302)">
        <path id="Trazado_132204" data-name="Trazado 132204" d="M390.253,176.623a.756.756,0,0,1-.756-.756q0-1.557.071-3.056a.755.755,0,1,1,1.508.07q-.066,1.464-.068,2.986A.756.756,0,0,1,390.253,176.623Zm.45-7.538a.667.667,0,0,1-.1-.006.754.754,0,0,1-.656-.842q.193-1.555.467-3.032a.756.756,0,0,1,1.486.277q-.265,1.433-.453,2.941A.755.755,0,0,1,390.7,169.085Zm1.5-7.393a.738.738,0,0,1-.212-.03.755.755,0,0,1-.514-.937c.29-.994.617-1.978.967-2.92a.757.757,0,0,1,1.418.529c-.34.907-.654,1.854-.932,2.814A.76.76,0,0,1,392.2,161.692Zm2.806-7a.756.756,0,0,1-.666-1.111c.487-.913,1.019-1.807,1.582-2.657a.756.756,0,0,1,1.26.836c-.538.81-1.044,1.661-1.508,2.531A.755.755,0,0,1,395.009,154.693Zm4.351-6.145a.746.746,0,0,1-.515-.2.757.757,0,0,1-.036-1.068,26.142,26.142,0,0,1,2.256-2.14.756.756,0,0,1,.972,1.158,24.454,24.454,0,0,0-2.123,2.016A.757.757,0,0,1,399.359,148.549Zm5.909-4.656a.756.756,0,0,1-.372-1.415,25.471,25.471,0,0,1,2.8-1.354.756.756,0,0,1,.573,1.4,23.373,23.373,0,0,0-2.634,1.272A.745.745,0,0,1,405.268,143.893Zm7.041-2.637a.755.755,0,0,1-.156-1.495,28.69,28.69,0,0,1,3.066-.476.782.782,0,0,1,.825.676.752.752,0,0,1-.676.828,27.282,27.282,0,0,0-2.9.45A.792.792,0,0,1,412.309,141.255Z" transform="translate(-389.497 -139.282)" fill="#00223d"/>
      </g>
      <g id="Grupo_61907" data-name="Grupo 61907" transform="translate(8.235 125.74)">
        <path id="Trazado_132205" data-name="Trazado 132205" d="M417.663,222.891a.759.759,0,0,1-.556-.245q-1.025-1.118-2.026-2.267a.756.756,0,1,1,1.138-.994q.991,1.138,2,2.238a.757.757,0,0,1-.047,1.068A.749.749,0,0,1,417.663,222.891Zm-4.918-5.731a.753.753,0,0,1-.589-.283q-.95-1.183-1.874-2.4a.756.756,0,0,1,1.2-.919q.914,1.2,1.85,2.368a.756.756,0,0,1-.588,1.229Zm-4.537-6.04a.757.757,0,0,1-.62-.32q-.87-1.242-1.718-2.509a.756.756,0,0,1,1.257-.84q.834,1.251,1.7,2.48a.756.756,0,0,1-.184,1.052A.746.746,0,0,1,408.209,211.12Zm-4.154-6.311a.757.757,0,0,1-.644-.358q-.8-1.294-1.563-2.608a.756.756,0,0,1,1.307-.76q.753,1.3,1.541,2.575a.755.755,0,0,1-.642,1.152Zm-3.767-6.55a.758.758,0,0,1-.667-.4q-.714-1.342-1.4-2.7a.756.756,0,1,1,1.35-.68q.676,1.34,1.386,2.666a.758.758,0,0,1-.668,1.112Zm-3.36-6.77a.753.753,0,0,1-.686-.44q-.637-1.385-1.235-2.781a.756.756,0,0,1,1.39-.6q.589,1.378,1.217,2.746a.754.754,0,0,1-.686,1.07Z" transform="translate(-394.946 -187.215)" fill="#00223d"/>
      </g>
      <g id="Grupo_61908" data-name="Grupo 61908" transform="translate(12.8 69.52)">
        <path id="Trazado_132206" data-name="Trazado 132206" d="M436.338,243.854c-21.158-12.217-38.371-41.908-38.371-66.188,0-11.875,4.055-20.757,11.42-25.01,7.428-4.289,17.268-3.332,27.706,2.693a61.972,61.972,0,0,1,10.266,7.517l-1.006,1.126a60.47,60.47,0,0,0-10.015-7.334c-9.949-5.744-19.25-6.7-26.194-2.693-6.876,3.972-10.665,12.389-10.665,23.7,0,23.8,16.874,52.9,37.615,64.879Z" transform="translate(-397.967 -150.014)" fill="#37a3a5"/>
      </g>
      <path id="Trazado_132207" data-name="Trazado 132207" d="M426.522,213.746c-.059,1.244-.913,1.786-1.907,1.212a3.906,3.906,0,0,1-1.693-3.29c.06-1.242.913-1.785,1.907-1.21A3.9,3.9,0,0,1,426.522,213.746Z" transform="translate(-372.41 -49.709)" fill="#37a3a5"/>
      <g id="Grupo_61909" data-name="Grupo 61909" transform="translate(57.284 78.388)">
        <path id="Trazado_132208" data-name="Trazado 132208" d="M433.819,162.015l-5.844-1.461a.755.755,0,1,1,.366-1.466l3.068.768-1.094-2.953a.756.756,0,1,1,1.417-.526Z" transform="translate(-427.402 -155.882)" fill="#37a3a5"/>
      </g>
      <g id="Grupo_61913" data-name="Grupo 61913" transform="translate(22.182 79.872)">
        <g id="Grupo_61910" data-name="Grupo 61910" transform="translate(0.281)">
          <path id="Trazado_132209" data-name="Trazado 132209" d="M411.713,181.467c.414-15.143,11.42-21.162,24.923-13.365,6.95,4.012,13.242,10.928,17.772,18.823l4.981-1.253c-5.675-10.293-13.772-19.371-22.753-24.558-16.992-9.809-30.836-2.055-31.043,17.269L409.579,182Z" transform="translate(-403.731 -156.864)" fill="#f5b500"/>
          <path id="Trazado_132210" data-name="Trazado 132210" d="M449.782,219.988c-3.684.337-7.952-.691-12.515-3.326-12.79-7.384-23.35-24.58-24.785-39.652l-6.095-3.072c.011.11-2.037.526-2.027.636,1.764,18.759,16.982,39.882,32.906,49.075,5.782,3.34,9.7,5.094,14.337,4.6.195-.021,1.891-.5,2.082-.53Z" transform="translate(-404.361 -148.135)" fill="#f5b500"/>
          <path id="Trazado_132211" data-name="Trazado 132211" d="M441.007,180.205a47.691,47.691,0,0,1,4.831,19.657c0,9.049-3.687,14.992-9.417,16.937l3.858,7.641c7.094-2.441,11.647-9.837,11.647-21.062,0-7.836-2.22-16.365-5.969-24.417Z" transform="translate(-387.97 -145.567)" fill="#f5b500"/>
        </g>
        <path id="Trazado_132212" data-name="Trazado 132212" d="M439.093,197.646a21.267,21.267,0,0,1-4.378-5.241c-.722-1.212-.7-2.527.006-2.936a5.591,5.591,0,0,0,2.235-2.492c.768.212,1.718-.071,1.718-1.123a4.161,4.161,0,0,0-1.108-2.832c-.187-4.594-1.756-9.314-7.039-12.364-1.847-1.067-3.24-1.4-4.278-1.206-.242.045-2.336.6-2.54.7-1.433.712-.115,2.25-.221,4.741-.635-.141-1.108.479-1.108,1.554a5.077,5.077,0,0,0,1.718,3.107,24.993,24.993,0,0,0,2.234,5.072c.7,1.224.73,2.568.006,2.944a5.765,5.765,0,0,1-4.377.186,3.29,3.29,0,0,0-1.829-.074c-.154.044-2.036.532-2.176.6-.982.488.139,1.2.139,2.871v4.736a3.194,3.194,0,0,0,1.448,2.5l20.3,13.433c.352.2,2.345-.5,2.6-.6a.95.95,0,0,0,.523-.976v-4.736A11.281,11.281,0,0,0,439.093,197.646Z" transform="translate(-397.335 -150.456)" fill="#f5b500"/>
        <g id="Grupo_61911" data-name="Grupo 61911" transform="translate(0.78 0.39)">
          <path id="Trazado_132213" data-name="Trazado 132213" d="M410.81,181.725c.414-15.143,11.421-21.162,24.923-13.367,6.95,4.014,13.242,10.929,17.772,18.824l4.981-1.253c-5.675-10.293-13.772-19.371-22.753-24.558-16.992-9.81-30.835-2.055-31.042,17.269Z" transform="translate(-404.691 -157.122)" fill="#fff"/>
          <path id="Trazado_132214" data-name="Trazado 132214" d="M448.193,220.246c-3.684.337-7.952-.691-12.515-3.326-12.79-7.384-23.35-24.58-24.784-39.652L404.8,174.2c1.638,18.838,14.862,40.464,30.879,49.711,6.025,3.479,11.653,4.741,16.42,4.071Z" transform="translate(-404.636 -148.393)" fill="#fff"/>
          <path id="Trazado_132215" data-name="Trazado 132215" d="M440.1,180.463a47.692,47.692,0,0,1,4.831,19.657c0,9.051-3.687,14.992-9.417,16.937l3.858,7.641c7.094-2.441,11.647-9.837,11.647-21.062,0-7.836-2.22-16.364-5.969-24.417Z" transform="translate(-388.93 -145.825)" fill="#fff"/>
        </g>
        <path id="Trazado_132216" data-name="Trazado 132216" d="M438.006,197.9a21.266,21.266,0,0,1-4.378-5.241c-.722-1.212-.7-2.527.006-2.936a5.592,5.592,0,0,0,2.235-2.492c.768.212,1.718-.071,1.718-1.123a4.157,4.157,0,0,0-1.108-2.832c-.187-4.594-1.756-9.314-7.039-12.363s-6.852-.142-7.039,4.235c-.635-.141-1.108.479-1.108,1.554a5.077,5.077,0,0,0,1.718,3.107,24.966,24.966,0,0,0,2.234,5.072c.7,1.224.73,2.568.006,2.944a5.764,5.764,0,0,1-4.376.186c-2.219-.671-3.866.668-3.866,3.4v4.736a3.194,3.194,0,0,0,1.448,2.5l21.967,12.682c.8.462,1.448.092,1.448-.825v-4.736A11.281,11.281,0,0,0,438.006,197.9Z" transform="translate(-397.614 -150.324)" fill="#fff"/>
        <g id="Grupo_61912" data-name="Grupo 61912" transform="translate(0 0.585)">
          <path id="Trazado_132217" data-name="Trazado 132217" d="M410.294,181.854c.414-15.143,11.421-21.162,24.923-13.367,6.95,4.014,13.242,10.929,17.772,18.824l4.981-1.253C452.3,175.765,444.2,166.687,435.218,161.5c-16.992-9.809-30.835-2.055-31.043,17.269Z" transform="translate(-404.175 -157.251)" fill="#ffd70f"/>
          <path id="Trazado_132218" data-name="Trazado 132218" d="M447.677,220.375c-3.684.337-7.952-.691-12.515-3.326-12.79-7.384-23.35-24.58-24.784-39.652l-6.095-3.072c1.638,18.838,14.862,40.464,30.879,49.711,6.025,3.479,11.653,4.741,16.42,4.071Z" transform="translate(-404.12 -148.522)" fill="#ffd70f"/>
          <path id="Trazado_132219" data-name="Trazado 132219" d="M439.588,180.592a47.691,47.691,0,0,1,4.832,19.657c0,9.051-3.687,14.992-9.417,16.937l3.858,7.641c7.094-2.441,11.647-9.837,11.647-21.062,0-7.836-2.22-16.364-5.969-24.417Z" transform="translate(-388.414 -145.954)" fill="#ffd70f"/>
        </g>
        <path id="Trazado_132220" data-name="Trazado 132220" d="M437.49,198.033a21.267,21.267,0,0,1-4.378-5.241c-.722-1.212-.7-2.527.006-2.936a5.591,5.591,0,0,0,2.235-2.492c.768.212,1.718-.071,1.718-1.123a4.158,4.158,0,0,0-1.108-2.832c-.187-4.594-1.756-9.314-7.039-12.364s-6.852-.142-7.039,4.235c-.635-.141-1.108.479-1.108,1.554a5.077,5.077,0,0,0,1.718,3.107,24.962,24.962,0,0,0,2.234,5.072c.7,1.224.73,2.568.006,2.944a5.765,5.765,0,0,1-4.376.186c-2.219-.671-3.866.668-3.866,3.4v4.736a3.191,3.191,0,0,0,1.448,2.5l21.968,12.682c.8.462,1.448.092,1.448-.825V205.9A11.281,11.281,0,0,0,437.49,198.033Z" transform="translate(-397.877 -150.258)" fill="#ffd70f"/>
      </g>
    </g>
    <g id="Grupo_61917" data-name="Grupo 61917" transform="translate(636.654 244.543)">
      <path id="Trazado_132221" data-name="Trazado 132221" d="M593.7,260.91l-58.735-33.964c-3.349-1.933-6.063-7.119-6.063-11.584V201.444c0-4.464,2.714-6.516,6.063-4.584L593.7,230.824c3.349,1.934,6.063,7.119,6.063,11.584v13.919C599.761,260.79,597.047,262.843,593.7,260.91Z" transform="translate(-528.9 -194.677)" fill="#37a3a5"/>
      <path id="Trazado_132222" data-name="Trazado 132222" d="M593.327,253.112l-57.813-33.426a10.308,10.308,0,0,1-4.361-8.635v-9.976a1.074,1.074,0,0,1,1.618-.925l.19.11,57.881,33.473c3.208,1.848,4.361,5.134,4.361,8.635v9.817a1.16,1.16,0,0,1-1.735,1.007Z" transform="translate(-527.748 -192.699)" fill="#21587b"/>
      <path id="Trazado_132223" data-name="Trazado 132223" d="M594.438,252.4l-.141-.08-57.814-33.426a10.31,10.31,0,0,1-4.36-8.635V200.28a1.088,1.088,0,0,1,.038-.274,1.072,1.072,0,0,0-1.008,1.067v9.976a10.308,10.308,0,0,0,4.361,8.635l57.813,33.426.142.08a1.159,1.159,0,0,0,1.677-.656A1.131,1.131,0,0,1,594.438,252.4Z" transform="translate(-527.748 -192.696)" fill="#00223d"/>
      <path id="Trazado_132224" data-name="Trazado 132224" d="M595.779,229.861,537.043,195.9a4.1,4.1,0,0,0-3.547-.521c-.127.048-2.954,1.492-3.074,1.557l-.006,0a3.969,3.969,0,0,1,3.772.416l58.735,33.965c3.349,1.933,6.063,7.118,6.063,11.582v13.919c0,2.787-1.058,4.632-2.666,5.156a1,1,0,0,0,.53-.18c.077-.044,3.048-1.623,3.122-1.674,1.152-.807,1.868-2.463,1.868-4.759V241.443C601.84,236.979,599.126,231.794,595.779,229.861Z" transform="translate(-528.125 -195.169)" fill="#00223d"/>
      <path id="Trazado_132225" data-name="Trazado 132225" d="M595.779,229.861,537.043,195.9a4.1,4.1,0,0,0-3.547-.521c-.127.048-2.954,1.492-3.074,1.557l-.006,0a3.969,3.969,0,0,1,3.772.416l58.735,33.965Z" transform="translate(-528.125 -195.169)" fill="#00223d"/>
      <path id="Trazado_132226" data-name="Trazado 132226" d="M593.075,230.726l-58.736-33.964a4.027,4.027,0,0,0-3.651-.467,4.472,4.472,0,0,1,2.924.686l58.736,33.964c3.347,1.933,6.062,7.118,6.062,11.582v13.919c0,2.634-.949,4.419-2.41,5.051,1.869-.3,3.137-2.219,3.137-5.268V242.309C599.137,237.845,596.423,232.658,593.075,230.726Z" transform="translate(-527.986 -194.723)" fill="#fff" opacity="0.7"/>
      <g id="Grupo_61915" data-name="Grupo 61915" transform="translate(13.515 17.731)">
        <path id="Trazado_132227" data-name="Trazado 132227" d="M562.8,223.983a8.056,8.056,0,0,0,3.654,6.3c2.019,1.165,3.656.233,3.656-2.084a8.053,8.053,0,0,0-3.656-6.3C564.433,220.734,562.8,221.666,562.8,223.983Z" transform="translate(-525.086 -199.492)" fill="#001a46"/>
        <path id="Trazado_132228" data-name="Trazado 132228" d="M556.558,220.359a8.052,8.052,0,0,0,3.654,6.3c2.019,1.165,3.656.233,3.656-2.084a8.056,8.056,0,0,0-3.656-6.3C558.193,217.109,556.558,218.043,556.558,220.359Z" transform="translate(-528.275 -201.344)" fill="#001a46"/>
        <path id="Trazado_132229" data-name="Trazado 132229" d="M550.32,216.736a8.049,8.049,0,0,0,3.654,6.3c2.019,1.167,3.656.233,3.656-2.084a8.053,8.053,0,0,0-3.656-6.3C551.955,213.487,550.32,214.419,550.32,216.736Z" transform="translate(-531.464 -203.197)" fill="#001a46"/>
        <path id="Trazado_132230" data-name="Trazado 132230" d="M544.081,213.112a8.056,8.056,0,0,0,3.656,6.3c2.019,1.165,3.656.233,3.656-2.084a8.053,8.053,0,0,0-3.656-6.3C545.718,209.863,544.081,210.8,544.081,213.112Z" transform="translate(-534.654 -205.049)" fill="#001a46"/>
        <path id="Trazado_132231" data-name="Trazado 132231" d="M537.843,209.488a8.054,8.054,0,0,0,3.656,6.3c2.019,1.165,3.654.233,3.654-2.084a8.054,8.054,0,0,0-3.654-6.3C539.48,206.239,537.843,207.172,537.843,209.488Z" transform="translate(-537.843 -206.902)" fill="#001a46"/>
      </g>
      <g id="Grupo_61916" data-name="Grupo 61916" transform="translate(12.385 17.807)">
        <path id="Trazado_132232" data-name="Trazado 132232" d="M562.047,224.033a8.055,8.055,0,0,0,3.656,6.3c2.019,1.165,3.654.233,3.654-2.084a8.052,8.052,0,0,0-3.654-6.3C563.684,220.784,562.047,221.716,562.047,224.033Z" transform="translate(-524.338 -199.542)" fill="url(#linear-gradient)"/>
        <path id="Trazado_132233" data-name="Trazado 132233" d="M555.809,220.409a8.054,8.054,0,0,0,3.656,6.3c2.018,1.165,3.654.233,3.654-2.084a8.058,8.058,0,0,0-3.654-6.3C557.446,217.16,555.809,218.094,555.809,220.409Z" transform="translate(-527.527 -201.394)" fill="url(#linear-gradient)"/>
        <path id="Trazado_132234" data-name="Trazado 132234" d="M549.571,216.786a8.053,8.053,0,0,0,3.656,6.3c2.018,1.165,3.654.233,3.654-2.084a8.055,8.055,0,0,0-3.654-6.3C551.208,213.537,549.571,214.469,549.571,216.786Z" transform="translate(-530.717 -203.247)" fill="url(#linear-gradient)"/>
        <path id="Trazado_132235" data-name="Trazado 132235" d="M543.333,213.162a8.058,8.058,0,0,0,3.654,6.3c2.019,1.165,3.656.231,3.656-2.084a8.053,8.053,0,0,0-3.656-6.3C544.97,209.913,543.333,210.845,543.333,213.162Z" transform="translate(-533.906 -205.099)" fill="url(#linear-gradient)"/>
        <path id="Trazado_132236" data-name="Trazado 132236" d="M537.1,209.538a8.056,8.056,0,0,0,3.654,6.3c2.019,1.165,3.656.233,3.656-2.084a8.056,8.056,0,0,0-3.656-6.3C538.732,206.289,537.1,207.222,537.1,209.538Z" transform="translate(-537.095 -206.952)" fill="url(#linear-gradient)"/>
      </g>
    </g>
    <g id="Grupo_61921" data-name="Grupo 61921" transform="translate(375.602 271.163)">
      <path id="Trazado_132237" data-name="Trazado 132237" d="M429.961,296.227c0,1.167,1.625,2.113,3.629,2.113s3.629-.946,3.629-2.113-1.625-2.113-3.629-2.113S429.961,295.06,429.961,296.227Z" transform="translate(-318.43 -171.204)" fill="#37a3a5"/>
      <g id="Grupo_61918" data-name="Grupo 61918" transform="translate(329.015)">
        <path id="Trazado_132238" data-name="Trazado 132238" d="M585.837,234.789a.756.756,0,0,1-.756-.756V231.01a.756.756,0,1,1,1.511,0v3.024A.756.756,0,0,1,585.837,234.789Zm0-7.558a.756.756,0,0,1-.756-.741,10.625,10.625,0,0,0-.423-2.782.756.756,0,0,1,1.452-.423,12.257,12.257,0,0,1,.482,3.177.756.756,0,0,1-.741.769Zm-2.544-6.967a.753.753,0,0,1-.586-.28,10.588,10.588,0,0,0-2.048-1.928.756.756,0,0,1,.883-1.229,12.172,12.172,0,0,1,2.339,2.2.755.755,0,0,1-.588,1.232Zm-6.066-4.422a.747.747,0,0,1-.387-.106l-2.6-1.548a.756.756,0,1,1,.774-1.3l2.6,1.546a.756.756,0,0,1-.387,1.405Z" transform="translate(-573.872 -212.784)" fill="#00223d"/>
      </g>
      <g id="Grupo_61919" data-name="Grupo 61919" transform="translate(34.055 28.602)">
        <path id="Trazado_132239" data-name="Trazado 132239" d="M433.163,263.147a.742.742,0,0,1-.381-.1l-2.11-1.232a.755.755,0,1,1,.762-1.3l2.11,1.232a.756.756,0,0,1-.381,1.408Zm-6.025-3.518a.742.742,0,0,1-.381-.1L424.146,258a.755.755,0,0,1,.762-1.3l2.611,1.523a.756.756,0,0,1-.381,1.409Zm-6.526-3.81a.74.74,0,0,1-.381-.1l-2.61-1.525a.755.755,0,1,1,.762-1.3l2.61,1.523a.756.756,0,0,1-.381,1.408Zm-6.526-3.81a.742.742,0,0,1-.381-.1l-2.61-1.523a.755.755,0,1,1,.762-1.3l2.61,1.523a.756.756,0,0,1-.381,1.408Zm-6.526-3.81a.74.74,0,0,1-.381-.1l-2.61-1.525a.755.755,0,0,1,.762-1.3l2.61,1.525a.755.755,0,0,1-.381,1.407Zm-6.526-3.81a.741.741,0,0,1-.379-.1l-2.611-1.523a.755.755,0,1,1,.762-1.3l2.61,1.523a.756.756,0,0,1-.381,1.409Zm-6.526-3.81a.741.741,0,0,1-.381-.1l-2.61-1.525a.755.755,0,1,1,.762-1.3l2.61,1.523a.756.756,0,0,1-.381,1.408Zm-6.526-3.81a.742.742,0,0,1-.381-.1l-2.61-1.523a.755.755,0,0,1,.762-1.3l2.61,1.523a.756.756,0,0,1-.381,1.408Zm-8.534-1.608a.755.755,0,0,1-.756-.756,2.708,2.708,0,0,1,2.657-2.7h.012a.756.756,0,0,1,.012,1.511,1.193,1.193,0,0,0-1.17,1.185A.754.754,0,0,1,379.451,235.162Z" transform="translate(-378.695 -231.71)" fill="#37a3a5"/>
      </g>
      <g id="Grupo_61920" data-name="Grupo 61920" transform="translate(1.186 17.723)">
        <path id="Trazado_132240" data-name="Trazado 132240" d="M386.384,242.838a.762.762,0,0,1-.382-.1l-2.608-1.528a.757.757,0,0,1,.765-1.306l2.608,1.529a.756.756,0,0,1-.382,1.408Zm-6.52-3.822a.761.761,0,0,1-.382-.1l-2.607-1.529a.756.756,0,1,1,.765-1.3l2.607,1.529a.755.755,0,0,1-.382,1.407Zm-6.518-3.822a.765.765,0,0,1-.382-.1l-2.608-1.528a.756.756,0,0,1,.765-1.3l2.608,1.526a.756.756,0,0,1-.382,1.408Zm-6.52-3.82a.762.762,0,0,1-.382-.1l-2.607-1.528a.757.757,0,0,1,.765-1.306l2.607,1.529a.756.756,0,0,1-.382,1.408Zm-6.518-3.822a.761.761,0,0,1-.382-.1l-2.608-1.529a.755.755,0,0,1,.765-1.3l2.608,1.528a.756.756,0,0,1-.382,1.407Z" transform="translate(-356.945 -224.511)" fill="#37a3a5"/>
      </g>
      <path id="Trazado_132241" data-name="Trazado 132241" d="M364.021,226.132l-4.66,3.4-3.2-5.479Z" transform="translate(-356.16 -207.023)" fill="#0fbab8"/>
    </g>
    <g id="Grupo_61925" data-name="Grupo 61925" transform="translate(642.612 318.997)">
      <path id="Trazado_132242" data-name="Trazado 132242" d="M582.5,337.113,536.1,310.41c-4.828-2.787-4.222-7.656,1.352-10.873h0c5.573-3.219,24.015-3.237,28.842-.45l41.132,23.736c7.411,4.374.074,10.375-6.1,13.51h0C595.755,339.551,587.322,339.9,582.5,337.113Z" transform="translate(-532.842 -217.534)" fill="#92b4d1" opacity="0.2"/>
      <path id="Trazado_132243" data-name="Trazado 132243" d="M600.366,294.914,533.288,269.9v49.75c-.218,1.616.638,3.19,2.619,4.333l45.36,26.27c3.929,2.268,10.792,1.984,15.33-.635h0c2.4-1.386,3.668-3.148,3.748-4.836l.023.009Z" transform="translate(-532.632 -231.419)" fill="url(#linear-gradient)"/>
      <path id="Trazado_132244" data-name="Trazado 132244" d="M581.266,302.608l-45.36-26.27c-3.931-2.268-3.437-6.231,1.1-8.851h0c4.537-2.619,11.4-2.9,15.33-.635l45.36,26.27c3.929,2.268,3.437,6.231-1.1,8.851h0C592.057,304.592,585.195,304.877,581.266,302.608Z" transform="translate(-532.633 -233.758)" fill="#00223d"/>
      <path id="Trazado_132245" data-name="Trazado 132245" d="M596.6,299.015c-4.538,2.619-11.4,2.9-15.33.636l-45.36-26.27a4.689,4.689,0,0,1-2.627-3.506c-.189,1.593.669,3.142,2.627,4.271l45.36,26.27c3.929,2.268,10.792,1.984,15.33-.635,2.643-1.526,3.9-3.508,3.725-5.345C600.13,296.045,598.874,297.7,596.6,299.015Z" transform="translate(-532.632 -231.43)" fill="#fff"/>
      <g id="Grupo_61924" data-name="Grupo 61924" transform="translate(10.175)">
        <path id="Trazado_132246" data-name="Trazado 132246" d="M568.064,247h0a19,19,0,0,0-28.488,16.467v20.609h0c0,.015,0,.029,0,.029,0,2.021,2.793,3.647,6.237,3.647s6.238-1.626,6.238-3.631c0-.024-.006-.047-.006-.071h.066V266.126a8.053,8.053,0,0,1,12.064-6.982h0a20.084,20.084,0,0,1,10.077,17.413v27.479h.067c.068,1.972,2.829,3.559,6.231,3.559,3.424,0,6.2-1.606,6.234-3.6h0V279.4A37.387,37.387,0,0,0,568.064,247Z" transform="translate(-539.575 -244.436)" fill="url(#linear-gradient)"/>
      </g>
      <path id="Trazado_132251" data-name="Trazado 132251" d="M559.93,299.694a13.557,13.557,0,0,0-6.151-10.609c-3.4-1.96-6.151-.39-6.151,3.508a13.382,13.382,0,0,0,3.11,7.925v12.347l6.081,3.512V304.029C558.675,303.887,559.93,302.322,559.93,299.694Z" transform="translate(-525.283 -222.04)" fill="#00223d"/>
      <path id="Trazado_132252" data-name="Trazado 132252" d="M551.8,312.385V300.038a13.381,13.381,0,0,1-3.11-7.925,4.391,4.391,0,0,1,1.614-3.822c-1.615.34-2.675,1.86-2.675,4.277a13.382,13.382,0,0,0,3.11,7.925V312.84l6.081,3.512v-1.068Z" transform="translate(-525.283 -222.015)" fill="#001a46"/>
    </g>
    <g id="Grupo_61926" data-name="Grupo 61926" transform="translate(326.68 257.3)">
      <path id="Trazado_132253" data-name="Trazado 132253" d="M350.332,221.87a4.487,4.487,0,0,1-4.056.008.7.7,0,0,0-.635,0l-15.812,9.131-2.117-1.223a.193.193,0,0,1,0-.366l17.926-10.351a.7.7,0,0,1,.635,0,4.487,4.487,0,0,0,4.056-.008,1.444,1.444,0,0,0,.842-1.152l.009,0v2.767l-.017-.006A1.4,1.4,0,0,1,350.332,221.87Z" transform="translate(-321.849 -196.303)" fill="#00223d"/>
      <path id="Trazado_132254" data-name="Trazado 132254" d="M346.013,216.384a3.018,3.018,0,0,0,1.788,2.56,4.487,4.487,0,0,0,4.056-.008,1.237,1.237,0,0,0,.014-2.342c-.175-.1-.174-.264,0-.366L369.8,205.878a.7.7,0,0,1,.633,0l10.236,5.909c.174.1.172.264,0,.366l-2.114,1.221-8.118-4.686a.7.7,0,0,0-.633,0l-17.068,9.853v2l-.036-.021a1.4,1.4,0,0,1-.839,1.224,4.482,4.482,0,0,1-4.056.008,3.162,3.162,0,0,1-1.752-2.255l-.062-.062v-3.065Z" transform="translate(-312.439 -202.491)" fill="#00223d"/>
      <path id="Trazado_132255" data-name="Trazado 132255" d="M339.821,228.531a5.6,5.6,0,0,0,5.07-.009l22.886-13.213c1.4-.812,1.411-2.122.015-2.927a5.6,5.6,0,0,0-5.07.009L339.836,225.6C338.432,226.415,338.424,227.725,339.821,228.531Z" transform="translate(-316.125 -199.435)" fill="#21587b"/>
      <path id="Trazado_132256" data-name="Trazado 132256" d="M347.014,223.041a.193.193,0,0,1,0,.366l-.857.494v-2.206l.053.011A1.317,1.317,0,0,0,347.014,223.041Z" transform="translate(-312.353 -194.366)" fill="#084c94"/>
      <path id="Trazado_132257" data-name="Trazado 132257" d="M325.574,229.739l10.234,5.909a9.679,9.679,0,0,0,8.747-.015l17.926-10.351a2.984,2.984,0,0,0,1.8-2.69l.027,0v3.149l-.032-.009a3.166,3.166,0,0,1-1.792,2.353l-17.926,10.352a9.684,9.684,0,0,1-8.747.015l-10.234-5.909a3.156,3.156,0,0,1-1.753-2.262l-.015-.018v-2.883A3.112,3.112,0,0,0,325.574,229.739Z" transform="translate(-323.779 -193.907)" fill="#00223d"/>
      <path id="Trazado_132258" data-name="Trazado 132258" d="M339.815,227.727a5.6,5.6,0,0,0,5.07-.009l22.886-13.213a1.991,1.991,0,0,0,1-1.153v2.161c.177.635-.153,1.309-1,1.8l-22.886,13.214a5.607,5.607,0,0,1-5.07.009,1.969,1.969,0,0,1-.988-1.129l-.012,0v-.074a1.181,1.181,0,0,1,0-.5v-2.309A1.9,1.9,0,0,0,339.815,227.727Z" transform="translate(-316.12 -198.631)" fill="#00223d"/>
      <path id="Trazado_132259" data-name="Trazado 132259" d="M347.794,220.063a4.482,4.482,0,0,0,4.056-.006,1.237,1.237,0,0,0,.014-2.342c-.175-.1-.174-.264,0-.366L369.793,207a.7.7,0,0,1,.633,0l10.236,5.909c.174.1.172.264,0,.366l-17.928,10.351a.7.7,0,0,1-.633,0,4.482,4.482,0,0,0-4.056.008,1.236,1.236,0,0,0-.012,2.341,9.676,9.676,0,0,0,8.746-.015L384.7,215.606c2.418-1.4,2.43-3.662.027-5.049L374.5,204.648a9.679,9.679,0,0,0-8.747.015l-17.926,10.351C345.4,216.41,345.391,218.675,347.794,220.063Z" transform="translate(-312.433 -203.611)" fill="#21587b"/>
      <path id="Trazado_132260" data-name="Trazado 132260" d="M354.25,222.816A9.676,9.676,0,0,0,363,222.8l17.928-10.351a3.011,3.011,0,0,0,1.8-2.648l.033-.021v3.192l-.059.014a3.216,3.216,0,0,1-1.777,2.273L363,225.611a9.681,9.681,0,0,1-8.746.015,1.5,1.5,0,0,1-.806-1l-.051,0v-2.979l.026.011A1.42,1.42,0,0,0,354.25,222.816Z" transform="translate(-308.653 -200.456)" fill="#00223d"/>
      <path id="Trazado_132261" data-name="Trazado 132261" d="M325.583,232.886l10.234,5.909a9.681,9.681,0,0,0,8.746-.015l17.928-10.351c2.419-1.4,2.432-3.662.027-5.051a4.484,4.484,0,0,0-4.055.008,1.236,1.236,0,0,0-.014,2.342.193.193,0,0,1,0,.366L340.52,236.445a.7.7,0,0,1-.633,0l-10.236-5.909c-.174-.1-.172-.264,0-.366l17.928-10.351a.7.7,0,0,1,.633,0,4.487,4.487,0,0,0,4.056-.008,1.236,1.236,0,0,0,.012-2.341,9.676,9.676,0,0,0-8.746.015L325.61,227.837C323.192,229.234,323.179,231.5,325.583,232.886Z" transform="translate(-323.788 -197.055)" fill="#21587b"/>
      <path id="Trazado_132262" data-name="Trazado 132262" d="M339.808,227.576a5.6,5.6,0,0,0,5.07-.009l22.886-13.213a1.987,1.987,0,0,0,1-1.156,1.209,1.209,0,0,1,.017.234,1.889,1.889,0,0,1-1.022,1.262l-22.886,13.213a5.6,5.6,0,0,1-5.07.009,1.853,1.853,0,0,1-1-1.244,1.292,1.292,0,0,1,.015-.228A1.963,1.963,0,0,0,339.808,227.576Z" transform="translate(-316.112 -198.709)" fill="#72b5e8"/>
      <path id="Trazado_132263" data-name="Trazado 132263" d="M378.454,211.837l-10-5.773a.7.7,0,0,0-.633,0L350.106,216.3a2.313,2.313,0,0,0-.213-.151.21.21,0,0,1-.038-.033.218.218,0,0,1,.039-.035l17.928-10.351a.7.7,0,0,1,.633,0l10.236,5.909a.265.265,0,0,1,.038.033.3.3,0,0,1-.041.035Z" transform="translate(-310.462 -202.569)" fill="#72b5e8"/>
      <path id="Trazado_132264" data-name="Trazado 132264" d="M354.232,222.512a9.676,9.676,0,0,0,8.746-.015l17.928-10.351a3.249,3.249,0,0,0,1.77-2.218c.009.063.008.128.012.192a3.132,3.132,0,0,1-1.782,2.367l-17.928,10.351a9.676,9.676,0,0,1-8.746.015,1.488,1.488,0,0,1-.8-1,.912.912,0,0,1,.024-.19A1.624,1.624,0,0,0,354.232,222.512Z" transform="translate(-308.635 -200.381)" fill="#72b5e8"/>
      <path id="Trazado_132265" data-name="Trazado 132265" d="M347.781,215.086a4.482,4.482,0,0,0,4.056-.006,1.661,1.661,0,0,0,.792-.857.888.888,0,0,1,.024.189,1.52,1.52,0,0,1-.816,1.008,4.482,4.482,0,0,1-4.056.006,3.082,3.082,0,0,1-1.755-2.338c0-.065,0-.128.014-.193A3.2,3.2,0,0,0,347.781,215.086Z" transform="translate(-312.419 -198.864)" fill="#72b5e8"/>
      <path id="Trazado_132266" data-name="Trazado 132266" d="M345.612,218.817a.7.7,0,0,1,.633,0,4.487,4.487,0,0,0,4.056-.008,1.656,1.656,0,0,0,.792-.857.992.992,0,0,1,.024.189,1.517,1.517,0,0,1-.816,1.008,4.482,4.482,0,0,1-4.056.008.7.7,0,0,0-.633,0l-17.694,10.215-.237-.137a.264.264,0,0,1-.038-.032.307.307,0,0,1,.041-.035Z" transform="translate(-321.818 -196.28)" fill="#72b5e8"/>
      <path id="Trazado_132267" data-name="Trazado 132267" d="M325.57,229.428l10.234,5.909a9.676,9.676,0,0,0,8.746-.015l17.928-10.351a3.248,3.248,0,0,0,1.77-2.22,1.645,1.645,0,0,1,.012.193,3.125,3.125,0,0,1-1.782,2.367l-17.928,10.351a9.676,9.676,0,0,1-8.746.015l-10.234-5.909a3.078,3.078,0,0,1-1.755-2.338c0-.065,0-.13.012-.193A3.2,3.2,0,0,0,325.57,229.428Z" transform="translate(-323.775 -193.826)" fill="#72b5e8"/>
    </g>
    <g id="Grupo_61931" data-name="Grupo 61931" transform="translate(318.132 317.255)">
      <path id="Trazado_132268" data-name="Trazado 132268" d="M320.025,284.317c-2.513-1.451-2.525-3.8-.029-5.246l20.642-11.918a14.025,14.025,0,0,1,12.673.023c3.5,2.024,3.523,5.306.039,7.316L334.91,285.139a1.55,1.55,0,0,1-1.4,0,.428.428,0,0,1,0-.812l18.44-10.647c2.711-1.564,2.7-4.12-.03-5.694a10.915,10.915,0,0,0-9.865-.018l-20.642,11.918c-1.726,1-1.717,2.622.02,3.624a6.95,6.95,0,0,0,6.278.012l19.77-11.415a.865.865,0,0,0-.009-1.638,3.145,3.145,0,0,0-2.838-.006l-16.471,9.51c-.089.051-.088.135,0,.186a.355.355,0,0,0,.322,0l12.116-7a1.558,1.558,0,0,1,1.4,0,.427.427,0,0,1,0,.81l-12.114,7a3.461,3.461,0,0,1-3.13-.006.955.955,0,0,1-.011-1.807l16.471-9.509a6.251,6.251,0,0,1,5.646.009c1.561.9,1.569,2.364.018,3.26l-19.77,11.414A10.055,10.055,0,0,1,320.025,284.317Z" transform="translate(-318.132 -231.847)" fill="#92b4d1" opacity="0.2"/>
      <path id="Trazado_132269" data-name="Trazado 132269" d="M320.025,283.966c-2.513-1.451-2.525-3.8-.029-5.246L340.639,266.8a14.025,14.025,0,0,1,12.673.023c3.5,2.024,3.523,5.3.039,7.316L334.91,284.788a1.545,1.545,0,0,1-1.4,0,.427.427,0,0,1,0-.81l18.44-10.647c2.711-1.566,2.7-4.12-.03-5.7a10.919,10.919,0,0,0-9.865-.017l-20.642,11.918c-1.726,1-1.717,2.622.02,3.624a6.945,6.945,0,0,0,6.278.011l19.77-11.413a.866.866,0,0,0-.009-1.64,3.145,3.145,0,0,0-2.838,0l-16.471,9.51c-.089.051-.088.134,0,.186a.36.36,0,0,0,.322,0l12.116-7a1.553,1.553,0,0,1,1.4,0,.427.427,0,0,1,0,.81l-12.114,7a3.47,3.47,0,0,1-3.13-.006.955.955,0,0,1-.011-1.807l16.471-9.51a6.25,6.25,0,0,1,5.646.011c1.561.9,1.569,2.364.018,3.26l-19.77,11.414A10.06,10.06,0,0,1,320.025,283.966Z" transform="translate(-318.132 -232.027)" fill="#00223d"/>
      <g id="Grupo_61927" data-name="Grupo 61927" transform="translate(0.028 33.89)">
        <path id="Trazado_132270" data-name="Trazado 132270" d="M344.1,268.251a3.145,3.145,0,0,0-2.838,0l-16.471,9.51a.1.1,0,0,0,0,.186.358.358,0,0,0,.323,0l12.116-6.994a1.367,1.367,0,0,1,.462-.11l3.57-2.061a3.145,3.145,0,0,1,2.838,0,1.119,1.119,0,0,1,.5.561C344.753,268.961,344.609,268.549,344.1,268.251Z" transform="translate(-314.793 -264.582)" fill="#21587b"/>
        <path id="Trazado_132271" data-name="Trazado 132271" d="M324.048,278.026a3.461,3.461,0,0,0,3.13,0l12.114-6.994c.316-.181.358-.452.159-.669a.6.6,0,0,1-.159.139L327.178,277.5a3.461,3.461,0,0,1-3.13-.006,1.207,1.207,0,0,1-.564-.642A.952.952,0,0,0,324.048,278.026Z" transform="translate(-315.452 -263.326)" fill="#21587b"/>
        <path id="Trazado_132272" data-name="Trazado 132272" d="M351.235,266.894a10.924,10.924,0,0,0-9.865-.018L320.727,278.8a2.031,2.031,0,0,0-1.244,2.066,2.313,2.313,0,0,1,1.244-1.535l20.642-11.919a10.92,10.92,0,0,1,9.865.02,3.614,3.614,0,0,1,2.011,2.593C353.372,268.9,352.72,267.751,351.235,266.894Z" transform="translate(-317.482 -265.708)" fill="#21587b"/>
        <path id="Trazado_132273" data-name="Trazado 132273" d="M348.246,271.943,329.8,282.588a1.548,1.548,0,0,1-1.4,0,.685.685,0,0,1-.162-.142c-.2.218-.156.49.162.673a1.549,1.549,0,0,0,1.4,0l18.442-10.647c1.854-1.072,2.684-2.5,2.557-3.91A4.525,4.525,0,0,1,348.246,271.943Z" transform="translate(-313.055 -264.248)" fill="#21587b"/>
        <path id="Trazado_132274" data-name="Trazado 132274" d="M349.985,268.862a2.108,2.108,0,0,1-1.114,1.354L329.1,281.63a10.06,10.06,0,0,1-9.086-.015,3.339,3.339,0,0,1-1.848-2.37,3.038,3.038,0,0,0,1.848,2.9,10.055,10.055,0,0,0,9.086.017l19.77-11.416A1.819,1.819,0,0,0,349.985,268.862Z" transform="translate(-318.151 -264.096)" fill="#21587b"/>
      </g>
      <g id="Grupo_61929" data-name="Grupo 61929" transform="translate(3.611)">
        <path id="Trazado_132276" data-name="Trazado 132276" d="M356.449,261.948c2.512-1.451,2.525-3.8.029-5.246l-20.644-11.918a14.022,14.022,0,0,0-12.672.023c-3.5,2.024-3.523,5.306-.039,7.316l18.44,10.647a1.552,1.552,0,0,0,1.4,0,.429.429,0,0,0,0-.811l-18.44-10.647c-2.711-1.566-2.7-4.12.03-5.694a10.912,10.912,0,0,1,9.864-.018l20.644,11.918c1.724,1,1.717,2.622-.02,3.624a6.945,6.945,0,0,1-6.278.012L329,249.737a.865.865,0,0,1,.009-1.638,3.133,3.133,0,0,1,2.837,0L348.32,257.6a.1.1,0,0,1,0,.186.355.355,0,0,1-.322,0l-12.116-7a1.557,1.557,0,0,0-1.4,0c-.388.225-.39.588,0,.81l12.116,7a3.466,3.466,0,0,0,3.13-.006.955.955,0,0,0,.011-1.807l-16.473-9.509a6.247,6.247,0,0,0-5.644.009c-1.561.9-1.569,2.364-.018,3.26l19.77,11.414A10.055,10.055,0,0,0,356.449,261.948Z" transform="translate(-320.522 -243.283)" fill="#00223d"/>
        <g id="Grupo_61928" data-name="Grupo 61928" transform="translate(0.029 0.674)">
          <path id="Trazado_132277" data-name="Trazado 132277" d="M354.389,256.816,333.745,244.9a10.921,10.921,0,0,0-9.864.018c-1.472.851-2.126,1.984-2.016,3.095a3.591,3.591,0,0,1,2.016-2.622,10.916,10.916,0,0,1,9.864-.018l20.644,11.918a2.3,2.3,0,0,1,1.248,1.566A2.046,2.046,0,0,0,354.389,256.816Z" transform="translate(-319.87 -243.729)" fill="#21587b"/>
          <path id="Trazado_132278" data-name="Trazado 132278" d="M326.328,246.744a3.145,3.145,0,0,1,2.838,0l3.743,2.163a1.392,1.392,0,0,1,.289.068l12.116,6.994a.355.355,0,0,0,.322,0,.1.1,0,0,0,0-.186l-16.471-9.51a3.145,3.145,0,0,0-2.838,0,.867.867,0,0,0-.512,1.061A1.093,1.093,0,0,1,326.328,246.744Z" transform="translate(-317.869 -242.603)" fill="#21587b"/>
          <path id="Trazado_132279" data-name="Trazado 132279" d="M345.095,255.525a3.456,3.456,0,0,1-3.13.008l-12.116-7a.642.642,0,0,1-.192-.168c-.168.212-.107.467.192.639l12.116,7a3.461,3.461,0,0,0,3.13-.006.96.96,0,0,0,.573-1.144A1.18,1.18,0,0,1,345.095,255.525Z" transform="translate(-315.928 -241.357)" fill="#21587b"/>
          <path id="Trazado_132280" data-name="Trazado 132280" d="M343.154,260.447a.652.652,0,0,1-.2.171,1.548,1.548,0,0,1-1.4,0l-18.44-10.647a4.5,4.5,0,0,1-2.562-3.409c-.115,1.4.719,2.817,2.562,3.881l18.44,10.647a1.553,1.553,0,0,0,1.4,0C343.26,260.916,343.321,260.659,343.154,260.447Z" transform="translate(-320.541 -242.279)" fill="#21587b"/>
          <path id="Trazado_132281" data-name="Trazado 132281" d="M354.443,259.646a10.064,10.064,0,0,1-9.086.017l-19.77-11.414a2.092,2.092,0,0,1-1.12-1.384,1.833,1.833,0,0,0,1.12,1.856l19.77,11.414a10.055,10.055,0,0,0,9.086-.017,3.056,3.056,0,0,0,1.853-2.87A3.323,3.323,0,0,1,354.443,259.646Z" transform="translate(-318.545 -242.126)" fill="#21587b"/>
        </g>
      </g>
      <path id="Trazado_132282" data-name="Trazado 132282" d="M358.173,267.073c-3.269.5-7-.494-8.309-2.229L339.02,250.5c-1.83-2.42.391-4.961,4.951-5.666s9.76.689,11.59,3.11l9.689,12.811c.2.267-.042.55-.549.627a1.485,1.485,0,0,1-1.285-.345l-9.689-12.811c-1.424-1.883-5.471-2.97-9.021-2.421s-5.279,2.528-3.855,4.411L351.7,264.56c.905,1.2,3.48,1.891,5.74,1.542s3.36-1.609,2.454-2.808L349.5,249.56a3.006,3.006,0,0,0-2.595-.7c-1.02.159-1.519.727-1.108,1.269l8.653,11.443a.344.344,0,0,0,.295.079c.116-.018.172-.083.127-.144l-6.365-8.418c-.2-.268.042-.549.549-.627a1.48,1.48,0,0,1,1.283.345l6.365,8.416c.452.6-.1,1.226-1.223,1.4a3.315,3.315,0,0,1-2.862-.769l-8.655-11.443c-.815-1.078.174-2.209,2.206-2.524s4.348.307,5.162,1.384l10.387,13.736C363.035,264.746,361.442,266.569,358.173,267.073Z" transform="translate(-307.781 -242.583)" fill="#92b4d1" opacity="0.2"/>
      <path id="Trazado_132283" data-name="Trazado 132283" d="M358.173,266.644c-3.269.5-7-.5-8.309-2.229L339.02,250.074c-1.83-2.419.391-4.961,4.951-5.666s9.76.689,11.59,3.109l9.689,12.812c.2.268-.042.549-.549.627a1.485,1.485,0,0,1-1.285-.345L353.727,247.8c-1.424-1.885-5.471-2.97-9.021-2.421s-5.279,2.527-3.855,4.411l10.846,14.34c.905,1.2,3.48,1.889,5.74,1.54s3.36-1.608,2.454-2.806L349.5,249.131a3,3,0,0,0-2.595-.7c-1.02.157-1.519.727-1.108,1.269l8.653,11.443a.344.344,0,0,0,.295.079c.116-.018.172-.083.127-.144l-6.365-8.418c-.2-.269.042-.55.549-.627a1.48,1.48,0,0,1,1.283.345l6.365,8.416c.452.6-.1,1.226-1.223,1.4a3.319,3.319,0,0,1-2.862-.768l-8.655-11.443c-.815-1.078.174-2.211,2.206-2.524s4.348.307,5.162,1.384l10.387,13.734C363.035,264.316,361.442,266.138,358.173,266.644Z" transform="translate(-307.781 -242.802)" fill="#21587b"/>
      <g id="Grupo_61930" data-name="Grupo 61930" transform="translate(30.627 1.846)">
        <path id="Trazado_132284" data-name="Trazado 132284" d="M345.21,249.51c-.169.124-.23.287-.1.452l5.986,7.916a.361.361,0,0,0,.252.056c.116-.018.172-.083.127-.145Z" transform="translate(-335.004 -241.946)" fill="#00223d"/>
        <path id="Trazado_132285" data-name="Trazado 132285" d="M357.42,261.065l-10.385-13.734a3.006,3.006,0,0,0-2.6-.7c-.97.15-1.442.671-1.136,1.188a1.558,1.558,0,0,1,1.136-.6,3.011,3.011,0,0,1,2.6.7l10.385,13.734a1.533,1.533,0,0,1,.263.543A1.287,1.287,0,0,0,357.42,261.065Z" transform="translate(-335.939 -243.437)" fill="#00223d"/>
        <path id="Trazado_132286" data-name="Trazado 132286" d="M364.466,260.047a.973.973,0,0,1-.444.177,1.49,1.49,0,0,1-1.285-.345l-9.689-12.811c-1.424-1.885-5.471-2.97-9.021-2.421-2.887.446-4.535,1.839-4.3,3.356.224-1.275,1.792-2.38,4.3-2.767,3.55-.549,7.6.536,9.021,2.421l9.689,12.811a1.485,1.485,0,0,0,1.285.345c.506-.079.751-.36.549-.629Z" transform="translate(-337.73 -244.505)" fill="#00223d"/>
        <path id="Trazado_132287" data-name="Trazado 132287" d="M342.169,248.39l8.653,11.443a3.313,3.313,0,0,0,2.862.768c1.05-.162,1.563-.719,1.268-1.277a1.681,1.681,0,0,1-1.268.688,3.322,3.322,0,0,1-2.862-.768L342.169,247.8a1.445,1.445,0,0,1-.23-.453A1.159,1.159,0,0,0,342.169,248.39Z" transform="translate(-336.61 -243.052)" fill="#00223d"/>
        <path id="Trazado_132288" data-name="Trazado 132288" d="M358.163,264.767c-3.269.506-7-.494-8.309-2.229L339.008,248.2a2.889,2.889,0,0,1-.583-1.455,2.676,2.676,0,0,0,.583,2.045l10.846,14.342c1.312,1.733,5.04,2.734,8.309,2.229,2.676-.414,4.2-1.712,3.953-3.119C361.9,263.4,360.459,264.413,358.163,264.767Z" transform="translate(-338.399 -243.361)" fill="#00223d"/>
      </g>
    </g>
  </g>
</svg>
