<svg xmlns="http://www.w3.org/2000/svg" xmlns:xlink="http://www.w3.org/1999/xlink" width="480.562" height="600.75" viewBox="0 0 480.562 600.75">
  <defs>
    <linearGradient id="linear-gradient" x1="0.5" x2="0.5" y2="1" gradientUnits="objectBoundingBox">
      <stop offset="0" stop-color="#fff"/>
      <stop offset="1" stop-color="#d2e6ee"/>
    </linearGradient>
  </defs>
  <g id="Grupo_37354" data-name="Grupo 37354" transform="translate(0 26.994)">
    <ellipse id="Elipse_3405" data-name="Elipse 3405" cx="240.281" cy="13.929" rx="240.281" ry="13.929" transform="translate(0 545.897)" fill="#fff"/>
    <g id="Grupo_33123" data-name="Grupo 33123" transform="translate(13.054 67.383)">
      <g id="Grupo_33119" data-name="Grupo 33119" transform="translate(78.029 426.02)">
        <path id="Trazado_81544" data-name="Trazado 81544" d="M1808.914,922.541l-2.932-46.249,16.712-.879-2.349,48.487Z" transform="translate(-1803.784 -875.412)" fill="#fac5c2"/>
        <g id="Grupo_33118" data-name="Grupo 33118" transform="translate(0 40.493)">
          <path id="Trazado_81545" data-name="Trazado 81545" d="M1808.154,931.668s-6.45,11.608-4.556,20.629l50.424,1s3.3-9.609-8.048-12.253-27.016-10.776-27.016-10.776S1812.471,935.9,1808.154,931.668Z" transform="translate(-1803.11 -929.42)" fill="#37a3a5"/>
          <path id="Trazado_81546" data-name="Trazado 81546" d="M1803.538,957.836l50.423,1a10.614,10.614,0,0,0,.243-5.062l-51.14-1.016A24.544,24.544,0,0,0,1803.538,957.836Z" transform="translate(-1803.065 -934.961)" fill="#f7ead5"/>
          <path id="Trazado_81547" data-name="Trazado 81547" d="M1823.2,932.839a7,7,0,0,1,1.689-2.258,7.235,7.235,0,0,1,3.809-1.259,30.84,30.84,0,0,1,3.536-.179,7.614,7.614,0,0,1,4.416,1.06,1.227,1.227,0,0,1,.644,1.156,1.14,1.14,0,0,1-.716.711,5.745,5.745,0,0,1-3.286.088q-3.971-.7-7.868-1.762a16.2,16.2,0,0,1,.414,4.328,8.747,8.747,0,0,1-.958,3.944,3.251,3.251,0,0,1-1.173,1.282,1.72,1.72,0,0,1-1.678.062,1.815,1.815,0,0,1-.809-1.469,4.673,4.673,0,0,1,.3-1.71A24.384,24.384,0,0,1,1823.2,932.839Z" transform="translate(-1807.536 -929.142)" fill="none" stroke="#fff" stroke-linecap="round" stroke-linejoin="round" stroke-width="0.917"/>
        </g>
      </g>
      <g id="Grupo_33121" data-name="Grupo 33121" transform="translate(18.331 425.025)">
        <path id="Trazado_81548" data-name="Trazado 81548" d="M1729.7,921.22l-2.932-46.249,16.711-.88-2.349,48.487Z" transform="translate(-1724.572 -874.092)" fill="#fac5c2"/>
        <g id="Grupo_33120" data-name="Grupo 33120" transform="translate(0 40.493)">
          <path id="Trazado_81549" data-name="Trazado 81549" d="M1728.942,930.348s-6.45,11.607-4.557,20.628l50.424,1s3.3-9.609-8.048-12.253-27.016-10.776-27.016-10.776S1733.259,934.583,1728.942,930.348Z" transform="translate(-1723.898 -928.1)" fill="#37a3a5"/>
          <path id="Trazado_81550" data-name="Trazado 81550" d="M1724.326,956.516l50.423,1a10.614,10.614,0,0,0,.243-5.062l-51.14-1.016A24.553,24.553,0,0,0,1724.326,956.516Z" transform="translate(-1723.853 -933.641)" fill="#f7ead5"/>
          <path id="Trazado_81551" data-name="Trazado 81551" d="M1743.988,931.519a7,7,0,0,1,1.69-2.258,7.233,7.233,0,0,1,3.809-1.259,30.784,30.784,0,0,1,3.536-.179,7.612,7.612,0,0,1,4.416,1.06,1.23,1.23,0,0,1,.645,1.156,1.145,1.145,0,0,1-.718.711,5.746,5.746,0,0,1-3.286.088q-3.971-.7-7.867-1.762a16.212,16.212,0,0,1,.413,4.328,8.73,8.73,0,0,1-.959,3.944,3.253,3.253,0,0,1-1.172,1.282,1.722,1.722,0,0,1-1.678.062,1.818,1.818,0,0,1-.809-1.47,4.67,4.67,0,0,1,.3-1.711A24.437,24.437,0,0,1,1743.988,931.519Z" transform="translate(-1728.324 -927.822)" fill="none" stroke="#fff" stroke-linecap="round" stroke-linejoin="round" stroke-width="0.917"/>
        </g>
      </g>
      <path id="Trazado_81552" data-name="Trazado 81552" d="M1838.757,464.074l7.3,49.748,32.709,51.447-8.83,4.933L1830.8,531.4l-10.613-45.1Z" transform="translate(-1729.254 -348.054)" fill="#fac5c2"/>
      <path id="Trazado_81553" data-name="Trazado 81553" d="M1806.41,610.53l1.6,19.6-.29,212.287-27.008.871-8.131-191.958-4.356-.291L1748.19,843h-28.46l4.356-108.9-1.162-117.034,18.005-12.487Z" transform="translate(-1704.506 -382.668)" fill="#00223d"/>
      <path id="Trazado_81554" data-name="Trazado 81554" d="M1726.281,636.673l22.071-23.233,24.1.29" transform="translate(-1706.12 -384.852)" fill="none" stroke="#356493" stroke-linecap="round" stroke-linejoin="round" stroke-width="1.156"/>
      <path id="Trazado_81555" data-name="Trazado 81555" d="M1789.862,653.611l1.742-3.485.29-36.3,21.78.581,11.616,18.005" transform="translate(-1721.784 -384.947)" fill="none" stroke="#356493" stroke-linecap="round" stroke-linejoin="round" stroke-width="1.156"/>
      <path id="Trazado_81556" data-name="Trazado 81556" d="M1791.955,544.114a2.25,2.25,0,1,0-2.25,2.25A2.25,2.25,0,0,0,1791.955,544.114Z" transform="translate(-1721.19 -367.218)" fill="none" stroke="#356493" stroke-linecap="round" stroke-linejoin="round" stroke-width="1.156"/>
      <path id="Trazado_81557" data-name="Trazado 81557" d="M1747.179,405.105s-21.488,8.191-24.435,9.618c-21.225,10.281-23.216,60.029-23.216,60.029h17.909l-2.363,96.344s51.091,10.613,89.894-.663l-4.933-87.971s14.75-.249,25.744-6.218c0,0-17.577-50.411-25.338-56.38s-37.509-11.276-37.509-11.276Z" transform="translate(-1699.529 -333.526)" fill="#37a3a5"/>
      <path id="Trazado_81558" data-name="Trazado 81558" d="M1770.786,373.729,1763,400.312s-1.346,14.1,14.425,17.08c15.292,2.886,14.91-11.525,14.91-11.525l-1-4.78,1.463-15.9Z" transform="translate(-1715.159 -325.796)" fill="#fac5c2"/>
      <path id="Trazado_81559" data-name="Trazado 81559" d="M1771.553,378.589l1.114-3.8,6.862,2.656,6.484,3.376,8.508,8.855-.8,8.665C1789.234,397.69,1773.692,394.318,1771.553,378.589Z" transform="translate(-1717.273 -326.056)" fill="#d88080"/>
      <g id="Grupo_33122" data-name="Grupo 33122" transform="translate(48.981 0)">
        <path id="Trazado_81560" data-name="Trazado 81560" d="M1810.535,345.28c-1.528,12.177-7.6,36.107-19.843,35.347-12.886-.8-18.964-8.158-20.323-20.268,0,0-6.558,2.1-5.784-6.646.341-3.859,4.575-1.648,4.575-1.648s-6.214-32.009,13.936-33.883S1812.626,328.613,1810.535,345.28Z" transform="translate(-1764.522 -312.065)" fill="#fac5c2"/>
        <path id="Trazado_81561" data-name="Trazado 81561" d="M1793.642,353.142a3.653,3.653,0,0,0,1.089.558,1,1,0,0,0,1.081-.412,1.947,1.947,0,0,0-.207-1.971,4.693,4.693,0,0,0-3.051-1.748,10.017,10.017,0,0,0-3.482-.393,4.457,4.457,0,0,0-3.144,1.771.846.846,0,0,0-.2.456.535.535,0,0,0,.36.516,1.137,1.137,0,0,0,.586-.035A9.189,9.189,0,0,1,1793.642,353.142Z" transform="translate(-1769.747 -319.738)" fill="#242638"/>
        <path id="Trazado_81562" data-name="Trazado 81562" d="M1811.526,355.928a3.125,3.125,0,0,1-1.081.262.84.84,0,0,1-.8-.668,2.156,2.156,0,0,1,.726-1.84,4.059,4.059,0,0,1,3.083-.911,7.9,7.9,0,0,1,3.07.5,3.888,3.888,0,0,1,2.18,2.49.9.9,0,0,1,.038.487.534.534,0,0,1-.451.405.9.9,0,0,1-.488-.181A7.368,7.368,0,0,0,1811.526,355.928Z" transform="translate(-1775.63 -320.632)" fill="#242638"/>
        <path id="Trazado_81563" data-name="Trazado 81563" d="M1803.326,365.251c-.609,2.781.2,5.653.964,8.394a1.089,1.089,0,0,1,.007.828.937.937,0,0,1-.255.262,3.412,3.412,0,0,1-1.806.678c-.929.066-2.01-.208-2.69.43" transform="translate(-1773.15 -323.708)" fill="none" stroke="#242638" stroke-miterlimit="10" stroke-width="0.679"/>
        <path id="Trazado_81564" data-name="Trazado 81564" d="M1814.583,365.161c.281-2.056-.347-3.84-1.4-3.985s-2.14,1.406-2.421,3.462.347,3.84,1.4,3.984S1814.3,367.217,1814.583,365.161Z" transform="translate(-1775.896 -322.701)" fill="#242638"/>
        <path id="Trazado_81565" data-name="Trazado 81565" d="M1793.075,361.905c.281-2.056-.348-3.84-1.4-3.984s-2.14,1.406-2.421,3.462.348,3.841,1.4,3.984S1792.794,363.962,1793.075,361.905Z" transform="translate(-1770.598 -321.9)" fill="#242638"/>
        <path id="Trazado_81566" data-name="Trazado 81566" d="M1804.666,383.7s-8.142,1.2-15.555-1.715c0,0,2.364,6.3,7.436,6.587S1804.666,383.7,1804.666,383.7Z" transform="translate(-1770.58 -327.83)" fill="#fff"/>
        <path id="Trazado_81567" data-name="Trazado 81567" d="M1815.941,333.67c1.112-.636,2.5-1.274,2.682-2.544.173-1.225-.942-2.244-2.048-2.8s-2.382-.953-3.1-1.963c2.576-.181,3.923-3.5,3.109-5.954a8.467,8.467,0,0,0-4.571-4.749,20.719,20.719,0,0,0-6.561-1.573,78.624,78.624,0,0,0-12.719-.39c-3.56.179-7.506.49-10.3-1.723a7.98,7.98,0,0,0-2.466-1.749c-1.558-.457-3.214.744-3.84,2.241a10.073,10.073,0,0,0-.347,4.808c-1.652-.663-3.615-1.035-5.151-.136s-1.986,3.513-.436,4.388c.5.284,1.187.4,1.41.936.25.6-.273,1.212-.729,1.671a19.676,19.676,0,0,0,.06,27.819c1.7-4.31,4.08-8.32,5.94-12.564s3.21-8.871,2.674-13.474c7.727,6,18.047,7.776,27.8,7.063a2.988,2.988,0,0,1,2.135.37,2.927,2.927,0,0,1,.762,2.168l.568,8.729A10.677,10.677,0,0,1,1815.941,333.67Z" transform="translate(-1764.676 -310.127)" fill="#242638"/>
        <path id="Trazado_81568" data-name="Trazado 81568" d="M1771.9,353.869a95.08,95.08,0,0,0,8.028-27.3c-.114.966,3.585,2.474,4.244,2.811a36.6,36.6,0,0,0,7.653,2.892c7.028,1.771,14.082,1.323,21.238,1.514a4.857,4.857,0,0,1,2.824.678,1.733,1.733,0,0,1,.361,2.55" transform="translate(-1766.339 -314.178)" fill="none" stroke="#fff" stroke-linecap="round" stroke-linejoin="round" stroke-width="0.69"/>
        <path id="Trazado_81569" data-name="Trazado 81569" d="M1818.458,329.31c-3.6-2.145-8.086-1.824-12.27-1.59-6.15.343-12.554.3-18.146-2.281" transform="translate(-1770.316 -313.899)" fill="none" stroke="#fff" stroke-linecap="round" stroke-linejoin="round" stroke-width="0.69"/>
      </g>
      <rect id="Rectángulo_26606" data-name="Rectángulo 26606" width="12.002" height="10.634" rx="1.976" transform="translate(74.911 45.964) rotate(-169.629)" fill="none" stroke="#242638" stroke-miterlimit="10" stroke-width="0.855"/>
      <rect id="Rectángulo_26607" data-name="Rectángulo 26607" width="11.131" height="10.634" rx="1.903" transform="translate(90.876 48.886) rotate(-169.629)" fill="none" stroke="#242638" stroke-miterlimit="10" stroke-width="0.823"/>
      <line id="Línea_268" data-name="Línea 268" x2="7.934" y2="0.862" transform="translate(55.73 38.851)" fill="none" stroke="#242638" stroke-miterlimit="10" stroke-width="0.66"/>
      <path id="Trazado_81570" data-name="Trazado 81570" d="M1799.912,365.4s3.992-1.261,5.1,1.154" transform="translate(-1724.26 -323.664)" fill="none" stroke="#242638" stroke-miterlimit="10" stroke-width="0.66"/>
      <line id="Línea_269" data-name="Línea 269" x2="1.038" y2="0.316" transform="translate(91.765 44.603)" fill="none" stroke="#242638" stroke-miterlimit="10" stroke-width="0.66"/>
      <line id="Línea_270" data-name="Línea 270" x1="1.948" y1="27.278" transform="translate(98.559 121.658)" fill="none" stroke="#242638" stroke-linecap="round" stroke-linejoin="round" stroke-width="1.32"/>
      <path id="Trazado_81571" data-name="Trazado 81571" d="M1734.977,497.079l4.975,28.521,47.094,36.482,22.552,1.326,10.944,4.312-4.975,5.306h-36.482l-61.981-29.867a4.359,4.359,0,0,1-2.406-3.2l-7.25-42.554Z" transform="translate(-1701.48 -356.185)" fill="#fac5c2"/>
      <path id="Trazado_81572" data-name="Trazado 81572" d="M1743.976,488.839l3.648.663.663-25.869" transform="translate(-1710.479 -347.945)" fill="none" stroke="#242638" stroke-linecap="round" stroke-linejoin="round" stroke-width="1.32"/>
    </g>
    <g id="Grupo_33139" data-name="Grupo 33139" transform="translate(224.979 0)">
      <rect id="Rectángulo_26608" data-name="Rectángulo 26608" width="218.89" height="557.173" fill="#d4dee8"/>
      <rect id="Rectángulo_26609" data-name="Rectángulo 26609" width="196.439" height="454.362" transform="translate(11.225 13.929)" fill="none" stroke="#242638" stroke-miterlimit="10" stroke-width="2.25"/>
      <g id="Grupo_33124" data-name="Grupo 33124" transform="translate(16.276 21.557)">
        <rect id="Rectángulo_26610" data-name="Rectángulo 26610" width="184.653" height="18.904" fill="#242638"/>
        <rect id="Rectángulo_26611" data-name="Rectángulo 26611" width="4.988" height="14.095" transform="translate(175.737 1.99)" fill="#37a3a5"/>
        <rect id="Rectángulo_26612" data-name="Rectángulo 26612" width="4.988" height="14.095" transform="translate(169.502 1.99)" fill="#37a3a5"/>
        <rect id="Rectángulo_26613" data-name="Rectángulo 26613" width="4.988" height="14.095" transform="translate(163.185 1.99)" fill="#37a3a5"/>
        <rect id="Rectángulo_26614" data-name="Rectángulo 26614" width="4.987" height="14.095" transform="translate(156.871 1.99)" fill="#37a3a5"/>
        <rect id="Rectángulo_26615" data-name="Rectángulo 26615" width="4.988" height="14.095" transform="translate(150.42 1.99)" fill="#37a3a5"/>
        <rect id="Rectángulo_26616" data-name="Rectángulo 26616" width="4.988" height="14.095" transform="translate(144.102 1.99)" fill="#37a3a5"/>
        <rect id="Rectángulo_26617" data-name="Rectángulo 26617" width="4.988" height="14.095" transform="translate(137.788 1.99)" fill="#37a3a5"/>
        <rect id="Rectángulo_26618" data-name="Rectángulo 26618" width="39.358" height="5.224" rx="2.612" transform="translate(70.999 3.98)" fill="#fff"/>
        <path id="Trazado_81573" data-name="Trazado 81573" d="M2054.566,260.786c0-2.565-1.759-4.643-3.929-4.643s-3.929,2.079-3.929,4.643,1.759,4.643,3.929,4.643S2054.566,263.35,2054.566,260.786Z" transform="translate(-2013.262 -251.002)" fill="#21587b"/>
        <path id="Trazado_81574" data-name="Trazado 81574" d="M2039.544,260.786c0-2.565-1.759-4.643-3.929-4.643s-3.929,2.079-3.929,4.643,1.759,4.643,3.929,4.643S2039.544,263.35,2039.544,260.786Z" transform="translate(-2009.561 -251.002)" fill="#21587b"/>
        <path id="Trazado_81575" data-name="Trazado 81575" d="M2024.522,260.786c0-2.565-1.759-4.643-3.929-4.643s-3.929,2.079-3.929,4.643,1.759,4.643,3.929,4.643S2024.522,263.35,2024.522,260.786Z" transform="translate(-2005.86 -251.002)" fill="#21587b"/>
      </g>
      <g id="Grupo_33125" data-name="Grupo 33125" transform="translate(16.276 45.934)">
        <rect id="Rectángulo_26619" data-name="Rectángulo 26619" width="184.653" height="18.904" fill="#242638"/>
        <rect id="Rectángulo_26620" data-name="Rectángulo 26620" width="4.988" height="14.095" transform="translate(175.737 1.99)" fill="#37a3a5"/>
        <rect id="Rectángulo_26621" data-name="Rectángulo 26621" width="4.988" height="14.095" transform="translate(169.502 1.99)" fill="#37a3a5"/>
        <rect id="Rectángulo_26622" data-name="Rectángulo 26622" width="4.988" height="14.095" transform="translate(163.185 1.99)" fill="#37a3a5"/>
        <rect id="Rectángulo_26623" data-name="Rectángulo 26623" width="4.987" height="14.095" transform="translate(156.871 1.99)" fill="#37a3a5"/>
        <rect id="Rectángulo_26624" data-name="Rectángulo 26624" width="4.988" height="14.095" transform="translate(150.42 1.99)" fill="#37a3a5"/>
        <rect id="Rectángulo_26625" data-name="Rectángulo 26625" width="39.358" height="5.223" rx="2.612" transform="translate(70.999 3.98)" fill="#fff"/>
        <ellipse id="Elipse_3406" data-name="Elipse 3406" cx="3.929" cy="4.643" rx="3.929" ry="4.643" transform="translate(33.446 5.141)" fill="#21587b"/>
        <ellipse id="Elipse_3407" data-name="Elipse 3407" cx="3.929" cy="4.643" rx="3.929" ry="4.643" transform="translate(22.125 5.141)" fill="#21587b"/>
        <ellipse id="Elipse_3408" data-name="Elipse 3408" cx="3.929" cy="4.643" rx="3.929" ry="4.643" transform="translate(10.804 5.141)" fill="#21587b"/>
      </g>
      <g id="Grupo_33126" data-name="Grupo 33126" transform="translate(16.276 69.564)">
        <rect id="Rectángulo_26626" data-name="Rectángulo 26626" width="184.653" height="18.904" fill="#242638"/>
        <rect id="Rectángulo_26627" data-name="Rectángulo 26627" width="4.988" height="14.095" transform="translate(175.737 1.99)" fill="#37a3a5"/>
        <rect id="Rectángulo_26628" data-name="Rectángulo 26628" width="4.988" height="14.095" transform="translate(169.502 1.99)" fill="#37a3a5"/>
        <rect id="Rectángulo_26629" data-name="Rectángulo 26629" width="4.988" height="14.095" transform="translate(163.185 1.99)" fill="#37a3a5"/>
        <rect id="Rectángulo_26630" data-name="Rectángulo 26630" width="39.358" height="5.223" rx="2.612" transform="translate(70.999 3.98)" fill="#fff"/>
        <ellipse id="Elipse_3409" data-name="Elipse 3409" cx="3.929" cy="4.643" rx="3.929" ry="4.643" transform="translate(33.446 5.141)" fill="#21587b"/>
        <ellipse id="Elipse_3410" data-name="Elipse 3410" cx="3.929" cy="4.643" rx="3.929" ry="4.643" transform="translate(22.125 5.141)" fill="#21587b"/>
        <ellipse id="Elipse_3411" data-name="Elipse 3411" cx="3.929" cy="4.643" rx="3.929" ry="4.643" transform="translate(10.804 5.141)" fill="#21587b"/>
      </g>
      <g id="Grupo_33127" data-name="Grupo 33127" transform="translate(16.276 178.097)">
        <rect id="Rectángulo_26631" data-name="Rectángulo 26631" width="184.653" height="18.904" fill="#242638"/>
        <rect id="Rectángulo_26632" data-name="Rectángulo 26632" width="4.988" height="14.095" transform="translate(175.737 1.99)" fill="#37a3a5"/>
        <rect id="Rectángulo_26633" data-name="Rectángulo 26633" width="4.988" height="14.095" transform="translate(169.502 1.99)" fill="#37a3a5"/>
        <rect id="Rectángulo_26634" data-name="Rectángulo 26634" width="4.988" height="14.095" transform="translate(163.185 1.99)" fill="#37a3a5"/>
        <rect id="Rectángulo_26635" data-name="Rectángulo 26635" width="4.987" height="14.095" transform="translate(156.871 1.99)" fill="#37a3a5"/>
        <rect id="Rectángulo_26636" data-name="Rectángulo 26636" width="4.988" height="14.095" transform="translate(150.42 1.99)" fill="#37a3a5"/>
        <rect id="Rectángulo_26637" data-name="Rectángulo 26637" width="4.988" height="14.095" transform="translate(144.102 1.99)" fill="#37a3a5"/>
        <rect id="Rectángulo_26638" data-name="Rectángulo 26638" width="4.988" height="14.095" transform="translate(137.788 1.99)" fill="#37a3a5"/>
        <rect id="Rectángulo_26639" data-name="Rectángulo 26639" width="39.358" height="5.223" rx="2.612" transform="translate(70.999 3.98)" fill="#fff"/>
        <ellipse id="Elipse_3412" data-name="Elipse 3412" cx="3.929" cy="4.643" rx="3.929" ry="4.643" transform="translate(33.446 5.141)" fill="#21587b"/>
        <ellipse id="Elipse_3413" data-name="Elipse 3413" cx="3.929" cy="4.643" rx="3.929" ry="4.643" transform="translate(22.125 5.141)" fill="#356493"/>
        <ellipse id="Elipse_3414" data-name="Elipse 3414" cx="3.929" cy="4.643" rx="3.929" ry="4.643" transform="translate(10.804 5.141)" fill="#21587b"/>
      </g>
      <g id="Grupo_33128" data-name="Grupo 33128" transform="translate(16.276 202.473)">
        <rect id="Rectángulo_26640" data-name="Rectángulo 26640" width="184.653" height="18.904" fill="#242638"/>
        <rect id="Rectángulo_26641" data-name="Rectángulo 26641" width="4.988" height="14.095" transform="translate(175.737 1.99)" fill="#37a3a5"/>
        <rect id="Rectángulo_26642" data-name="Rectángulo 26642" width="4.988" height="14.095" transform="translate(169.502 1.99)" fill="#37a3a5"/>
        <rect id="Rectángulo_26643" data-name="Rectángulo 26643" width="4.988" height="14.095" transform="translate(163.185 1.99)" fill="#37a3a5"/>
        <rect id="Rectángulo_26644" data-name="Rectángulo 26644" width="4.987" height="14.095" transform="translate(156.871 1.99)" fill="#37a3a5"/>
        <rect id="Rectángulo_26645" data-name="Rectángulo 26645" width="4.988" height="14.095" transform="translate(150.42 1.99)" fill="#37a3a5"/>
        <rect id="Rectángulo_26646" data-name="Rectángulo 26646" width="39.358" height="5.224" rx="2.612" transform="translate(70.999 3.98)" fill="#fff"/>
        <ellipse id="Elipse_3415" data-name="Elipse 3415" cx="3.929" cy="4.643" rx="3.929" ry="4.643" transform="translate(33.446 5.141)" fill="#21587b"/>
        <ellipse id="Elipse_3416" data-name="Elipse 3416" cx="3.929" cy="4.643" rx="3.929" ry="4.643" transform="translate(22.125 5.141)" fill="#356493"/>
        <ellipse id="Elipse_3417" data-name="Elipse 3417" cx="3.929" cy="4.643" rx="3.929" ry="4.643" transform="translate(10.804 5.141)" fill="#21587b"/>
      </g>
      <g id="Grupo_33129" data-name="Grupo 33129" transform="translate(16.276 226.103)">
        <rect id="Rectángulo_26647" data-name="Rectángulo 26647" width="184.653" height="18.904" fill="#242638"/>
        <rect id="Rectángulo_26648" data-name="Rectángulo 26648" width="4.988" height="14.095" transform="translate(175.737 1.99)" fill="#37a3a5"/>
        <rect id="Rectángulo_26649" data-name="Rectángulo 26649" width="4.988" height="14.095" transform="translate(169.502 1.99)" fill="#37a3a5"/>
        <rect id="Rectángulo_26650" data-name="Rectángulo 26650" width="4.988" height="14.095" transform="translate(163.185 1.99)" fill="#37a3a5"/>
        <rect id="Rectángulo_26651" data-name="Rectángulo 26651" width="39.358" height="5.224" rx="2.612" transform="translate(70.999 3.98)" fill="#fff"/>
        <path id="Trazado_81576" data-name="Trazado 81576" d="M2054.566,532.2c0-2.564-1.759-4.643-3.929-4.643s-3.929,2.079-3.929,4.643,1.759,4.643,3.929,4.643S2054.566,534.761,2054.566,532.2Z" transform="translate(-2013.262 -522.413)" fill="#21587b"/>
        <path id="Trazado_81577" data-name="Trazado 81577" d="M2039.544,532.2c0-2.564-1.759-4.643-3.929-4.643s-3.929,2.079-3.929,4.643,1.759,4.643,3.929,4.643S2039.544,534.761,2039.544,532.2Z" transform="translate(-2009.561 -522.413)" fill="#21587b"/>
        <path id="Trazado_81578" data-name="Trazado 81578" d="M2024.522,532.2c0-2.564-1.759-4.643-3.929-4.643s-3.929,2.079-3.929,4.643,1.759,4.643,3.929,4.643S2024.522,534.761,2024.522,532.2Z" transform="translate(-2005.86 -522.413)" fill="#21587b"/>
      </g>
      <g id="Grupo_33130" data-name="Grupo 33130" transform="translate(16.276 312.083)">
        <rect id="Rectángulo_26652" data-name="Rectángulo 26652" width="184.653" height="18.904" fill="#242638"/>
        <rect id="Rectángulo_26653" data-name="Rectángulo 26653" width="4.988" height="14.095" transform="translate(175.737 1.99)" fill="#37a3a5"/>
        <rect id="Rectángulo_26654" data-name="Rectángulo 26654" width="4.988" height="14.095" transform="translate(169.502 1.99)" fill="#37a3a5"/>
        <rect id="Rectángulo_26655" data-name="Rectángulo 26655" width="4.988" height="14.095" transform="translate(163.185 1.99)" fill="#37a3a5"/>
        <rect id="Rectángulo_26656" data-name="Rectángulo 26656" width="4.987" height="14.095" transform="translate(156.871 1.99)" fill="#37a3a5"/>
        <rect id="Rectángulo_26657" data-name="Rectángulo 26657" width="4.988" height="14.095" transform="translate(150.42 1.99)" fill="#37a3a5"/>
        <rect id="Rectángulo_26658" data-name="Rectángulo 26658" width="4.988" height="14.095" transform="translate(144.102 1.99)" fill="#37a3a5"/>
        <rect id="Rectángulo_26659" data-name="Rectángulo 26659" width="4.988" height="14.095" transform="translate(137.788 1.99)" fill="#37a3a5"/>
        <rect id="Rectángulo_26660" data-name="Rectángulo 26660" width="39.358" height="5.224" rx="2.612" transform="translate(70.999 3.98)" fill="#fff"/>
        <ellipse id="Elipse_3418" data-name="Elipse 3418" cx="3.929" cy="4.643" rx="3.929" ry="4.643" transform="translate(33.446 5.141)" fill="#21587b"/>
        <ellipse id="Elipse_3419" data-name="Elipse 3419" cx="3.929" cy="4.643" rx="3.929" ry="4.643" transform="translate(22.125 5.141)" fill="#21587b"/>
        <ellipse id="Elipse_3420" data-name="Elipse 3420" cx="3.929" cy="4.643" rx="3.929" ry="4.643" transform="translate(10.804 5.141)" fill="#21587b"/>
      </g>
      <g id="Grupo_33131" data-name="Grupo 33131" transform="translate(16.276 336.46)">
        <rect id="Rectángulo_26661" data-name="Rectángulo 26661" width="184.653" height="18.904" fill="#242638"/>
        <rect id="Rectángulo_26662" data-name="Rectángulo 26662" width="4.988" height="14.095" transform="translate(175.737 1.99)" fill="#37a3a5"/>
        <rect id="Rectángulo_26663" data-name="Rectángulo 26663" width="4.988" height="14.095" transform="translate(169.502 1.99)" fill="#37a3a5"/>
        <rect id="Rectángulo_26664" data-name="Rectángulo 26664" width="4.988" height="14.095" transform="translate(163.185 1.99)" fill="#37a3a5"/>
        <rect id="Rectángulo_26665" data-name="Rectángulo 26665" width="4.987" height="14.095" transform="translate(156.871 1.99)" fill="#37a3a5"/>
        <rect id="Rectángulo_26666" data-name="Rectángulo 26666" width="4.988" height="14.095" transform="translate(150.42 1.99)" fill="#37a3a5"/>
        <rect id="Rectángulo_26667" data-name="Rectángulo 26667" width="39.358" height="5.223" rx="2.612" transform="translate(70.999 3.98)" fill="#fff"/>
        <path id="Trazado_81579" data-name="Trazado 81579" d="M2054.566,678.628c0-2.564-1.759-4.643-3.929-4.643s-3.929,2.079-3.929,4.643,1.759,4.643,3.929,4.643S2054.566,681.193,2054.566,678.628Z" transform="translate(-2013.262 -668.845)" fill="#21587b"/>
        <path id="Trazado_81580" data-name="Trazado 81580" d="M2039.544,678.628c0-2.564-1.759-4.643-3.929-4.643s-3.929,2.079-3.929,4.643,1.759,4.643,3.929,4.643S2039.544,681.193,2039.544,678.628Z" transform="translate(-2009.561 -668.845)" fill="#21587b"/>
        <path id="Trazado_81581" data-name="Trazado 81581" d="M2024.522,678.628c0-2.564-1.759-4.643-3.929-4.643s-3.929,2.079-3.929,4.643,1.759,4.643,3.929,4.643S2024.522,681.193,2024.522,678.628Z" transform="translate(-2005.86 -668.845)" fill="#21587b"/>
      </g>
      <g id="Grupo_33132" data-name="Grupo 33132" transform="translate(16.276 360.09)">
        <rect id="Rectángulo_26668" data-name="Rectángulo 26668" width="184.653" height="18.904" fill="#242638"/>
        <rect id="Rectángulo_26669" data-name="Rectángulo 26669" width="4.988" height="14.095" transform="translate(175.737 1.99)" fill="#37a3a5"/>
        <rect id="Rectángulo_26670" data-name="Rectángulo 26670" width="4.988" height="14.095" transform="translate(169.502 1.99)" fill="#37a3a5"/>
        <rect id="Rectángulo_26671" data-name="Rectángulo 26671" width="4.988" height="14.095" transform="translate(163.185 1.99)" fill="#37a3a5"/>
        <rect id="Rectángulo_26672" data-name="Rectángulo 26672" width="39.358" height="5.223" rx="2.612" transform="translate(70.999 3.98)" fill="#fff"/>
        <path id="Trazado_81582" data-name="Trazado 81582" d="M2054.566,709.983c0-2.565-1.759-4.643-3.929-4.643s-3.929,2.078-3.929,4.643,1.759,4.643,3.929,4.643S2054.566,712.547,2054.566,709.983Z" transform="translate(-2013.262 -700.199)" fill="#21587b"/>
        <path id="Trazado_81583" data-name="Trazado 81583" d="M2039.544,709.983c0-2.565-1.759-4.643-3.929-4.643s-3.929,2.078-3.929,4.643,1.759,4.643,3.929,4.643S2039.544,712.547,2039.544,709.983Z" transform="translate(-2009.561 -700.199)" fill="#21587b"/>
        <path id="Trazado_81584" data-name="Trazado 81584" d="M2024.522,709.983c0-2.565-1.759-4.643-3.929-4.643s-3.929,2.078-3.929,4.643,1.759,4.643,3.929,4.643S2024.522,712.547,2024.522,709.983Z" transform="translate(-2005.86 -700.199)" fill="#37a3a5"/>
      </g>
      <g id="Grupo_33133" data-name="Grupo 33133" transform="translate(16.276 107.787)">
        <rect id="Rectángulo_26673" data-name="Rectángulo 26673" width="184.653" height="41.125" fill="#242638"/>
      </g>
      <g id="Grupo_33134" data-name="Grupo 33134" transform="translate(16.276 257.693)">
        <rect id="Rectángulo_26674" data-name="Rectángulo 26674" width="184.653" height="41.125" fill="#242638"/>
      </g>
      <g id="Grupo_33135" data-name="Grupo 33135" transform="translate(16.276 396.323)">
        <rect id="Rectángulo_26675" data-name="Rectángulo 26675" width="184.653" height="41.125" fill="#242638"/>
      </g>
      <g id="Grupo_33136" data-name="Grupo 33136" transform="translate(166.833 486.2)">
        <rect id="Rectángulo_26676" data-name="Rectángulo 26676" width="36.201" height="4.477" rx="2.239" fill="#242638"/>
        <rect id="Rectángulo_26677" data-name="Rectángulo 26677" width="36.201" height="4.477" rx="2.239" transform="translate(0 9.203)" fill="#242638"/>
        <rect id="Rectángulo_26678" data-name="Rectángulo 26678" width="36.201" height="4.477" rx="2.239" transform="translate(0 23.133)" fill="#242638"/>
        <rect id="Rectángulo_26679" data-name="Rectángulo 26679" width="36.201" height="4.477" rx="2.239" transform="translate(0 32.336)" fill="#242638"/>
        <rect id="Rectángulo_26680" data-name="Rectángulo 26680" width="36.201" height="4.477" rx="2.239" transform="translate(0 47.012)" fill="#242638"/>
        <rect id="Rectángulo_26681" data-name="Rectángulo 26681" width="36.201" height="4.477" rx="2.239" transform="translate(0 56.215)" fill="#242638"/>
      </g>
      <g id="Grupo_33137" data-name="Grupo 33137" transform="translate(91.695 486.2)">
        <path id="Rectángulo_26682" data-name="Rectángulo 26682" d="M2.239,0H33.962A2.239,2.239,0,0,1,36.2,2.239v0a2.239,2.239,0,0,1-2.239,2.239H2.239A2.239,2.239,0,0,1,0,2.239v0A2.239,2.239,0,0,1,2.239,0Z" fill="#242638"/>
        <path id="Rectángulo_26683" data-name="Rectángulo 26683" d="M2.239,0H33.962A2.239,2.239,0,0,1,36.2,2.239v0a2.239,2.239,0,0,1-2.239,2.239H2.239A2.239,2.239,0,0,1,0,2.239v0A2.239,2.239,0,0,1,2.239,0Z" transform="translate(0 9.203)" fill="#242638"/>
        <path id="Rectángulo_26684" data-name="Rectángulo 26684" d="M2.239,0H33.962A2.239,2.239,0,0,1,36.2,2.239v0a2.239,2.239,0,0,1-2.239,2.239H2.239A2.239,2.239,0,0,1,0,2.239v0A2.239,2.239,0,0,1,2.239,0Z" transform="translate(0 23.133)" fill="#242638"/>
        <path id="Rectángulo_26685" data-name="Rectángulo 26685" d="M2.239,0H33.962A2.239,2.239,0,0,1,36.2,2.239v0a2.239,2.239,0,0,1-2.239,2.239H2.239A2.239,2.239,0,0,1,0,2.239v0A2.239,2.239,0,0,1,2.239,0Z" transform="translate(0 32.336)" fill="#242638"/>
        <path id="Rectángulo_26686" data-name="Rectángulo 26686" d="M2.239,0H33.962A2.239,2.239,0,0,1,36.2,2.239v0a2.239,2.239,0,0,1-2.239,2.239H2.239A2.239,2.239,0,0,1,0,2.239v0A2.239,2.239,0,0,1,2.239,0Z" transform="translate(0 47.012)" fill="#242638"/>
        <path id="Rectángulo_26687" data-name="Rectángulo 26687" d="M2.239,0H33.962A2.239,2.239,0,0,1,36.2,2.239v0a2.239,2.239,0,0,1-2.239,2.239H2.239A2.239,2.239,0,0,1,0,2.239v0A2.239,2.239,0,0,1,2.239,0Z" transform="translate(0 56.215)" fill="#242638"/>
      </g>
      <g id="Grupo_33138" data-name="Grupo 33138" transform="translate(16.978 486.2)">
        <path id="Rectángulo_26688" data-name="Rectángulo 26688" d="M2.239,0H33.962A2.239,2.239,0,0,1,36.2,2.239v0a2.239,2.239,0,0,1-2.239,2.239H2.239A2.239,2.239,0,0,1,0,2.239v0A2.239,2.239,0,0,1,2.239,0Z" fill="#242638"/>
        <path id="Rectángulo_26689" data-name="Rectángulo 26689" d="M2.239,0H33.962A2.239,2.239,0,0,1,36.2,2.239v0a2.239,2.239,0,0,1-2.239,2.239H2.239A2.239,2.239,0,0,1,0,2.239v0A2.239,2.239,0,0,1,2.239,0Z" transform="translate(0 9.203)" fill="#242638"/>
        <path id="Rectángulo_26690" data-name="Rectángulo 26690" d="M2.239,0H33.962A2.239,2.239,0,0,1,36.2,2.239v0a2.239,2.239,0,0,1-2.239,2.239H2.239A2.239,2.239,0,0,1,0,2.239v0A2.239,2.239,0,0,1,2.239,0Z" transform="translate(0 23.133)" fill="#242638"/>
        <path id="Rectángulo_26691" data-name="Rectángulo 26691" d="M2.239,0H33.962A2.239,2.239,0,0,1,36.2,2.239v0a2.239,2.239,0,0,1-2.239,2.239H2.239A2.239,2.239,0,0,1,0,2.239v0A2.239,2.239,0,0,1,2.239,0Z" transform="translate(0 32.336)" fill="#242638"/>
        <path id="Rectángulo_26692" data-name="Rectángulo 26692" d="M2.239,0H33.962A2.239,2.239,0,0,1,36.2,2.239v0a2.239,2.239,0,0,1-2.239,2.239H2.239A2.239,2.239,0,0,1,0,2.239v0A2.239,2.239,0,0,1,2.239,0Z" transform="translate(0 47.012)" fill="#242638"/>
        <path id="Rectángulo_26693" data-name="Rectángulo 26693" d="M2.239,0H33.962A2.239,2.239,0,0,1,36.2,2.239v0a2.239,2.239,0,0,1-2.239,2.239H2.239A2.239,2.239,0,0,1,0,2.239v0A2.239,2.239,0,0,1,2.239,0Z" transform="translate(0 56.215)" fill="#242638"/>
      </g>
    </g>
    <path id="Trazado_81585" data-name="Trazado 81585" d="M1936.725,724.546c9.618,0,27.858-1.327,27.858,23.547s-2.984,66.994,12.935,66.994,15.256-22.884,15.256-64.34,1.327-39.8,6.633-39.8" transform="translate(-1744.911 -341.489)" fill="none" stroke="#37a3a5" stroke-miterlimit="10" stroke-width="2.64"/>
    <rect id="Rectángulo_26694" data-name="Rectángulo 26694" width="11.939" height="269.3" transform="translate(202.426 287.541)" fill="#d4dee8"/>
    <path id="Trazado_81586" data-name="Trazado 81586" d="M1936.725,732.508c7.627,0,20.563.332,20.563,14.593s-11.276,129.675,18.572,129.675,30.18-35.818,30.18-78.933-3.317-86.892,4.975-86.892" transform="translate(-1744.911 -341.492)" fill="none" stroke="#21587b" stroke-miterlimit="10" stroke-width="2.64"/>
    <rect id="Rectángulo_26695" data-name="Rectángulo 26695" width="11.939" height="269.3" transform="translate(81.374 287.541)" fill="#d4dee8"/>
    <rect id="Rectángulo_26696" data-name="Rectángulo 26696" width="23.216" height="141.947" transform="translate(217.682 284.225) rotate(90)" fill="#d4dee8"/>
    <path id="Trazado_81587" data-name="Trazado 81587" d="M1955.033,591.913c14.426,0,11.939,12.436,11.939,43.778s-7.13,43.031-32.668,43.031" transform="translate(-1744.315 -312.166)" fill="none" stroke="#37a3a5" stroke-miterlimit="10" stroke-width="2.64"/>
    <rect id="Rectángulo_26697" data-name="Rectángulo 26697" width="12.271" height="127.354" transform="translate(210.717 402.624) rotate(90)" fill="#d4dee8"/>
    <g id="Grupo_33141" data-name="Grupo 33141" transform="translate(75.771 209.839)">
      <g id="Grupo_33140" data-name="Grupo 33140" transform="translate(0)">
        <path id="Trazado_81588" data-name="Trazado 81588" d="M1949.316,499.152l-100.867,1.384-12.967,73.716,100.2-.393Z" transform="translate(-1795.74 -499.152)" fill="#242638"/>
        <rect id="Rectángulo_26698" data-name="Rectángulo 26698" width="64.263" height="6.381" transform="translate(0 68.808) rotate(-0.786)" fill="#242638"/>
      </g>
      <path id="Trazado_81589" data-name="Trazado 81589" d="M1922.786,539.091a8.659,8.659,0,1,0-8.54,8.778A8.66,8.66,0,0,0,1922.786,539.091Z" transform="translate(-1812.982 -506.887)" fill="#fff"/>
    </g>
    <g id="Grupo_33142" data-name="Grupo 33142" transform="translate(102.765 378.248)">
      <rect id="Rectángulo_26699" data-name="Rectángulo 26699" width="93.028" height="24.376" fill="#a9bdd2"/>
      <path id="Trazado_81590" data-name="Trazado 81590" d="M1902.584,742.846h-73.13a4.74,4.74,0,0,1-4.726-4.726h0a4.74,4.74,0,0,1,4.726-4.726h73.13a4.739,4.739,0,0,1,4.725,4.726h0A4.739,4.739,0,0,1,1902.584,742.846Z" transform="translate(-1820.085 -725.269)" fill="#242638"/>
      <circle id="Elipse_3421" data-name="Elipse 3421" cx="3.151" cy="3.151" r="3.151" transform="translate(77.565 9.784)" fill="#21587b"/>
      <circle id="Elipse_3422" data-name="Elipse 3422" cx="3.151" cy="3.151" r="3.151" transform="translate(69.481 9.784)" fill="#21587b"/>
      <path id="Trazado_81591" data-name="Trazado 81591" d="M1906.006,738.745a3.151,3.151,0,1,0-3.151,3.151A3.15,3.15,0,0,0,1906.006,738.745Z" transform="translate(-1838.556 -725.811)" fill="#21587b"/>
      <path id="Trazado_81592" data-name="Trazado 81592" d="M1895.279,738.745a3.151,3.151,0,1,0-3.151,3.151A3.15,3.15,0,0,0,1895.279,738.745Z" transform="translate(-1835.914 -725.811)" fill="#21587b"/>
      <circle id="Elipse_3423" data-name="Elipse 3423" cx="3.151" cy="3.151" r="3.151" transform="translate(44.856 9.784)" fill="#21587b"/>
      <circle id="Elipse_3424" data-name="Elipse 3424" cx="3.151" cy="3.151" r="3.151" transform="translate(36.772 9.784)" fill="#21587b"/>
    </g>
    <g id="Grupo_33143" data-name="Grupo 33143" transform="translate(102.895 352.711)">
      <rect id="Rectángulo_26700" data-name="Rectángulo 26700" width="93.028" height="24.376" fill="#a9bdd2"/>
      <path id="Trazado_81593" data-name="Trazado 81593" d="M1902.755,708.961h-73.129a4.74,4.74,0,0,1-4.726-4.726h0a4.74,4.74,0,0,1,4.726-4.726h73.129a4.74,4.74,0,0,1,4.726,4.726h0A4.74,4.74,0,0,1,1902.755,708.961Z" transform="translate(-1820.257 -691.384)" fill="#242638"/>
      <path id="Trazado_81594" data-name="Trazado 81594" d="M1927.961,704.86a3.151,3.151,0,1,0-3.151,3.151A3.151,3.151,0,0,0,1927.961,704.86Z" transform="translate(-1844.095 -691.926)" fill="#37a3a5"/>
      <circle id="Elipse_3425" data-name="Elipse 3425" cx="3.151" cy="3.151" r="3.151" transform="translate(69.481 9.784)" fill="#37a3a5"/>
      <path id="Trazado_81595" data-name="Trazado 81595" d="M1906.178,704.86a3.151,3.151,0,1,0-3.15,3.151A3.151,3.151,0,0,0,1906.178,704.86Z" transform="translate(-1838.728 -691.926)" fill="#37a3a5"/>
      <path id="Trazado_81596" data-name="Trazado 81596" d="M1895.451,704.86a3.151,3.151,0,1,0-3.151,3.151A3.151,3.151,0,0,0,1895.451,704.86Z" transform="translate(-1836.085 -691.926)" fill="#37a3a5"/>
      <circle id="Elipse_3426" data-name="Elipse 3426" cx="3.151" cy="3.151" r="3.151" transform="translate(44.856 9.784)" fill="#37a3a5"/>
      <circle id="Elipse_3427" data-name="Elipse 3427" cx="3.151" cy="3.151" r="3.151" transform="translate(36.772 9.784)" fill="#37a3a5"/>
    </g>
    <line id="Línea_271" data-name="Línea 271" x2="93.028" transform="translate(102.765 378.082)" fill="none" stroke="#242638" stroke-miterlimit="10" stroke-width="2.64"/>
    <g id="Grupo_57064" data-name="Grupo 57064" transform="translate(390.407 180.878)">
      <path id="Trazado_123883" data-name="Trazado 123883" d="M2587.612,1077.9c-16.69-9.575-33.58-24.872-43-41.637a3.177,3.177,0,0,1-.425-1.629v-55.7a3.277,3.277,0,0,1,2.243-3.145l41.751-14.378a3.2,3.2,0,0,1,2.166,0l41.751,14.378a3.279,3.279,0,0,1,2.243,3.145v55.7a3.18,3.18,0,0,1-.427,1.629c-9.417,16.765-26.307,32.062-43,41.637A3.245,3.245,0,0,1,2587.612,1077.9Z" transform="translate(-2544.189 -961.228)" fill="#37a3a5" fill-rule="evenodd"/>
      <path id="Trazado_123885" data-name="Trazado 123885" d="M2546.125,1036.751c12.379,22.082,35.042,37.016,43.9,41.9V962.522l-42.078,14.491a3.279,3.279,0,0,0-2.244,3.145v54.966A3.192,3.192,0,0,0,2546.125,1036.751Z" transform="translate(-2544.945 -961.876)" fill="#37a3a5" fill-rule="evenodd"/>
      <path id="Trazado_123886" data-name="Trazado 123886" d="M2596.952,977.167l35.16,12.108a3.28,3.28,0,0,1,2.244,3.146v48.168a3.187,3.187,0,0,1-.475,1.713c-8.481,14.108-22.6,26.961-36.534,35.45l-.395.24c-14.253-8.681-28.286-21.311-36.928-35.69a3.178,3.178,0,0,1-.475-1.713V992.42a3.278,3.278,0,0,1,2.243-3.146Z" transform="translate(-2551.875 -969.203)" fill="#fff" fill-rule="evenodd"/>
      <path id="Trazado_123887" data-name="Trazado 123887" d="M2597.712,978.774l-34.4,11.847a3.278,3.278,0,0,0-2.242,3.145v47.42a3.189,3.189,0,0,0,.476,1.716c8.215,13.64,22.374,26.609,36.168,35.005Z" transform="translate(-2552.634 -970.008)" fill="#00223d" fill-rule="evenodd"/>
      <path id="Trazado_123888" data-name="Trazado 123888" d="M2671.053,1041.186v-47.42a3.278,3.278,0,0,0-2.242-3.145l-34.4-11.847v99.134h0c13.793-8.4,27.952-21.366,36.167-35.006A3.2,3.2,0,0,0,2671.053,1041.186Z" transform="translate(-2589.332 -970.008)" fill="#00223d" fill-rule="evenodd"/>
      <path id="Trazado_123889" data-name="Trazado 123889" d="M2622.927,1009.987a11.491,11.491,0,0,1,11.464,11.465v8.946a2.292,2.292,0,0,1-2.292,2.293h-18.345a2.293,2.293,0,0,1-2.292-2.293v-8.946a11.491,11.491,0,0,1,11.466-11.465Zm0,4.587a6.9,6.9,0,0,0-6.879,6.879v6.653h13.757v-6.653a6.9,6.9,0,0,0-6.878-6.879Z" transform="translate(-2577.849 -985.625)" fill-rule="evenodd" fill="url(#linear-gradient)"/>
      <path id="Trazado_123890" data-name="Trazado 123890" d="M2634.408,1045.174H2649.7a3.066,3.066,0,0,1,3.058,3.057v28.67a3.066,3.066,0,0,1-3.058,3.057h-15.288Z" transform="translate(-2589.332 -1003.232)" fill-rule="evenodd" fill="url(#linear-gradient)"/>
      <path id="Trazado_123891" data-name="Trazado 123891" d="M2600.75,1045.174h15.287v34.785H2600.75a3.065,3.065,0,0,1-3.057-3.057v-28.67A3.065,3.065,0,0,1,2600.75,1045.174Z" transform="translate(-2570.961 -1003.232)" fill-rule="evenodd" fill="url(#linear-gradient)"/>
      <path id="Trazado_123892" data-name="Trazado 123892" d="M2630.234,1064.669a4.171,4.171,0,0,1,1.7,7.979l.1.3,1.8,5.167h-7.214l1.8-5.167.1-.3a4.171,4.171,0,0,1,1.7-7.979Z" transform="translate(-2585.158 -1012.986)" fill="#00223d" fill-rule="evenodd"/>
      <path id="Trazado_123893" data-name="Trazado 123893" d="M2632.232,1064.986a4.172,4.172,0,0,1,.536,7.814l.1.3,1.8,5.167h-6.327l1.751-5.016.1-.3a4.171,4.171,0,0,1,1.7-7.979C2632.014,1064.972,2632.123,1064.977,2632.232,1064.986Z" transform="translate(-2585.991 -1013.138)" fill="#37a3a5" fill-rule="evenodd"/>
    </g>
    <g id="Grupo_57065" data-name="Grupo 57065" transform="translate(134.377 10.006)">
      <rect id="Rectángulo_27339" data-name="Rectángulo 27339" width="63.323" height="26.269" rx="2" transform="translate(0 0)" fill="url(#linear-gradient)"/>
      <g id="Grupo_34103" data-name="Grupo 34103" transform="translate(4.089 4.007)">
        <path id="Trazado_84480" data-name="Trazado 84480" d="M2605.537,1474.063h-11.2v-7.345a3.4,3.4,0,0,1,3.4-3.4h4.4a3.4,3.4,0,0,1,3.4,3.4Zm-9.68-1.52h8.16v-5.824a1.882,1.882,0,0,0-1.88-1.88h-4.4a1.882,1.882,0,0,0-1.879,1.88Z" transform="translate(-2593.165 -1463.318)" fill="#37a3a5"/>
        <path id="Rectángulo_27340" data-name="Rectángulo 27340" d="M1.485,0H12.174a1.485,1.485,0,0,1,1.485,1.485V8.171a4.642,4.642,0,0,1-4.642,4.642H4.642A4.642,4.642,0,0,1,0,8.171V1.485A1.485,1.485,0,0,1,1.485,0Z" transform="translate(0 7.582)" fill="#21587b"/>
        <path id="Trazado_84481" data-name="Trazado 84481" d="M2607.9,1496.715l-.9-4.552a1.156,1.156,0,1,0-1.177,0l-.895,4.552Z" transform="translate(-2599.596 -1479.523)" fill="#253259"/>
      </g>
      <rect id="Rectángulo_27341" data-name="Rectángulo 27341" width="20.048" height="2.765" rx="1.383" transform="translate(23.781 6.913)" fill="#00223d"/>
      <path id="Trazado_84482" data-name="Trazado 84482" d="M2672.72,1497.229h-29.865a1.387,1.387,0,0,1-1.382-1.382h0a1.387,1.387,0,0,1,1.382-1.383h29.865a1.387,1.387,0,0,1,1.382,1.383h0A1.387,1.387,0,0,1,2672.72,1497.229Z" transform="translate(-2617.691 -1478.219)" fill="#00223d"/>
    </g>
    <g id="Grupo_57066" data-name="Grupo 57066" transform="translate(94.039 -26.994)">
      <rect id="Rectángulo_27339-2" data-name="Rectángulo 27339" width="63.323" height="26.269" rx="2" transform="translate(0 0)" fill="url(#linear-gradient)"/>
      <g id="Grupo_34103-2" data-name="Grupo 34103" transform="translate(4.089 4.007)">
        <path id="Trazado_84480-2" data-name="Trazado 84480" d="M2605.537,1474.063h-11.2v-7.345a3.4,3.4,0,0,1,3.4-3.4h4.4a3.4,3.4,0,0,1,3.4,3.4Zm-9.68-1.52h8.16v-5.824a1.882,1.882,0,0,0-1.88-1.88h-4.4a1.882,1.882,0,0,0-1.879,1.88Z" transform="translate(-2593.165 -1463.318)" fill="#37a3a5"/>
        <path id="Rectángulo_27340-2" data-name="Rectángulo 27340" d="M1.485,0H12.174a1.485,1.485,0,0,1,1.485,1.485V8.171a4.642,4.642,0,0,1-4.642,4.642H4.642A4.642,4.642,0,0,1,0,8.171V1.485A1.485,1.485,0,0,1,1.485,0Z" transform="translate(0 7.582)" fill="#21587b"/>
        <path id="Trazado_84481-2" data-name="Trazado 84481" d="M2607.9,1496.715l-.9-4.552a1.156,1.156,0,1,0-1.177,0l-.895,4.552Z" transform="translate(-2599.596 -1479.523)" fill="#253259"/>
      </g>
      <rect id="Rectángulo_27341-2" data-name="Rectángulo 27341" width="20.048" height="2.765" rx="1.383" transform="translate(23.781 6.913)" fill="#00223d"/>
      <path id="Trazado_84482-2" data-name="Trazado 84482" d="M2672.72,1497.229h-29.865a1.387,1.387,0,0,1-1.382-1.382h0a1.387,1.387,0,0,1,1.382-1.383h29.865a1.387,1.387,0,0,1,1.382,1.383h0A1.387,1.387,0,0,1,2672.72,1497.229Z" transform="translate(-2617.691 -1478.219)" fill="#00223d"/>
    </g>
    <g id="Grupo_57067" data-name="Grupo 57067" transform="translate(62.377 10.006)">
      <rect id="Rectángulo_27339-3" data-name="Rectángulo 27339" width="63.323" height="26.269" rx="2" transform="translate(0 0)" fill="url(#linear-gradient)"/>
      <g id="Grupo_34103-3" data-name="Grupo 34103" transform="translate(4.089 4.007)">
        <path id="Trazado_84480-3" data-name="Trazado 84480" d="M2605.537,1474.063h-11.2v-7.345a3.4,3.4,0,0,1,3.4-3.4h4.4a3.4,3.4,0,0,1,3.4,3.4Zm-9.68-1.52h8.16v-5.824a1.882,1.882,0,0,0-1.88-1.88h-4.4a1.882,1.882,0,0,0-1.879,1.88Z" transform="translate(-2593.165 -1463.318)" fill="#37a3a5"/>
        <path id="Rectángulo_27340-3" data-name="Rectángulo 27340" d="M1.485,0H12.174a1.485,1.485,0,0,1,1.485,1.485V8.171a4.642,4.642,0,0,1-4.642,4.642H4.642A4.642,4.642,0,0,1,0,8.171V1.485A1.485,1.485,0,0,1,1.485,0Z" transform="translate(0 7.582)" fill="#21587b"/>
        <path id="Trazado_84481-3" data-name="Trazado 84481" d="M2607.9,1496.715l-.9-4.552a1.156,1.156,0,1,0-1.177,0l-.895,4.552Z" transform="translate(-2599.596 -1479.523)" fill="#253259"/>
      </g>
      <rect id="Rectángulo_27341-3" data-name="Rectángulo 27341" width="20.048" height="2.765" rx="1.383" transform="translate(23.781 6.913)" fill="#00223d"/>
      <path id="Trazado_84482-3" data-name="Trazado 84482" d="M2672.72,1497.229h-29.865a1.387,1.387,0,0,1-1.382-1.382h0a1.387,1.387,0,0,1,1.382-1.383h29.865a1.387,1.387,0,0,1,1.382,1.383h0A1.387,1.387,0,0,1,2672.72,1497.229Z" transform="translate(-2617.691 -1478.219)" fill="#00223d"/>
    </g>
    <g id="Grupo_57068" data-name="Grupo 57068" transform="translate(134.377 48.856)">
      <rect id="Rectángulo_27342" data-name="Rectángulo 27342" width="63.323" height="26.269" rx="2" transform="translate(0)" fill="url(#linear-gradient)"/>
      <g id="Grupo_34105" data-name="Grupo 34105" transform="translate(4.089 4.007)">
        <path id="Trazado_84483" data-name="Trazado 84483" d="M2605.537,1572.939h-11.2v-7.345a3.4,3.4,0,0,1,3.4-3.4h4.4a3.4,3.4,0,0,1,3.4,3.4Zm-9.68-1.521h8.16v-5.824a1.882,1.882,0,0,0-1.88-1.879h-4.4a1.882,1.882,0,0,0-1.879,1.879Z" transform="translate(-2593.165 -1562.194)" fill="#37a3a5"/>
        <path id="Rectángulo_27343" data-name="Rectángulo 27343" d="M1.485,0H12.174a1.485,1.485,0,0,1,1.485,1.485V8.171a4.642,4.642,0,0,1-4.642,4.642H4.642A4.642,4.642,0,0,1,0,8.171V1.485A1.485,1.485,0,0,1,1.485,0Z" transform="translate(0 7.582)" fill="#21587b"/>
        <path id="Trazado_84484" data-name="Trazado 84484" d="M2607.9,1595.592l-.9-4.552a1.156,1.156,0,1,0-1.177,0l-.895,4.552Z" transform="translate(-2599.596 -1578.399)" fill="#253259"/>
      </g>
      <rect id="Rectángulo_27344" data-name="Rectángulo 27344" width="20.048" height="2.765" rx="1.383" transform="translate(23.781 6.913)" fill="#00223d"/>
      <path id="Trazado_84485" data-name="Trazado 84485" d="M2672.72,1596.105h-29.865a1.386,1.386,0,0,1-1.382-1.382h0a1.387,1.387,0,0,1,1.382-1.383h29.865a1.387,1.387,0,0,1,1.382,1.383h0A1.386,1.386,0,0,1,2672.72,1596.105Z" transform="translate(-2617.691 -1577.095)" fill="#00223d"/>
    </g>
  </g>
</svg>
